<?xml version="1.0" encoding="UTF-8"?>
<!DOCTYPE score-partwise PUBLIC "-//Recordare//DTD MusicXML 3.0 Partwise//EN" "http://www.musicxml.org/dtds/partwise.dtd">
<score-partwise version="3.0">
  <movement-title>Quem queritis</movement-title>
      <identification>
          <encoding>
              <software>Encore</software>
          </encoding>
      </identification>
      <defaults>
          <scaling>
              <millimeters>6.35</millimeters>
              <tenths>40</tenths>
          </scaling>
      </defaults>
      <part-list>
          <score-part id="P1">
              <part-name>tiocelio@via.com.br</part-name>
              <score-instrument id="P1-I2">
                  <instrument-name>Recorder</instrument-name>
              </score-instrument>
              <midi-instrument id="P1-I2">
                  <midi-channel>1</midi-channel>
                  <midi-program>75</midi-program>
              </midi-instrument>
          </score-part>
      </part-list>
      <!--=========================================================-->
      <part id="P1">
          <measure implicit="yes" number="0">
              <attributes>
                  <divisions>240</divisions>
                  <key>
                      <fifths>2</fifths>
                  </key>
                  <time>
                      <beats>4</beats>
                      <beat-type>4</beat-type>
                  </time>
                  <staves>1</staves>
                  <clef number="1">
                      <sign>G</sign>
                      <line>2</line>
                  </clef>
                  <transpose>
                      <chromatic>12</chromatic>
                  </transpose>
              </attributes>
              <note>
                  <pitch>
                      <step>D</step>
                      <octave>4</octave>
                  </pitch>
                  <duration>120</duration>
                  <voice>1</voice>
                  <type>eighth</type>
                  <stem>up</stem>
                  <staff>1</staff>
                  <beam number="1">begin</beam>
                  <notations>
                  </notations>
              </note>
              <note>
                  <pitch>
                      <step>E</step>
                      <octave>4</octave>
                  </pitch>
                  <duration>120</duration>
                  <voice>1</voice>
                  <type>eighth</type>
                  <stem>up</stem>
                  <staff>1</staff>
                  <beam number="1">end</beam>
                  <notations>
                  </notations>
              </note>
          </measure>
          <measure  number="1">
              <attributes>
              </attributes>
              <note>
                  <pitch>
                      <step>F</step>
                      <alter>1</alter>
                      <octave>4</octave>
                  </pitch>
                  <duration>240</duration>
                  <voice>1</voice>
                  <type>quarter</type>
                  <stem>up</stem>
                  <staff>1</staff>
                  <notations>
                  </notations>
              </note>
              <backup>
                  <duration>129</duration>
              </backup>
              <!--=========== CHORD HERE ==================-->
              <forward>
                  <duration>129</duration>
              </forward>
              <note>
                  <pitch>
                      <step>A</step>
                      <octave>4</octave>
                  </pitch>
                  <duration>240</duration>
                  <voice>1</voice>
                  <type>quarter</type>
                  <stem>up</stem>
                  <staff>1</staff>
                  <notations>
                  </notations>
              </note>
              <note>
                  <pitch>
                      <step>A</step>
                      <octave>4</octave>
                  </pitch>
                  <duration>240</duration>
                  <voice>1</voice>
                  <type>quarter</type>
                  <stem>up</stem>
                  <staff>1</staff>
                  <notations>
                  </notations>
              </note>
              <note>
                  <pitch>
                      <step>F</step>
                      <alter>1</alter>
                      <octave>4</octave>
                  </pitch>
                  <duration>240</duration>
                  <voice>1</voice>
                  <type>quarter</type>
                  <stem>up</stem>
                  <staff>1</staff>
                  <notations>
                  </notations>
              </note>
          </measure>
          <measure  number="2">
              <attributes>
              </attributes>
              <note>
                  <pitch>
                      <step>G</step>
                      <octave>4</octave>
                  </pitch>
                  <duration>240</duration>
                  <voice>1</voice>
                  <type>quarter</type>
                  <stem>up</stem>
                  <staff>1</staff>
                  <notations>
                  </notations>
              </note>
              <backup>
                  <duration>123</duration>
              </backup>
              <!--=========== CHORD HERE ==================-->
              <forward>
                  <duration>123</duration>
              </forward>
              <direction placement="above">
                  <direction-type>
                      <words justify="center" font-family="unknown font" font-style="normal" font-size="14" font-weight="bold" color="#000000" enclosure="none">Asa brancaഊ</words>
                  </direction-type>
                  <voice>1</voice>
                  <staff>1</staff>
              </direction>
              <note>
                  <pitch>
                      <step>G</step>
                      <octave>4</octave>
                  </pitch>
                  <duration>480</duration>
                  <voice>1</voice>
                  <type>half</type>
                  <stem>up</stem>
                  <staff>1</staff>
                  <notations>
                  </notations>
              </note>
              <note>
                  <pitch>
                      <step>D</step>
                      <octave>4</octave>
                  </pitch>
                  <duration>120</duration>
                  <voice>1</voice>
                  <type>eighth</type>
                  <stem>up</stem>
                  <staff>1</staff>
                  <beam number="1">begin</beam>
                  <notations>
                  </notations>
              </note>
              <backup>
                  <duration>120</duration>
              </backup>
              <forward>
                  <duration>120</duration>
              </forward>
              <note>
                  <pitch>
                      <step>E</step>
                      <octave>4</octave>
                  </pitch>
                  <duration>120</duration>
                  <voice>1</voice>
                  <type>eighth</type>
                  <stem>up</stem>
                  <staff>1</staff>
                  <beam number="1">end</beam>
                  <notations>
                  </notations>
              </note>
          </measure>
          <measure  number="3">
              <attributes>
              </attributes>
              <note>
                  <pitch>
                      <step>F</step>
                      <alter>1</alter>
                      <octave>4</octave>
                  </pitch>
                  <duration>240</duration>
                  <voice>1</voice>
                  <type>quarter</type>
                  <stem>up</stem>
                  <staff>1</staff>
                  <notations>
                  </notations>
              </note>
              <backup>
                  <duration>142</duration>
              </backup>
              <!--=========== CHORD HERE ==================-->
              <forward>
                  <duration>142</duration>
              </forward>
              <note>
                  <pitch>
                      <step>A</step>
                      <octave>4</octave>
                  </pitch>
                  <duration>240</duration>
                  <voice>1</voice>
                  <type>quarter</type>
                  <stem>up</stem>
                  <staff>1</staff>
                  <notations>
                  </notations>
              </note>
              <direction placement="above">
                  <direction-type>
                      <words justify="center" font-family="unknown font" font-style="normal" font-size="12" font-weight="normal" color="#000000" enclosure="none">Luiz Gonzaga / Humberto Teixeiraഊ</words>
                  </direction-type>
                  <voice>1</voice>
                  <staff>1</staff>
              </direction>
              <note>
                  <pitch>
                      <step>A</step>
                      <octave>4</octave>
                  </pitch>
                  <duration>240</duration>
                  <voice>1</voice>
                  <type>quarter</type>
                  <stem>up</stem>
                  <staff>1</staff>
                  <notations>
                  </notations>
              </note>
              <backup>
                  <duration>127</duration>
              </backup>
              <!--=========== CHORD HERE ==================-->
              <forward>
                  <duration>127</duration>
              </forward>
              <note>
                  <pitch>
                      <step>G</step>
                      <octave>4</octave>
                  </pitch>
                  <duration>240</duration>
                  <voice>1</voice>
                  <type>quarter</type>
                  <stem>up</stem>
                  <staff>1</staff>
                  <notations>
                  </notations>
              </note>
          </measure>
          <measure  number="4">
              <attributes>
              </attributes>
              <note>
                  <pitch>
                      <step>F</step>
                      <alter>1</alter>
                      <octave>4</octave>
                  </pitch>
                  <duration>480</duration>
                  <voice>1</voice>
                  <type>half</type>
                  <stem>up</stem>
                  <staff>1</staff>
                  <notations>
                  </notations>
              </note>
              <backup>
                  <duration>389</duration>
              </backup>
              <!--=========== CHORD HERE ==================-->
              <forward>
                  <duration>389</duration>
              </forward>
              <note>
                  <rest/>
                  <duration>120</duration>
                  <voice>1</voice>
                  <type>eighth</type>
                  <staff>1</staff>
              </note>
              <note>
                  <pitch>
                      <step>D</step>
                      <octave>4</octave>
                  </pitch>
                  <duration>120</duration>
                  <voice>1</voice>
                  <type>eighth</type>
                  <stem>up</stem>
                  <staff>1</staff>
                  <notations>
                  </notations>
              </note>
              <note>
                  <pitch>
                      <step>D</step>
                      <octave>4</octave>
                  </pitch>
                  <duration>120</duration>
                  <voice>1</voice>
                  <type>eighth</type>
                  <stem>up</stem>
                  <staff>1</staff>
                  <beam number="1">begin</beam>
                  <notations>
                  </notations>
              </note>
              <note>
                  <pitch>
                      <step>E</step>
                      <octave>4</octave>
                  </pitch>
                  <duration>120</duration>
                  <voice>1</voice>
                  <type>eighth</type>
                  <stem>up</stem>
                  <staff>1</staff>
                  <beam number="1">end</beam>
                  <notations>
                  </notations>
              </note>
          </measure>
          <measure  number="5">
              <attributes>
              </attributes>
              <note>
                  <pitch>
                      <step>F</step>
                      <alter>1</alter>
                      <octave>4</octave>
                  </pitch>
                  <duration>240</duration>
                  <voice>1</voice>
                  <type>quarter</type>
                  <stem>up</stem>
                  <staff>1</staff>
                  <notations>
                  </notations>
              </note>
              <backup>
                  <duration>132</duration>
              </backup>
              <!--=========== CHORD HERE ==================-->
              <forward>
                  <duration>132</duration>
              </forward>
              <note>
                  <pitch>
                      <step>A</step>
                      <octave>4</octave>
                  </pitch>
                  <duration>240</duration>
                  <voice>1</voice>
                  <type>quarter</type>
                  <stem>up</stem>
                  <staff>1</staff>
                  <notations>
                  </notations>
              </note>
              <note>
                  <rest/>
                  <duration>120</duration>
                  <voice>1</voice>
                  <type>eighth</type>
                  <staff>1</staff>
              </note>
              <note>
                  <pitch>
                      <step>A</step>
                      <octave>4</octave>
                  </pitch>
                  <duration>120</duration>
                  <voice>1</voice>
                  <type>eighth</type>
                  <stem>up</stem>
                  <staff>1</staff>
                  <notations>
                  </notations>
              </note>
              <note>
                  <pitch>
                      <step>G</step>
                      <octave>4</octave>
                  </pitch>
                  <duration>120</duration>
                  <voice>1</voice>
                  <type>eighth</type>
                  <stem>up</stem>
                  <staff>1</staff>
                  <beam number="1">begin</beam>
                  <notations>
                  </notations>
              </note>
              <backup>
                  <duration>120</duration>
              </backup>
              <forward>
                  <duration>120</duration>
              </forward>
              <note>
                  <pitch>
                      <step>F</step>
                      <alter>1</alter>
                      <octave>4</octave>
                  </pitch>
                  <duration>120</duration>
                  <voice>1</voice>
                  <type>eighth</type>
                  <stem>up</stem>
                  <staff>1</staff>
                  <beam number="1">end</beam>
                  <notations>
                  </notations>
              </note>
          </measure>
          <measure  number="6">
              <attributes>
              </attributes>
              <note>
                  <pitch>
                      <step>D</step>
                      <octave>4</octave>
                  </pitch>
                  <duration>240</duration>
                  <voice>1</voice>
                  <type>quarter</type>
                  <stem>up</stem>
                  <staff>1</staff>
                  <notations>
                  </notations>
              </note>
              <backup>
                  <duration>133</duration>
              </backup>
              <!--=========== CHORD HERE ==================-->
              <forward>
                  <duration>133</duration>
              </forward>
              <note>
                  <pitch>
                      <step>G</step>
                      <octave>4</octave>
                  </pitch>
                  <duration>240</duration>
                  <voice>1</voice>
                  <type>quarter</type>
                  <stem>up</stem>
                  <staff>1</staff>
                  <notations>
                  </notations>
              </note>
              <note>
                  <rest/>
                  <duration>120</duration>
                  <voice>1</voice>
                  <type>eighth</type>
                  <staff>1</staff>
              </note>
              <note>
                  <pitch>
                      <step>G</step>
                      <octave>4</octave>
                  </pitch>
                  <duration>120</duration>
                  <voice>1</voice>
                  <type>eighth</type>
                  <stem>up</stem>
                  <staff>1</staff>
                  <notations>
                  </notations>
              </note>
              <note>
                  <pitch>
                      <step>F</step>
                      <alter>1</alter>
                      <octave>4</octave>
                  </pitch>
                  <duration>120</duration>
                  <voice>1</voice>
                  <type>eighth</type>
                  <stem>up</stem>
                  <staff>1</staff>
                  <beam number="1">begin</beam>
                  <notations>
                  </notations>
              </note>
              <backup>
                  <duration>120</duration>
              </backup>
              <forward>
                  <duration>120</duration>
              </forward>
              <note>
                  <pitch>
                      <step>E</step>
                      <octave>4</octave>
                  </pitch>
                  <duration>120</duration>
                  <voice>1</voice>
                  <type>eighth</type>
                  <stem>up</stem>
                  <staff>1</staff>
                  <beam number="1">end</beam>
                  <notations>
                  </notations>
              </note>
          </measure>
          <measure  number="7">
              <attributes>
              </attributes>
              <note>
                  <pitch>
                      <step>E</step>
                      <octave>4</octave>
                  </pitch>
                  <duration>240</duration>
                  <voice>1</voice>
                  <type>quarter</type>
                  <stem>up</stem>
                  <staff>1</staff>
                  <notations>
                  </notations>
              </note>
              <backup>
                  <duration>156</duration>
              </backup>
              <!--=========== CHORD HERE ==================-->
              <forward>
                  <duration>156</duration>
              </forward>
              <note>
                  <pitch>
                      <step>F</step>
                      <alter>1</alter>
                      <octave>4</octave>
                  </pitch>
                  <duration>240</duration>
                  <voice>1</voice>
                  <type>quarter</type>
                  <stem>up</stem>
                  <staff>1</staff>
                  <notations>
                  </notations>
              </note>
              <note>
                  <rest/>
                  <duration>120</duration>
                  <voice>1</voice>
                  <type>eighth</type>
                  <staff>1</staff>
              </note>
              <note>
                  <pitch>
                      <step>E</step>
                      <octave>4</octave>
                  </pitch>
                  <duration>120</duration>
                  <voice>1</voice>
                  <type>eighth</type>
                  <stem>up</stem>
                  <staff>1</staff>
                  <notations>
                  </notations>
              </note>
              <note>
                  <pitch>
                      <step>E</step>
                      <octave>4</octave>
                  </pitch>
                  <duration>120</duration>
                  <voice>1</voice>
                  <type>eighth</type>
                  <stem>up</stem>
                  <staff>1</staff>
                  <beam number="1">begin</beam>
                  <notations>
                  </notations>
              </note>
              <backup>
                  <duration>120</duration>
              </backup>
              <forward>
                  <duration>120</duration>
              </forward>
              <note>
                  <pitch>
                      <step>D</step>
                      <octave>4</octave>
                  </pitch>
                  <duration>120</duration>
                  <voice>1</voice>
                  <type>eighth</type>
                  <stem>up</stem>
                  <staff>1</staff>
                  <beam number="1">end</beam>
                  <notations>
                  </notations>
              </note>
          </measure>
          <measure  number="8">
              <attributes>
              </attributes>
              <note>
                  <pitch>
                      <step>D</step>
                      <octave>4</octave>
                  </pitch>
                  <duration>480</duration>
                  <voice>1</voice>
                  <type>half</type>
                  <stem>up</stem>
                  <staff>1</staff>
                  <notations>
                  </notations>
              </note>
              <backup>
                  <duration>387</duration>
              </backup>
              <!--=========== CHORD HERE ==================-->
              <forward>
                  <duration>387</duration>
              </forward>
              <note>
                  <rest/>
                  <duration>120</duration>
                  <voice>1</voice>
                  <type>eighth</type>
                  <staff>1</staff>
              </note>
              <note>
                  <pitch>
                      <step>D</step>
                      <octave>4</octave>
                  </pitch>
                  <duration>120</duration>
                  <voice>1</voice>
                  <type>eighth</type>
                  <stem>up</stem>
                  <staff>1</staff>
                  <notations>
                  </notations>
              </note>
              <note>
                  <pitch>
                      <step>D</step>
                      <octave>4</octave>
                  </pitch>
                  <duration>120</duration>
                  <voice>1</voice>
                  <type>eighth</type>
                  <stem>up</stem>
                  <staff>1</staff>
                  <beam number="1">begin</beam>
                  <notations>
                  </notations>
              </note>
              <note>
                  <pitch>
                      <step>E</step>
                      <octave>4</octave>
                  </pitch>
                  <duration>120</duration>
                  <voice>1</voice>
                  <type>eighth</type>
                  <stem>up</stem>
                  <staff>1</staff>
                  <beam number="1">end</beam>
                  <notations>
                  </notations>
              </note>
          </measure>
          <measure  number="9">
              <attributes>
              </attributes>
              <note>
                  <pitch>
                      <step>F</step>
                      <alter>1</alter>
                      <octave>4</octave>
                  </pitch>
                  <duration>240</duration>
                  <voice>1</voice>
                  <type>quarter</type>
                  <stem>up</stem>
                  <staff>1</staff>
                  <notations>
                  </notations>
              </note>
              <backup>
                  <duration>161</duration>
              </backup>
              <!--=========== CHORD HERE ==================-->
              <forward>
                  <duration>161</duration>
              </forward>
              <note>
                  <pitch>
                      <step>A</step>
                      <octave>4</octave>
                  </pitch>
                  <duration>240</duration>
                  <voice>1</voice>
                  <type>quarter</type>
                  <stem>up</stem>
                  <staff>1</staff>
                  <notations>
                  </notations>
              </note>
              <note>
                  <rest/>
                  <duration>120</duration>
                  <voice>1</voice>
                  <type>eighth</type>
                  <staff>1</staff>
              </note>
              <note>
                  <pitch>
                      <step>A</step>
                      <octave>4</octave>
                  </pitch>
                  <duration>120</duration>
                  <voice>1</voice>
                  <type>eighth</type>
                  <stem>up</stem>
                  <staff>1</staff>
                  <notations>
                  </notations>
              </note>
              <note>
                  <pitch>
                      <step>G</step>
                      <octave>4</octave>
                  </pitch>
                  <duration>120</duration>
                  <voice>1</voice>
                  <type>eighth</type>
                  <stem>up</stem>
                  <staff>1</staff>
                  <beam number="1">begin</beam>
                  <notations>
                  </notations>
              </note>
              <backup>
                  <duration>120</duration>
              </backup>
              <forward>
                  <duration>120</duration>
              </forward>
              <note>
                  <pitch>
                      <step>F</step>
                      <alter>1</alter>
                      <octave>4</octave>
                  </pitch>
                  <duration>120</duration>
                  <voice>1</voice>
                  <type>eighth</type>
                  <stem>up</stem>
                  <staff>1</staff>
                  <beam number="1">end</beam>
                  <notations>
                  </notations>
              </note>
          </measure>
          <measure  number="10">
              <attributes>
              </attributes>
              <note>
                  <pitch>
                      <step>D</step>
                      <octave>4</octave>
                  </pitch>
                  <duration>240</duration>
                  <voice>1</voice>
                  <type>quarter</type>
                  <stem>up</stem>
                  <staff>1</staff>
                  <notations>
                  </notations>
              </note>
              <backup>
                  <duration>133</duration>
              </backup>
              <!--=========== CHORD HERE ==================-->
              <forward>
                  <duration>133</duration>
              </forward>
              <note>
                  <pitch>
                      <step>G</step>
                      <octave>4</octave>
                  </pitch>
                  <duration>240</duration>
                  <voice>1</voice>
                  <type>quarter</type>
                  <stem>up</stem>
                  <staff>1</staff>
                  <notations>
                  </notations>
              </note>
              <note>
                  <rest/>
                  <duration>120</duration>
                  <voice>1</voice>
                  <type>eighth</type>
                  <staff>1</staff>
              </note>
              <note>
                  <pitch>
                      <step>G</step>
                      <octave>4</octave>
                  </pitch>
                  <duration>120</duration>
                  <voice>1</voice>
                  <type>eighth</type>
                  <stem>up</stem>
                  <staff>1</staff>
                  <notations>
                  </notations>
              </note>
              <note>
                  <pitch>
                      <step>F</step>
                      <alter>1</alter>
                      <octave>4</octave>
                  </pitch>
                  <duration>120</duration>
                  <voice>1</voice>
                  <type>eighth</type>
                  <stem>up</stem>
                  <staff>1</staff>
                  <beam number="1">begin</beam>
                  <notations>
                  </notations>
              </note>
              <backup>
                  <duration>120</duration>
              </backup>
              <forward>
                  <duration>120</duration>
              </forward>
              <note>
                  <pitch>
                      <step>E</step>
                      <octave>4</octave>
                  </pitch>
                  <duration>120</duration>
                  <voice>1</voice>
                  <type>eighth</type>
                  <stem>up</stem>
                  <staff>1</staff>
                  <beam number="1">end</beam>
                  <notations>
                  </notations>
              </note>
          </measure>
          <measure  number="11">
              <attributes>
              </attributes>
              <note>
                  <pitch>
                      <step>E</step>
                      <octave>4</octave>
                  </pitch>
                  <duration>240</duration>
                  <voice>1</voice>
                  <type>quarter</type>
                  <stem>up</stem>
                  <staff>1</staff>
                  <notations>
                  </notations>
              </note>
              <backup>
                  <duration>156</duration>
              </backup>
              <!--=========== CHORD HERE ==================-->
              <forward>
                  <duration>156</duration>
              </forward>
              <note>
                  <pitch>
                      <step>F</step>
                      <alter>1</alter>
                      <octave>4</octave>
                  </pitch>
                  <duration>240</duration>
                  <voice>1</voice>
                  <type>quarter</type>
                  <stem>up</stem>
                  <staff>1</staff>
                  <notations>
                  </notations>
              </note>
              <note>
                  <rest/>
                  <duration>120</duration>
                  <voice>1</voice>
                  <type>eighth</type>
                  <staff>1</staff>
              </note>
              <note>
                  <pitch>
                      <step>E</step>
                      <octave>4</octave>
                  </pitch>
                  <duration>120</duration>
                  <voice>1</voice>
                  <type>eighth</type>
                  <stem>up</stem>
                  <staff>1</staff>
                  <notations>
                  </notations>
              </note>
              <note>
                  <pitch>
                      <step>E</step>
                      <octave>4</octave>
                  </pitch>
                  <duration>120</duration>
                  <voice>1</voice>
                  <type>eighth</type>
                  <stem>up</stem>
                  <staff>1</staff>
                  <beam number="1">begin</beam>
                  <notations>
                  </notations>
              </note>
              <backup>
                  <duration>120</duration>
              </backup>
              <forward>
                  <duration>120</duration>
              </forward>
              <note>
                  <pitch>
                      <step>D</step>
                      <octave>4</octave>
                  </pitch>
                  <duration>120</duration>
                  <voice>1</voice>
                  <type>eighth</type>
                  <stem>up</stem>
                  <staff>1</staff>
                  <beam number="1">end</beam>
                  <notations>
                  </notations>
              </note>
          </measure>
          <measure  number="12">
              <attributes>
              </attributes>
              <note>
                  <pitch>
                      <step>D</step>
                      <octave>4</octave>
                  </pitch>
                  <duration>240</duration>
                  <voice>1</voice>
                  <type>quarter</type>
                  <stem>up</stem>
                  <staff>1</staff>
                  <notations>
                  </notations>
              </note>
              <backup>
                  <duration>176</duration>
              </backup>
              <!--=========== CHORD HERE ==================-->
              <forward>
                  <duration>176</duration>
              </forward>
              <note>
                  <pitch>
                      <step>C</step>
                      <octave>5</octave>
                  </pitch>
                  <duration>120</duration>
                  <voice>1</voice>
                  <type>eighth</type>
                  <accidental cautionary="no">natural</accidental>
                  <stem>up</stem>
                  <staff>1</staff>
                  <beam number="1">begin</beam>
                  <notations>
                  </notations>
              </note>
              <backup>
                  <duration>120</duration>
              </backup>
              <forward>
                  <duration>120</duration>
              </forward>
              <note>
                  <pitch>
                      <step>A</step>
                      <octave>4</octave>
                  </pitch>
                  <duration>120</duration>
                  <voice>1</voice>
                  <type>eighth</type>
                  <stem>up</stem>
                  <staff>1</staff>
                  <beam number="1">end</beam>
                  <notations>
                  </notations>
              </note>
              <note>
                  <pitch>
                      <step>B</step>
                      <octave>4</octave>
                  </pitch>
                  <duration>120</duration>
                  <voice>1</voice>
                  <type>eighth</type>
                  <stem>up</stem>
                  <staff>1</staff>
                  <beam number="1">begin</beam>
                  <notations>
                  </notations>
              </note>
              <note>
                  <pitch>
                      <step>G</step>
                      <octave>4</octave>
                  </pitch>
                  <duration>120</duration>
                  <voice>1</voice>
                  <type>eighth</type>
                  <stem>up</stem>
                  <staff>1</staff>
                  <beam number="1">end</beam>
                  <notations>
                  </notations>
              </note>
              <note>
                  <pitch>
                      <step>A</step>
                      <octave>4</octave>
                  </pitch>
                  <duration>120</duration>
                  <voice>1</voice>
                  <type>eighth</type>
                  <stem>up</stem>
                  <staff>1</staff>
                  <beam number="1">begin</beam>
                  <notations>
                  </notations>
              </note>
              <note>
                  <pitch>
                      <step>F</step>
                      <alter>1</alter>
                      <octave>4</octave>
                  </pitch>
                  <duration>120</duration>
                  <voice>1</voice>
                  <type>eighth</type>
                  <stem>up</stem>
                  <staff>1</staff>
                  <beam number="1">end</beam>
                  <notations>
                  </notations>
              </note>
          </measure>
          <measure  number="13">
              <attributes>
              </attributes>
              <note>
                  <pitch>
                      <step>G</step>
                      <octave>4</octave>
                  </pitch>
                  <duration>120</duration>
                  <voice>1</voice>
                  <type>eighth</type>
                  <stem>up</stem>
                  <staff>1</staff>
                  <beam number="1">begin</beam>
                  <notations>
                  </notations>
              </note>
              <backup>
                  <duration>120</duration>
              </backup>
              <forward>
                  <duration>107</duration>
              </forward>
              <!--=========== CHORD HERE ==================-->
              <forward>
                  <duration>13</duration>
              </forward>
              <note>
                  <pitch>
                      <step>E</step>
                      <octave>4</octave>
                  </pitch>
                  <duration>120</duration>
                  <voice>1</voice>
                  <type>eighth</type>
                  <stem>up</stem>
                  <staff>1</staff>
                  <beam number="1">end</beam>
                  <notations>
                  </notations>
              </note>
              <note>
                  <pitch>
                      <step>F</step>
                      <alter>1</alter>
                      <octave>4</octave>
                  </pitch>
                  <duration>120</duration>
                  <voice>1</voice>
                  <type>eighth</type>
                  <stem>up</stem>
                  <staff>1</staff>
                  <beam number="1">begin</beam>
                  <notations>
                  </notations>
              </note>
              <backup>
                  <duration>120</duration>
              </backup>
              <forward>
                  <duration>120</duration>
              </forward>
              <note>
                  <pitch>
                      <step>D</step>
                      <octave>4</octave>
                  </pitch>
                  <duration>120</duration>
                  <voice>1</voice>
                  <type>eighth</type>
                  <stem>up</stem>
                  <staff>1</staff>
                  <beam number="1">end</beam>
                  <notations>
                  </notations>
              </note>
              <note>
                  <pitch>
                      <step>E</step>
                      <octave>4</octave>
                  </pitch>
                  <duration>120</duration>
                  <voice>1</voice>
                  <type>eighth</type>
                  <stem>up</stem>
                  <staff>1</staff>
                  <beam number="1">begin</beam>
                  <notations>
                  </notations>
              </note>
              <backup>
                  <duration>120</duration>
              </backup>
              <forward>
                  <duration>53</duration>
              </forward>
              <!--=========== CHORD HERE ==================-->
              <forward>
                  <duration>67</duration>
              </forward>
              <note>
                  <pitch>
                      <step>D</step>
                      <octave>4</octave>
                  </pitch>
                  <duration>120</duration>
                  <voice>1</voice>
                  <type>eighth</type>
                  <stem>up</stem>
                  <staff>1</staff>
                  <beam number="1">end</beam>
                  <notations>
                  </notations>
              </note>
              <note>
                  <pitch>
                      <step>B</step>
                      <octave>3</octave>
                  </pitch>
                  <duration>120</duration>
                  <voice>1</voice>
                  <type>eighth</type>
                  <stem>up</stem>
                  <staff>1</staff>
                  <beam number="1">begin</beam>
                  <notations>
                  </notations>
              </note>
              <backup>
                  <duration>120</duration>
              </backup>
              <forward>
                  <duration>120</duration>
              </forward>
              <note>
                  <pitch>
                      <step>D</step>
                      <octave>4</octave>
                  </pitch>
                  <duration>120</duration>
                  <voice>1</voice>
                  <type>eighth</type>
                  <stem>up</stem>
                  <staff>1</staff>
                  <beam number="1">end</beam>
                  <notations>
                  </notations>
              </note>
          </measure>
          <measure  number="14">
              <attributes>
              </attributes>
              <note>
                  <pitch>
                      <step>D</step>
                      <octave>4</octave>
                  </pitch>
                  <duration>240</duration>
                  <voice>1</voice>
                  <type>quarter</type>
                  <stem>up</stem>
                  <staff>1</staff>
                  <notations>
                  </notations>
              </note>
              <backup>
                  <duration>132</duration>
              </backup>
              <!--=========== CHORD HERE ==================-->
              <forward>
                  <duration>132</duration>
              </forward>
              <note>
                  <pitch>
                      <step>C</step>
                      <octave>5</octave>
                  </pitch>
                  <duration>120</duration>
                  <voice>1</voice>
                  <type>eighth</type>
                  <accidental cautionary="no">natural</accidental>
                  <stem>up</stem>
                  <staff>1</staff>
                  <beam number="1">begin</beam>
                  <notations>
                  </notations>
              </note>
              <backup>
                  <duration>120</duration>
              </backup>
              <forward>
                  <duration>120</duration>
              </forward>
              <note>
                  <pitch>
                      <step>A</step>
                      <octave>4</octave>
                  </pitch>
                  <duration>120</duration>
                  <voice>1</voice>
                  <type>eighth</type>
                  <stem>up</stem>
                  <staff>1</staff>
                  <beam number="1">end</beam>
                  <notations>
                  </notations>
              </note>
              <note>
                  <pitch>
                      <step>B</step>
                      <octave>4</octave>
                  </pitch>
                  <duration>120</duration>
                  <voice>1</voice>
                  <type>eighth</type>
                  <stem>up</stem>
                  <staff>1</staff>
                  <beam number="1">begin</beam>
                  <notations>
                  </notations>
              </note>
              <note>
                  <pitch>
                      <step>G</step>
                      <octave>4</octave>
                  </pitch>
                  <duration>120</duration>
                  <voice>1</voice>
                  <type>eighth</type>
                  <stem>up</stem>
                  <staff>1</staff>
                  <beam number="1">end</beam>
                  <notations>
                  </notations>
              </note>
              <note>
                  <pitch>
                      <step>A</step>
                      <octave>4</octave>
                  </pitch>
                  <duration>120</duration>
                  <voice>1</voice>
                  <type>eighth</type>
                  <stem>up</stem>
                  <staff>1</staff>
                  <beam number="1">begin</beam>
                  <notations>
                  </notations>
              </note>
              <note>
                  <pitch>
                      <step>F</step>
                      <alter>1</alter>
                      <octave>4</octave>
                  </pitch>
                  <duration>120</duration>
                  <voice>1</voice>
                  <type>eighth</type>
                  <stem>up</stem>
                  <staff>1</staff>
                  <beam number="1">end</beam>
                  <notations>
                  </notations>
              </note>
          </measure>
          <measure  number="15">
              <attributes>
              </attributes>
              <note>
                  <pitch>
                      <step>G</step>
                      <octave>4</octave>
                  </pitch>
                  <duration>120</duration>
                  <voice>1</voice>
                  <type>eighth</type>
                  <stem>up</stem>
                  <staff>1</staff>
                  <beam number="1">begin</beam>
                  <notations>
                  </notations>
              </note>
              <backup>
                  <duration>120</duration>
              </backup>
              <forward>
                  <duration>107</duration>
              </forward>
              <!--=========== CHORD HERE ==================-->
              <forward>
                  <duration>13</duration>
              </forward>
              <note>
                  <pitch>
                      <step>E</step>
                      <octave>4</octave>
                  </pitch>
                  <duration>120</duration>
                  <voice>1</voice>
                  <type>eighth</type>
                  <stem>up</stem>
                  <staff>1</staff>
                  <beam number="1">end</beam>
                  <notations>
                  </notations>
              </note>
              <note>
                  <pitch>
                      <step>F</step>
                      <alter>1</alter>
                      <octave>4</octave>
                  </pitch>
                  <duration>120</duration>
                  <voice>1</voice>
                  <type>eighth</type>
                  <stem>up</stem>
                  <staff>1</staff>
                  <beam number="1">begin</beam>
                  <notations>
                  </notations>
              </note>
              <backup>
                  <duration>120</duration>
              </backup>
              <forward>
                  <duration>120</duration>
              </forward>
              <note>
                  <pitch>
                      <step>D</step>
                      <octave>4</octave>
                  </pitch>
                  <duration>120</duration>
                  <voice>1</voice>
                  <type>eighth</type>
                  <stem>up</stem>
                  <staff>1</staff>
                  <beam number="1">end</beam>
                  <notations>
                  </notations>
              </note>
              <note>
                  <pitch>
                      <step>E</step>
                      <octave>4</octave>
                  </pitch>
                  <duration>120</duration>
                  <voice>1</voice>
                  <type>eighth</type>
                  <stem>up</stem>
                  <staff>1</staff>
                  <beam number="1">begin</beam>
                  <notations>
                  </notations>
              </note>
              <backup>
                  <duration>120</duration>
              </backup>
              <forward>
                  <duration>53</duration>
              </forward>
              <!--=========== CHORD HERE ==================-->
              <forward>
                  <duration>67</duration>
              </forward>
              <note>
                  <pitch>
                      <step>D</step>
                      <octave>4</octave>
                  </pitch>
                  <duration>120</duration>
                  <voice>1</voice>
                  <type>eighth</type>
                  <stem>up</stem>
                  <staff>1</staff>
                  <beam number="1">end</beam>
                  <notations>
                  </notations>
              </note>
              <note>
                  <pitch>
                      <step>B</step>
                      <octave>3</octave>
                  </pitch>
                  <duration>120</duration>
                  <voice>1</voice>
                  <type>eighth</type>
                  <stem>up</stem>
                  <staff>1</staff>
                  <beam number="1">begin</beam>
                  <notations>
                  </notations>
              </note>
              <backup>
                  <duration>120</duration>
              </backup>
              <forward>
                  <duration>120</duration>
              </forward>
              <note>
                  <pitch>
                      <step>D</step>
                      <octave>4</octave>
                  </pitch>
                  <duration>120</duration>
                  <voice>1</voice>
                  <type>eighth</type>
                  <stem>up</stem>
                  <staff>1</staff>
                  <beam number="1">end</beam>
                  <notations>
                  </notations>
              </note>
          </measure>
          <measure  number="16">
              <attributes>
              </attributes>
              <note>
                  <pitch>
                      <step>D</step>
                      <octave>4</octave>
                  </pitch>
                  <duration>960</duration>
                  <voice>1</voice>
                  <type>whole</type>
                  <stem>up</stem>
                  <staff>1</staff>
                  <notations>
                  </notations>
              </note>
              <backup>
                  <duration>799</duration>
              </backup>
              <!--=========== CHORD HERE ==================-->
              <barline location="right">
                  <bar-style>light-heavy</bar-style>
                  <repeat direction="backward"/>
              </barline>
          </measure>
      </part>
  </score-partwise>
