<?xml version="1.0" encoding="UTF-8"?>
<!DOCTYPE score-partwise PUBLIC "-//Recordare//DTD MusicXML 3.0 Partwise//EN" "http://www.musicxml.org/dtds/partwise.dtd">
<score-partwise version="3.0">
  <movement-title>Quem queritis</movement-title>
      <identification>
          <creator type="composer">cavaleiros.enc</creator>
          <encoding>
              <software>Encore</software>
          </encoding>
      </identification>
      <defaults>
          <scaling>
              <millimeters>6.35</millimeters>
              <tenths>40</tenths>
          </scaling>
      </defaults>
      <credit>
          <credit-words justify="center" valign="top">Augusto Cesar e Paulo S. Valle</credit-words>
      </credit>
      <credit>
          <credit-words justify="right" valign="top">cavaleiros.enc</credit-words>
      </credit>
      <part-list>
          <score-part id="P1">
              <part-name></part-name>
              <score-instrument id="P1-I2">
                  <instrument-name>NONE</instrument-name>
              </score-instrument>
              <midi-instrument id="P1-I2">
                  <midi-channel>1</midi-channel>
              </midi-instrument>
          </score-part>
      </part-list>
      <!--=========================================================-->
      <part id="P1">
          <measure  number="1">
              <attributes>
                  <divisions>240</divisions>
                  <key>
                      <fifths>-1</fifths>
                  </key>
                  <time>
                      <beats>4</beats>
                      <beat-type>4</beat-type>
                  </time>
                  <staves>1</staves>
                  <clef number="1">
                      <sign>G</sign>
                      <line>2</line>
                  </clef>
                  <transpose>
                      <chromatic>0</chromatic>
                  </transpose>
              </attributes>
              <note>
                  <pitch>
                      <step>A</step>
                      <octave>4</octave>
                  </pitch>
                  <duration>720</duration>
                  <voice>1</voice>
                  <type>half</type>
                  <dot/>
                  <stem>up</stem>
                  <staff>1</staff>
                  <notations>
                  </notations>
              </note>
              <backup>
                  <duration>571</duration>
              </backup>
              <!--=========== CHORD HERE ==================-->
              <forward>
                  <duration>571</duration>
              </forward>
              <note>
                  <pitch>
                      <step>G</step>
                      <octave>4</octave>
                  </pitch>
                  <duration>240</duration>
                  <voice>1</voice>
                  <type>quarter</type>
                  <stem>up</stem>
                  <staff>1</staff>
                  <notations>
                  </notations>
              </note>
          </measure>
          <measure  number="2">
              <attributes>
              </attributes>
              <note>
                  <pitch>
                      <step>F</step>
                      <octave>4</octave>
                  </pitch>
                  <duration>720</duration>
                  <voice>1</voice>
                  <type>half</type>
                  <dot/>
                  <stem>up</stem>
                  <staff>1</staff>
                  <notations>
                  </notations>
              </note>
              <backup>
                  <duration>577</duration>
              </backup>
              <!--=========== CHORD HERE ==================-->
              <forward>
                  <duration>577</duration>
              </forward>
              <note>
                  <pitch>
                      <step>G</step>
                      <octave>4</octave>
                  </pitch>
                  <duration>240</duration>
                  <voice>1</voice>
                  <type>quarter</type>
                  <stem>up</stem>
                  <staff>1</staff>
                  <notations>
                  </notations>
              </note>
          </measure>
          <measure  number="3">
              <attributes>
              </attributes>
              <note>
                  <pitch>
                      <step>E</step>
                      <octave>4</octave>
                  </pitch>
                  <duration>720</duration>
                  <voice>1</voice>
                  <type>half</type>
                  <dot/>
                  <stem>up</stem>
                  <staff>1</staff>
                  <notations>
                  </notations>
              </note>
              <backup>
                  <duration>547</duration>
              </backup>
              <!--=========== CHORD HERE ==================-->
              <forward>
                  <duration>547</duration>
              </forward>
              <note>
                  <pitch>
                      <step>C</step>
                      <octave>4</octave>
                  </pitch>
                  <duration>240</duration>
                  <voice>1</voice>
                  <type>quarter</type>
                  <stem>up</stem>
                  <staff>1</staff>
                  <notations>
                  </notations>
              </note>
          </measure>
          <measure  number="4">
              <attributes>
              </attributes>
              <note>
                  <pitch>
                      <step>A</step>
                      <octave>3</octave>
                  </pitch>
                  <duration>480</duration>
                  <voice>1</voice>
                  <type>half</type>
                  <stem>up</stem>
                  <staff>1</staff>
                  <notations>
                  </notations>
              </note>
              <backup>
                  <duration>344</duration>
              </backup>
              <!--=========== CHORD HERE ==================-->
              <forward>
                  <duration>344</duration>
              </forward>
              <note>
                  <rest/>
                  <duration>240</duration>
                  <voice>1</voice>
                  <type>quarter</type>
                  <staff>1</staff>
              </note>
              <note>
                  <pitch>
                      <step>A</step>
                      <octave>4</octave>
                  </pitch>
                  <duration>120</duration>
                  <voice>1</voice>
                  <type>eighth</type>
                  <stem>up</stem>
                  <staff>1</staff>
                  <beam number="1">begin</beam>
                  <notations>
                  </notations>
              </note>
              <backup>
                  <duration>120</duration>
              </backup>
              <forward>
                  <duration>120</duration>
              </forward>
              <note>
                  <pitch>
                      <step>C</step>
                      <octave>5</octave>
                  </pitch>
                  <duration>120</duration>
                  <voice>1</voice>
                  <type>eighth</type>
                  <stem>up</stem>
                  <staff>1</staff>
                  <beam number="1">end</beam>
                  <notations>
                  </notations>
              </note>
          </measure>
          <measure  number="5">
              <attributes>
              </attributes>
              <note>
                  <pitch>
                      <step>D</step>
                      <octave>5</octave>
                  </pitch>
                  <duration>960</duration>
                  <voice>1</voice>
                  <type>whole</type>
                  <stem>down</stem>
                  <staff>1</staff>
                  <notations>
                  </notations>
              </note>
              <backup>
                  <duration>807</duration>
              </backup>
              <!--=========== CHORD HERE ==================-->
          </measure>
          <measure  number="6">
              <attributes>
              </attributes>
              <note>
                  <pitch>
                      <step>B</step>
                      <alter>-1</alter>
                      <octave>4</octave>
                  </pitch>
                  <duration>480</duration>
                  <voice>1</voice>
                  <type>half</type>
                  <stem>down</stem>
                  <staff>1</staff>
                  <notations>
                  </notations>
              </note>
              <backup>
                  <duration>378</duration>
              </backup>
              <!--=========== CHORD HERE ==================-->
              <forward>
                  <duration>340</duration>
              </forward>
              <!--=========== CHORD HERE ==================-->
              <forward>
                  <duration>38</duration>
              </forward>
              <note>
                  <pitch>
                      <step>A</step>
                      <octave>4</octave>
                  </pitch>
                  <duration>240</duration>
                  <voice>1</voice>
                  <type>quarter</type>
                  <stem>up</stem>
                  <staff>1</staff>
                  <notations>
                  </notations>
              </note>
              <note>
                  <rest/>
                  <duration>120</duration>
                  <voice>1</voice>
                  <type>eighth</type>
                  <staff>1</staff>
              </note>
              <note>
                  <pitch>
                      <step>A</step>
                      <octave>3</octave>
                  </pitch>
                  <duration>120</duration>
                  <voice>1</voice>
                  <type>eighth</type>
                  <stem>up</stem>
                  <staff>1</staff>
                  <notations>
                  </notations>
              </note>
          </measure>
          <measure  number="7">
              <barline location="left">
                  <bar-style>heavy-light</bar-style>
                  <repeat direction="forward"/>
              </barline>
              <attributes>
              </attributes>
              <note>
                  <pitch>
                      <step>D</step>
                      <octave>4</octave>
                  </pitch>
                  <duration>120</duration>
                  <voice>1</voice>
                  <type>eighth</type>
                  <stem>up</stem>
                  <staff>1</staff>
                  <beam number="1">begin</beam>
                  <notations>
                  </notations>
              </note>
              <backup>
                  <duration>26</duration>
              </backup>
              <!--=========== CHORD HERE ==================-->
              <forward>
                  <duration>26</duration>
              </forward>
              <note>
                  <pitch>
                      <step>D</step>
                      <octave>4</octave>
                  </pitch>
                  <duration>120</duration>
                  <voice>1</voice>
                  <type>eighth</type>
                  <stem>up</stem>
                  <staff>1</staff>
                  <beam number="1">continue</beam>
                  <notations>
                  </notations>
              </note>
              <note>
                  <pitch>
                      <step>D</step>
                      <octave>4</octave>
                  </pitch>
                  <duration>120</duration>
                  <voice>1</voice>
                  <type>eighth</type>
                  <stem>up</stem>
                  <staff>1</staff>
                  <beam number="1">continue</beam>
                  <notations>
                  </notations>
              </note>
              <note>
                  <pitch>
                      <step>C</step>
                      <octave>4</octave>
                  </pitch>
                  <duration>120</duration>
                  <voice>1</voice>
                  <type>eighth</type>
                  <stem>up</stem>
                  <staff>1</staff>
                  <beam number="1">end</beam>
                  <notations>
                  </notations>
              </note>
              <note>
                  <pitch>
                      <step>D</step>
                      <octave>4</octave>
                  </pitch>
                  <duration>120</duration>
                  <voice>1</voice>
                  <type>eighth</type>
                  <stem>up</stem>
                  <staff>1</staff>
                  <beam number="1">begin</beam>
                  <notations>
                  </notations>
              </note>
              <backup>
                  <duration>120</duration>
              </backup>
              <forward>
                  <duration>120</duration>
              </forward>
              <note>
                  <pitch>
                      <step>D</step>
                      <octave>4</octave>
                  </pitch>
                  <duration>120</duration>
                  <voice>1</voice>
                  <type>eighth</type>
                  <stem>up</stem>
                  <staff>1</staff>
                  <beam number="1">continue</beam>
                  <notations>
                  </notations>
              </note>
              <note>
                  <pitch>
                      <step>D</step>
                      <octave>4</octave>
                  </pitch>
                  <duration>120</duration>
                  <voice>1</voice>
                  <type>eighth</type>
                  <stem>up</stem>
                  <staff>1</staff>
                  <beam number="1">continue</beam>
                  <notations>
                  </notations>
              </note>
              <note>
                  <pitch>
                      <step>C</step>
                      <octave>4</octave>
                  </pitch>
                  <duration>120</duration>
                  <voice>1</voice>
                  <type>eighth</type>
                  <stem>up</stem>
                  <staff>1</staff>
                  <beam number="1">end</beam>
                  <notations>
                  </notations>
              </note>
          </measure>
          <measure  number="8">
              <attributes>
              </attributes>
              <note>
                  <pitch>
                      <step>D</step>
                      <octave>4</octave>
                  </pitch>
                  <duration>120</duration>
                  <voice>1</voice>
                  <type>eighth</type>
                  <stem>up</stem>
                  <staff>1</staff>
                  <beam number="1">begin</beam>
                  <notations>
                  </notations>
              </note>
              <note>
                  <pitch>
                      <step>D</step>
                      <octave>4</octave>
                  </pitch>
                  <duration>120</duration>
                  <voice>1</voice>
                  <type>eighth</type>
                  <stem>up</stem>
                  <staff>1</staff>
                  <beam number="1">continue</beam>
                  <notations>
                  </notations>
              </note>
              <note>
                  <pitch>
                      <step>D</step>
                      <octave>4</octave>
                  </pitch>
                  <duration>120</duration>
                  <voice>1</voice>
                  <type>eighth</type>
                  <stem>up</stem>
                  <staff>1</staff>
                  <beam number="1">continue</beam>
                  <notations>
                  </notations>
              </note>
              <note>
                  <pitch>
                      <step>C</step>
                      <octave>4</octave>
                  </pitch>
                  <duration>120</duration>
                  <voice>1</voice>
                  <type>eighth</type>
                  <stem>up</stem>
                  <staff>1</staff>
                  <beam number="1">end</beam>
                  <notations>
                  </notations>
              </note>
              <note>
                  <pitch>
                      <step>D</step>
                      <octave>4</octave>
                  </pitch>
                  <duration>120</duration>
                  <voice>1</voice>
                  <type>eighth</type>
                  <stem>up</stem>
                  <staff>1</staff>
                  <beam number="1">begin</beam>
                  <notations>
                  </notations>
              </note>
              <backup>
                  <duration>120</duration>
              </backup>
              <forward>
                  <duration>120</duration>
              </forward>
              <note>
                  <pitch>
                      <step>D</step>
                      <octave>4</octave>
                  </pitch>
                  <duration>120</duration>
                  <voice>1</voice>
                  <type>eighth</type>
                  <stem>up</stem>
                  <staff>1</staff>
                  <beam number="1">continue</beam>
                  <notations>
                  </notations>
              </note>
              <note>
                  <pitch>
                      <step>F</step>
                      <octave>4</octave>
                  </pitch>
                  <duration>120</duration>
                  <voice>1</voice>
                  <type>eighth</type>
                  <stem>up</stem>
                  <staff>1</staff>
                  <beam number="1">continue</beam>
                  <notations>
                  </notations>
              </note>
              <note>
                  <pitch>
                      <step>A</step>
                      <octave>4</octave>
                  </pitch>
                  <duration>120</duration>
                  <tie type="start"/>
                  <voice>1</voice>
                  <type>eighth</type>
                  <stem>up</stem>
                  <staff>1</staff>
                  <beam number="1">end</beam>
                  <notations>
                      <tied type="start"/>
                  </notations>
              </note>
          </measure>
          <measure  number="9">
              <attributes>
              </attributes>
              <note>
                  <pitch>
                      <step>A</step>
                      <octave>4</octave>
                  </pitch>
                  <duration>960</duration>
                  <tie type="stop"/>
                  <tie type="start"/>
                  <voice>1</voice>
                  <type>whole</type>
                  <stem>up</stem>
                  <staff>1</staff>
                  <notations>
                      <tied type="stop"/>
                      <tied type="start"/>
                  </notations>
              </note>
              <backup>
                  <duration>807</duration>
              </backup>
              <!--=========== CHORD HERE ==================-->
          </measure>
          <measure  number="10">
              <attributes>
              </attributes>
              <note>
                  <pitch>
                      <step>A</step>
                      <octave>4</octave>
                  </pitch>
                  <duration>480</duration>
                  <tie type="stop"/>
                  <voice>1</voice>
                  <type>half</type>
                  <stem>up</stem>
                  <staff>1</staff>
                  <notations>
                      <tied type="stop"/>
                  </notations>
              </note>
              <note>
                  <rest/>
                  <duration>240</duration>
                  <voice>1</voice>
                  <type>quarter</type>
                  <staff>1</staff>
              </note>
              <note>
                  <rest/>
                  <duration>120</duration>
                  <voice>1</voice>
                  <type>eighth</type>
                  <staff>1</staff>
              </note>
              <note>
                  <pitch>
                      <step>A</step>
                      <octave>4</octave>
                  </pitch>
                  <duration>120</duration>
                  <voice>1</voice>
                  <type>eighth</type>
                  <stem>up</stem>
                  <staff>1</staff>
                  <notations>
                  </notations>
              </note>
          </measure>
          <measure  number="11">
              <attributes>
              </attributes>
              <note>
                  <pitch>
                      <step>G</step>
                      <octave>4</octave>
                  </pitch>
                  <duration>120</duration>
                  <voice>1</voice>
                  <type>eighth</type>
                  <stem>up</stem>
                  <staff>1</staff>
                  <beam number="1">begin</beam>
                  <notations>
                  </notations>
              </note>
              <backup>
                  <duration>31</duration>
              </backup>
              <!--=========== CHORD HERE ==================-->
              <forward>
                  <duration>31</duration>
              </forward>
              <note>
                  <pitch>
                      <step>G</step>
                      <octave>4</octave>
                  </pitch>
                  <duration>120</duration>
                  <voice>1</voice>
                  <type>eighth</type>
                  <stem>up</stem>
                  <staff>1</staff>
                  <beam number="1">continue</beam>
                  <notations>
                  </notations>
              </note>
              <note>
                  <pitch>
                      <step>G</step>
                      <octave>4</octave>
                  </pitch>
                  <duration>120</duration>
                  <voice>1</voice>
                  <type>eighth</type>
                  <stem>up</stem>
                  <staff>1</staff>
                  <beam number="1">continue</beam>
                  <notations>
                  </notations>
              </note>
              <note>
                  <pitch>
                      <step>F</step>
                      <octave>4</octave>
                  </pitch>
                  <duration>120</duration>
                  <voice>1</voice>
                  <type>eighth</type>
                  <stem>up</stem>
                  <staff>1</staff>
                  <beam number="1">end</beam>
                  <notations>
                  </notations>
              </note>
              <note>
                  <pitch>
                      <step>G</step>
                      <octave>4</octave>
                  </pitch>
                  <duration>120</duration>
                  <voice>1</voice>
                  <type>eighth</type>
                  <stem>up</stem>
                  <staff>1</staff>
                  <beam number="1">begin</beam>
                  <notations>
                  </notations>
              </note>
              <backup>
                  <duration>120</duration>
              </backup>
              <forward>
                  <duration>120</duration>
              </forward>
              <note>
                  <pitch>
                      <step>G</step>
                      <octave>4</octave>
                  </pitch>
                  <duration>120</duration>
                  <voice>1</voice>
                  <type>eighth</type>
                  <stem>up</stem>
                  <staff>1</staff>
                  <beam number="1">continue</beam>
                  <notations>
                  </notations>
              </note>
              <note>
                  <pitch>
                      <step>G</step>
                      <octave>4</octave>
                  </pitch>
                  <duration>120</duration>
                  <voice>1</voice>
                  <type>eighth</type>
                  <stem>up</stem>
                  <staff>1</staff>
                  <beam number="1">continue</beam>
                  <notations>
                  </notations>
              </note>
              <note>
                  <pitch>
                      <step>F</step>
                      <octave>4</octave>
                  </pitch>
                  <duration>120</duration>
                  <voice>1</voice>
                  <type>eighth</type>
                  <stem>up</stem>
                  <staff>1</staff>
                  <beam number="1">end</beam>
                  <notations>
                  </notations>
              </note>
          </measure>
          <measure  number="12">
              <attributes>
              </attributes>
              <note>
                  <pitch>
                      <step>G</step>
                      <octave>4</octave>
                  </pitch>
                  <duration>120</duration>
                  <voice>1</voice>
                  <type>eighth</type>
                  <stem>up</stem>
                  <staff>1</staff>
                  <beam number="1">begin</beam>
                  <notations>
                  </notations>
              </note>
              <note>
                  <pitch>
                      <step>G</step>
                      <octave>4</octave>
                  </pitch>
                  <duration>120</duration>
                  <voice>1</voice>
                  <type>eighth</type>
                  <stem>up</stem>
                  <staff>1</staff>
                  <beam number="1">continue</beam>
                  <notations>
                  </notations>
              </note>
              <note>
                  <pitch>
                      <step>G</step>
                      <octave>4</octave>
                  </pitch>
                  <duration>120</duration>
                  <voice>1</voice>
                  <type>eighth</type>
                  <stem>up</stem>
                  <staff>1</staff>
                  <beam number="1">continue</beam>
                  <notations>
                  </notations>
              </note>
              <note>
                  <pitch>
                      <step>F</step>
                      <octave>4</octave>
                  </pitch>
                  <duration>120</duration>
                  <voice>1</voice>
                  <type>eighth</type>
                  <stem>up</stem>
                  <staff>1</staff>
                  <beam number="1">end</beam>
                  <notations>
                  </notations>
              </note>
              <note>
                  <pitch>
                      <step>G</step>
                      <octave>4</octave>
                  </pitch>
                  <duration>120</duration>
                  <voice>1</voice>
                  <type>eighth</type>
                  <stem>up</stem>
                  <staff>1</staff>
                  <beam number="1">begin</beam>
                  <notations>
                  </notations>
              </note>
              <backup>
                  <duration>120</duration>
              </backup>
              <forward>
                  <duration>120</duration>
              </forward>
              <note>
                  <pitch>
                      <step>G</step>
                      <octave>4</octave>
                  </pitch>
                  <duration>120</duration>
                  <voice>1</voice>
                  <type>eighth</type>
                  <stem>up</stem>
                  <staff>1</staff>
                  <beam number="1">continue</beam>
                  <notations>
                  </notations>
              </note>
              <note>
                  <pitch>
                      <step>A</step>
                      <octave>4</octave>
                  </pitch>
                  <duration>120</duration>
                  <voice>1</voice>
                  <type>eighth</type>
                  <stem>up</stem>
                  <staff>1</staff>
                  <beam number="1">continue</beam>
                  <notations>
                  </notations>
              </note>
              <note>
                  <pitch>
                      <step>F</step>
                      <octave>4</octave>
                  </pitch>
                  <duration>120</duration>
                  <tie type="start"/>
                  <voice>1</voice>
                  <type>eighth</type>
                  <stem>up</stem>
                  <staff>1</staff>
                  <beam number="1">end</beam>
                  <notations>
                      <tied type="start"/>
                  </notations>
              </note>
          </measure>
          <measure  number="13">
              <attributes>
              </attributes>
              <note>
                  <pitch>
                      <step>F</step>
                      <octave>4</octave>
                  </pitch>
                  <duration>120</duration>
                  <tie type="stop"/>
                  <voice>1</voice>
                  <type>eighth</type>
                  <stem>up</stem>
                  <staff>1</staff>
                  <beam number="1">begin</beam>
                  <notations>
                      <tied type="stop"/>
                  </notations>
              </note>
              <note>
                  <pitch>
                      <step>D</step>
                      <octave>4</octave>
                  </pitch>
                  <duration>120</duration>
                  <tie type="start"/>
                  <voice>1</voice>
                  <type>eighth</type>
                  <stem>up</stem>
                  <staff>1</staff>
                  <beam number="1">end</beam>
                  <notations>
                      <tied type="start"/>
                  </notations>
              </note>
              <backup>
                  <duration>98</duration>
              </backup>
              <!--=========== CHORD HERE ==================-->
              <forward>
                  <duration>98</duration>
              </forward>
              <note>
                  <pitch>
                      <step>D</step>
                      <octave>4</octave>
                  </pitch>
                  <duration>720</duration>
                  <tie type="stop"/>
                  <voice>1</voice>
                  <type>half</type>
                  <dot/>
                  <stem>up</stem>
                  <staff>1</staff>
                  <notations>
                      <tied type="stop"/>
                  </notations>
              </note>
          </measure>
          <measure  number="14">
              <barline location="left">
                  <ending type="start" number="1"/>
              </barline>
              <attributes>
              </attributes>
              <note>
                  <rest/>
                  <duration>720</duration>
                  <voice>1</voice>
                  <type>half</type>
                  <staff>1</staff>
              </note>
              <backup>
                  <duration>325</duration>
              </backup>
              <!--=========== CHORD HERE ==================-->
              <forward>
                  <duration>325</duration>
              </forward>
              <note>
                  <rest/>
                  <duration>120</duration>
                  <voice>1</voice>
                  <type>eighth</type>
                  <staff>1</staff>
              </note>
              <note>
                  <pitch>
                      <step>A</step>
                      <octave>3</octave>
                  </pitch>
                  <duration>120</duration>
                  <voice>1</voice>
                  <type>eighth</type>
                  <stem>up</stem>
                  <staff>1</staff>
                  <notations>
                  </notations>
              </note>
              <barline location="right">
                  <bar-style>light-heavy</bar-style>
                  <ending type="stop" number="1"/>
                  <repeat direction="backward"/>
              </barline>
          </measure>
          <measure  number="15">
              <barline location="left">
                  <ending type="start" number="2"/>
              </barline>
              <attributes>
              </attributes>
              <note>
                  <rest/>
                  <duration>720</duration>
                  <voice>1</voice>
                  <type>half</type>
                  <staff>1</staff>
              </note>
              <backup>
                  <duration>580</duration>
              </backup>
              <!--=========== CHORD HERE ==================-->
              <forward>
                  <duration>580</duration>
              </forward>
              <note>
                  <rest/>
                  <duration>120</duration>
                  <voice>1</voice>
                  <type>eighth</type>
                  <staff>1</staff>
              </note>
              <note>
                  <pitch>
                      <step>D</step>
                      <octave>4</octave>
                  </pitch>
                  <duration>120</duration>
                  <voice>1</voice>
                  <type>eighth</type>
                  <stem>up</stem>
                  <staff>1</staff>
                  <notations>
                  </notations>
              </note>
              <barline location="right">
                  <ending type="stop" number="2"/>
              </barline>
          </measure>
          <measure  number="16">
              <attributes>
              </attributes>
              <note>
                  <pitch>
                      <step>B</step>
                      <alter>-1</alter>
                      <octave>4</octave>
                  </pitch>
                  <duration>120</duration>
                  <voice>1</voice>
                  <type>eighth</type>
                  <stem>up</stem>
                  <staff>1</staff>
                  <beam number="1">begin</beam>
                  <notations>
                  </notations>
              </note>
              <backup>
                  <duration>22</duration>
              </backup>
              <!--=========== CHORD HERE ==================-->
              <forward>
                  <duration>22</duration>
              </forward>
              <note>
                  <pitch>
                      <step>B</step>
                      <alter>-1</alter>
                      <octave>4</octave>
                  </pitch>
                  <duration>120</duration>
                  <voice>1</voice>
                  <type>eighth</type>
                  <stem>up</stem>
                  <staff>1</staff>
                  <beam number="1">continue</beam>
                  <notations>
                  </notations>
              </note>
              <note>
                  <pitch>
                      <step>B</step>
                      <alter>-1</alter>
                      <octave>4</octave>
                  </pitch>
                  <duration>120</duration>
                  <voice>1</voice>
                  <type>eighth</type>
                  <stem>up</stem>
                  <staff>1</staff>
                  <beam number="1">continue</beam>
                  <notations>
                  </notations>
              </note>
              <note>
                  <pitch>
                      <step>A</step>
                      <octave>4</octave>
                  </pitch>
                  <duration>120</duration>
                  <voice>1</voice>
                  <type>eighth</type>
                  <stem>up</stem>
                  <staff>1</staff>
                  <beam number="1">end</beam>
                  <notations>
                  </notations>
              </note>
              <note>
                  <pitch>
                      <step>B</step>
                      <alter>-1</alter>
                      <octave>4</octave>
                  </pitch>
                  <duration>120</duration>
                  <voice>1</voice>
                  <type>eighth</type>
                  <stem>up</stem>
                  <staff>1</staff>
                  <beam number="1">begin</beam>
                  <notations>
                  </notations>
              </note>
              <backup>
                  <duration>120</duration>
              </backup>
              <forward>
                  <duration>120</duration>
              </forward>
              <note>
                  <pitch>
                      <step>B</step>
                      <alter>-1</alter>
                      <octave>4</octave>
                  </pitch>
                  <duration>120</duration>
                  <voice>1</voice>
                  <type>eighth</type>
                  <stem>up</stem>
                  <staff>1</staff>
                  <beam number="1">continue</beam>
                  <notations>
                  </notations>
              </note>
              <note>
                  <pitch>
                      <step>B</step>
                      <alter>-1</alter>
                      <octave>4</octave>
                  </pitch>
                  <duration>120</duration>
                  <voice>1</voice>
                  <type>eighth</type>
                  <stem>up</stem>
                  <staff>1</staff>
                  <beam number="1">continue</beam>
                  <notations>
                  </notations>
              </note>
              <note>
                  <pitch>
                      <step>A</step>
                      <octave>4</octave>
                  </pitch>
                  <duration>120</duration>
                  <voice>1</voice>
                  <type>eighth</type>
                  <stem>up</stem>
                  <staff>1</staff>
                  <beam number="1">end</beam>
                  <notations>
                  </notations>
              </note>
          </measure>
          <measure  number="17">
              <attributes>
              </attributes>
              <note>
                  <pitch>
                      <step>B</step>
                      <alter>-1</alter>
                      <octave>4</octave>
                  </pitch>
                  <duration>120</duration>
                  <voice>1</voice>
                  <type>eighth</type>
                  <stem>up</stem>
                  <staff>1</staff>
                  <beam number="1">begin</beam>
                  <notations>
                  </notations>
              </note>
              <note>
                  <pitch>
                      <step>B</step>
                      <alter>-1</alter>
                      <octave>4</octave>
                  </pitch>
                  <duration>120</duration>
                  <voice>1</voice>
                  <type>eighth</type>
                  <stem>up</stem>
                  <staff>1</staff>
                  <beam number="1">continue</beam>
                  <notations>
                  </notations>
              </note>
              <note>
                  <pitch>
                      <step>A</step>
                      <octave>4</octave>
                  </pitch>
                  <duration>120</duration>
                  <voice>1</voice>
                  <type>eighth</type>
                  <stem>up</stem>
                  <staff>1</staff>
                  <beam number="1">continue</beam>
                  <notations>
                  </notations>
              </note>
              <note>
                  <pitch>
                      <step>B</step>
                      <alter>-1</alter>
                      <octave>4</octave>
                  </pitch>
                  <duration>120</duration>
                  <voice>1</voice>
                  <type>eighth</type>
                  <stem>up</stem>
                  <staff>1</staff>
                  <beam number="1">end</beam>
                  <notations>
                  </notations>
              </note>
              <note>
                  <pitch>
                      <step>B</step>
                      <alter>-1</alter>
                      <octave>4</octave>
                  </pitch>
                  <duration>360</duration>
                  <voice>1</voice>
                  <type>quarter</type>
                  <dot/>
                  <stem>down</stem>
                  <staff>1</staff>
                  <notations>
                  </notations>
              </note>
              <note>
                  <pitch>
                      <step>C</step>
                      <octave>5</octave>
                  </pitch>
                  <duration>120</duration>
                  <voice>1</voice>
                  <type>eighth</type>
                  <stem>down</stem>
                  <staff>1</staff>
                  <notations>
                  </notations>
              </note>
          </measure>
          <measure  number="18">
              <attributes>
              </attributes>
              <note>
                  <pitch>
                      <step>A</step>
                      <octave>4</octave>
                  </pitch>
                  <duration>120</duration>
                  <voice>1</voice>
                  <type>eighth</type>
                  <stem>up</stem>
                  <staff>1</staff>
                  <beam number="1">begin</beam>
                  <notations>
                  </notations>
              </note>
              <backup>
                  <duration>22</duration>
              </backup>
              <!--=========== CHORD HERE ==================-->
              <forward>
                  <duration>22</duration>
              </forward>
              <note>
                  <pitch>
                      <step>A</step>
                      <octave>4</octave>
                  </pitch>
                  <duration>120</duration>
                  <voice>1</voice>
                  <type>eighth</type>
                  <stem>up</stem>
                  <staff>1</staff>
                  <beam number="1">continue</beam>
                  <notations>
                  </notations>
              </note>
              <note>
                  <pitch>
                      <step>A</step>
                      <octave>4</octave>
                  </pitch>
                  <duration>120</duration>
                  <voice>1</voice>
                  <type>eighth</type>
                  <stem>up</stem>
                  <staff>1</staff>
                  <beam number="1">continue</beam>
                  <notations>
                  </notations>
              </note>
              <note>
                  <pitch>
                      <step>G</step>
                      <octave>4</octave>
                  </pitch>
                  <duration>120</duration>
                  <voice>1</voice>
                  <type>eighth</type>
                  <stem>up</stem>
                  <staff>1</staff>
                  <beam number="1">end</beam>
                  <notations>
                  </notations>
              </note>
              <note>
                  <pitch>
                      <step>A</step>
                      <octave>4</octave>
                  </pitch>
                  <duration>120</duration>
                  <voice>1</voice>
                  <type>eighth</type>
                  <stem>up</stem>
                  <staff>1</staff>
                  <beam number="1">begin</beam>
                  <notations>
                  </notations>
              </note>
              <backup>
                  <duration>120</duration>
              </backup>
              <forward>
                  <duration>120</duration>
              </forward>
              <note>
                  <pitch>
                      <step>A</step>
                      <octave>4</octave>
                  </pitch>
                  <duration>120</duration>
                  <voice>1</voice>
                  <type>eighth</type>
                  <stem>up</stem>
                  <staff>1</staff>
                  <beam number="1">continue</beam>
                  <notations>
                  </notations>
              </note>
              <note>
                  <pitch>
                      <step>A</step>
                      <octave>4</octave>
                  </pitch>
                  <duration>120</duration>
                  <voice>1</voice>
                  <type>eighth</type>
                  <stem>up</stem>
                  <staff>1</staff>
                  <beam number="1">continue</beam>
                  <notations>
                  </notations>
              </note>
              <note>
                  <pitch>
                      <step>G</step>
                      <octave>4</octave>
                  </pitch>
                  <duration>120</duration>
                  <voice>1</voice>
                  <type>eighth</type>
                  <stem>up</stem>
                  <staff>1</staff>
                  <beam number="1">end</beam>
                  <notations>
                  </notations>
              </note>
          </measure>
          <measure  number="19">
              <attributes>
              </attributes>
              <note>
                  <pitch>
                      <step>A</step>
                      <octave>4</octave>
                  </pitch>
                  <duration>120</duration>
                  <voice>1</voice>
                  <type>eighth</type>
                  <stem>up</stem>
                  <staff>1</staff>
                  <beam number="1">begin</beam>
                  <notations>
                  </notations>
              </note>
              <note>
                  <pitch>
                      <step>A</step>
                      <octave>4</octave>
                  </pitch>
                  <duration>120</duration>
                  <voice>1</voice>
                  <type>eighth</type>
                  <stem>up</stem>
                  <staff>1</staff>
                  <beam number="1">continue</beam>
                  <notations>
                  </notations>
              </note>
              <note>
                  <pitch>
                      <step>G</step>
                      <octave>4</octave>
                  </pitch>
                  <duration>120</duration>
                  <voice>1</voice>
                  <type>eighth</type>
                  <stem>up</stem>
                  <staff>1</staff>
                  <beam number="1">continue</beam>
                  <notations>
                  </notations>
              </note>
              <note>
                  <pitch>
                      <step>A</step>
                      <octave>4</octave>
                  </pitch>
                  <duration>120</duration>
                  <tie type="start"/>
                  <voice>1</voice>
                  <type>eighth</type>
                  <stem>up</stem>
                  <staff>1</staff>
                  <beam number="1">end</beam>
                  <notations>
                      <tied type="start"/>
                  </notations>
              </note>
              <note>
                  <pitch>
                      <step>A</step>
                      <octave>4</octave>
                  </pitch>
                  <duration>240</duration>
                  <tie type="stop"/>
                  <voice>1</voice>
                  <type>quarter</type>
                  <stem>up</stem>
                  <staff>1</staff>
                  <notations>
                      <tied type="stop"/>
                  </notations>
              </note>
              <note>
                  <rest/>
                  <duration>120</duration>
                  <voice>1</voice>
                  <type>eighth</type>
                  <staff>1</staff>
              </note>
              <note>
                  <pitch>
                      <step>D</step>
                      <octave>4</octave>
                  </pitch>
                  <duration>120</duration>
                  <voice>1</voice>
                  <type>eighth</type>
                  <stem>up</stem>
                  <staff>1</staff>
                  <notations>
                  </notations>
              </note>
          </measure>
          <measure  number="20">
              <attributes>
              </attributes>
              <note>
                  <pitch>
                      <step>B</step>
                      <alter>-1</alter>
                      <octave>4</octave>
                  </pitch>
                  <duration>120</duration>
                  <voice>1</voice>
                  <type>eighth</type>
                  <stem>up</stem>
                  <staff>1</staff>
                  <beam number="1">begin</beam>
                  <notations>
                  </notations>
              </note>
              <backup>
                  <duration>22</duration>
              </backup>
              <!--=========== CHORD HERE ==================-->
              <forward>
                  <duration>22</duration>
              </forward>
              <note>
                  <pitch>
                      <step>B</step>
                      <alter>-1</alter>
                      <octave>4</octave>
                  </pitch>
                  <duration>120</duration>
                  <voice>1</voice>
                  <type>eighth</type>
                  <stem>up</stem>
                  <staff>1</staff>
                  <beam number="1">continue</beam>
                  <notations>
                  </notations>
              </note>
              <note>
                  <pitch>
                      <step>B</step>
                      <alter>-1</alter>
                      <octave>4</octave>
                  </pitch>
                  <duration>120</duration>
                  <voice>1</voice>
                  <type>eighth</type>
                  <stem>up</stem>
                  <staff>1</staff>
                  <beam number="1">continue</beam>
                  <notations>
                  </notations>
              </note>
              <note>
                  <pitch>
                      <step>A</step>
                      <octave>4</octave>
                  </pitch>
                  <duration>120</duration>
                  <voice>1</voice>
                  <type>eighth</type>
                  <stem>up</stem>
                  <staff>1</staff>
                  <beam number="1">end</beam>
                  <notations>
                  </notations>
              </note>
              <note>
                  <pitch>
                      <step>B</step>
                      <alter>-1</alter>
                      <octave>4</octave>
                  </pitch>
                  <duration>120</duration>
                  <voice>1</voice>
                  <type>eighth</type>
                  <stem>down</stem>
                  <staff>1</staff>
                  <beam number="1">begin</beam>
                  <notations>
                  </notations>
              </note>
              <backup>
                  <duration>120</duration>
              </backup>
              <forward>
                  <duration>120</duration>
              </forward>
              <note>
                  <pitch>
                      <step>B</step>
                      <alter>-1</alter>
                      <octave>4</octave>
                  </pitch>
                  <duration>120</duration>
                  <voice>1</voice>
                  <type>eighth</type>
                  <stem>down</stem>
                  <staff>1</staff>
                  <beam number="1">end</beam>
                  <notations>
                  </notations>
              </note>
              <note>
                  <rest/>
                  <duration>120</duration>
                  <voice>1</voice>
                  <type>eighth</type>
                  <staff>1</staff>
              </note>
              <note>
                  <pitch>
                      <step>D</step>
                      <octave>4</octave>
                  </pitch>
                  <duration>120</duration>
                  <voice>1</voice>
                  <type>eighth</type>
                  <stem>up</stem>
                  <staff>1</staff>
                  <notations>
                  </notations>
              </note>
          </measure>
          <measure  number="21">
              <attributes>
              </attributes>
              <note>
                  <pitch>
                      <step>B</step>
                      <alter>-1</alter>
                      <octave>4</octave>
                  </pitch>
                  <duration>120</duration>
                  <voice>1</voice>
                  <type>eighth</type>
                  <stem>up</stem>
                  <staff>1</staff>
                  <beam number="1">begin</beam>
                  <notations>
                  </notations>
              </note>
              <backup>
                  <duration>28</duration>
              </backup>
              <!--=========== CHORD HERE ==================-->
              <forward>
                  <duration>28</duration>
              </forward>
              <note>
                  <pitch>
                      <step>B</step>
                      <alter>-1</alter>
                      <octave>4</octave>
                  </pitch>
                  <duration>120</duration>
                  <voice>1</voice>
                  <type>eighth</type>
                  <stem>up</stem>
                  <staff>1</staff>
                  <beam number="1">continue</beam>
                  <notations>
                  </notations>
              </note>
              <note>
                  <pitch>
                      <step>B</step>
                      <alter>-1</alter>
                      <octave>4</octave>
                  </pitch>
                  <duration>120</duration>
                  <voice>1</voice>
                  <type>eighth</type>
                  <stem>up</stem>
                  <staff>1</staff>
                  <beam number="1">continue</beam>
                  <notations>
                  </notations>
              </note>
              <note>
                  <pitch>
                      <step>A</step>
                      <octave>4</octave>
                  </pitch>
                  <duration>120</duration>
                  <voice>1</voice>
                  <type>eighth</type>
                  <stem>up</stem>
                  <staff>1</staff>
                  <beam number="1">end</beam>
                  <notations>
                  </notations>
              </note>
              <note>
                  <pitch>
                      <step>B</step>
                      <alter>-1</alter>
                      <octave>4</octave>
                  </pitch>
                  <duration>120</duration>
                  <voice>1</voice>
                  <type>eighth</type>
                  <stem>up</stem>
                  <staff>1</staff>
                  <beam number="1">begin</beam>
                  <notations>
                  </notations>
              </note>
              <backup>
                  <duration>120</duration>
              </backup>
              <forward>
                  <duration>120</duration>
              </forward>
              <note>
                  <pitch>
                      <step>A</step>
                      <octave>4</octave>
                  </pitch>
                  <duration>120</duration>
                  <voice>1</voice>
                  <type>eighth</type>
                  <stem>up</stem>
                  <staff>1</staff>
                  <beam number="1">continue</beam>
                  <notations>
                  </notations>
              </note>
              <note>
                  <pitch>
                      <step>G</step>
                      <octave>4</octave>
                  </pitch>
                  <duration>120</duration>
                  <voice>1</voice>
                  <type>eighth</type>
                  <stem>up</stem>
                  <staff>1</staff>
                  <beam number="1">continue</beam>
                  <notations>
                  </notations>
              </note>
              <note>
                  <pitch>
                      <step>A</step>
                      <octave>4</octave>
                  </pitch>
                  <duration>120</duration>
                  <tie type="start"/>
                  <voice>1</voice>
                  <type>eighth</type>
                  <stem>up</stem>
                  <staff>1</staff>
                  <beam number="1">end</beam>
                  <notations>
                      <tied type="start"/>
                  </notations>
              </note>
          </measure>
          <measure  number="22">
              <attributes>
              </attributes>
              <note>
                  <pitch>
                      <step>A</step>
                      <octave>4</octave>
                  </pitch>
                  <duration>960</duration>
                  <tie type="stop"/>
                  <voice>1</voice>
                  <type>whole</type>
                  <stem>up</stem>
                  <staff>1</staff>
                  <notations>
                      <tied type="stop"/>
                  </notations>
              </note>
              <backup>
                  <duration>783</duration>
              </backup>
              <!--=========== CHORD HERE ==================-->
              <barline location="right">
                  <bar-style>light-light</bar-style>
              </barline>
          </measure>
          <measure  number="23">
              <barline location="left">
                  <bar-style>heavy-light</bar-style>
                  <repeat direction="forward"/>
              </barline>
              <attributes>
              </attributes>
              <note>
                  <pitch>
                      <step>A</step>
                      <octave>4</octave>
                  </pitch>
                  <duration>240</duration>
                  <voice>1</voice>
                  <type>quarter</type>
                  <stem>up</stem>
                  <staff>1</staff>
                  <notations>
                  </notations>
              </note>
              <backup>
                  <duration>240</duration>
              </backup>
              <attributes>
                  <key>
                      <fifths>2</fifths>
                  </key>
              </attributes>
              <forward>
                  <duration>105</duration>
              </forward>
              <!--=========== CHORD HERE ==================-->
              <forward>
                  <duration>135</duration>
              </forward>
              <note>
                  <pitch>
                      <step>G</step>
                      <octave>4</octave>
                  </pitch>
                  <duration>120</duration>
                  <voice>1</voice>
                  <type>eighth</type>
                  <stem>up</stem>
                  <staff>1</staff>
                  <beam number="1">begin</beam>
                  <notations>
                  </notations>
              </note>
              <backup>
                  <duration>120</duration>
              </backup>
              <forward>
                  <duration>120</duration>
              </forward>
              <note>
                  <pitch>
                      <step>F</step>
                      <alter>1</alter>
                      <octave>4</octave>
                  </pitch>
                  <duration>120</duration>
                  <tie type="start"/>
                  <voice>1</voice>
                  <type>eighth</type>
                  <stem>up</stem>
                  <staff>1</staff>
                  <beam number="1">end</beam>
                  <notations>
                      <tied type="start"/>
                  </notations>
              </note>
              <note>
                  <pitch>
                      <step>F</step>
                      <alter>1</alter>
                      <octave>4</octave>
                  </pitch>
                  <duration>240</duration>
                  <tie type="stop"/>
                  <voice>1</voice>
                  <type>quarter</type>
                  <stem>up</stem>
                  <staff>1</staff>
                  <notations>
                      <tied type="stop"/>
                  </notations>
              </note>
              <note>
                  <rest/>
                  <duration>120</duration>
                  <voice>1</voice>
                  <type>eighth</type>
                  <staff>1</staff>
              </note>
              <note>
                  <pitch>
                      <step>D</step>
                      <octave>4</octave>
                  </pitch>
                  <duration>120</duration>
                  <voice>1</voice>
                  <type>eighth</type>
                  <stem>up</stem>
                  <staff>1</staff>
                  <notations>
                  </notations>
              </note>
          </measure>
          <measure  number="24">
              <attributes>
              </attributes>
              <note>
                  <pitch>
                      <step>B</step>
                      <octave>4</octave>
                  </pitch>
                  <duration>120</duration>
                  <voice>1</voice>
                  <type>eighth</type>
                  <stem>down</stem>
                  <staff>1</staff>
                  <beam number="1">begin</beam>
                  <notations>
                  </notations>
              </note>
              <backup>
                  <duration>40</duration>
              </backup>
              <!--=========== CHORD HERE ==================-->
              <forward>
                  <duration>40</duration>
              </forward>
              <note>
                  <pitch>
                      <step>B</step>
                      <octave>4</octave>
                  </pitch>
                  <duration>120</duration>
                  <voice>1</voice>
                  <type>eighth</type>
                  <stem>down</stem>
                  <staff>1</staff>
                  <beam number="1">continue</beam>
                  <notations>
                  </notations>
              </note>
              <note>
                  <pitch>
                      <step>B</step>
                      <octave>4</octave>
                  </pitch>
                  <duration>120</duration>
                  <voice>1</voice>
                  <type>eighth</type>
                  <stem>down</stem>
                  <staff>1</staff>
                  <beam number="1">continue</beam>
                  <notations>
                  </notations>
              </note>
              <note>
                  <pitch>
                      <step>B</step>
                      <octave>4</octave>
                  </pitch>
                  <duration>120</duration>
                  <tie type="start"/>
                  <voice>1</voice>
                  <type>eighth</type>
                  <stem>down</stem>
                  <staff>1</staff>
                  <beam number="1">end</beam>
                  <notations>
                      <tied type="start"/>
                  </notations>
              </note>
              <note>
                  <pitch>
                      <step>B</step>
                      <octave>4</octave>
                  </pitch>
                  <duration>120</duration>
                  <tie type="stop"/>
                  <voice>1</voice>
                  <type>eighth</type>
                  <stem>down</stem>
                  <staff>1</staff>
                  <beam number="1">begin</beam>
                  <notations>
                      <tied type="stop"/>
                  </notations>
              </note>
              <backup>
                  <duration>120</duration>
              </backup>
              <forward>
                  <duration>6</duration>
              </forward>
              <!--=========== CHORD HERE ==================-->
              <forward>
                  <duration>114</duration>
              </forward>
              <note>
                  <pitch>
                      <step>C</step>
                      <alter>1</alter>
                      <octave>5</octave>
                  </pitch>
                  <duration>120</duration>
                  <voice>1</voice>
                  <type>eighth</type>
                  <stem>down</stem>
                  <staff>1</staff>
                  <beam number="1">end</beam>
                  <notations>
                  </notations>
              </note>
              <note>
                  <pitch>
                      <step>D</step>
                      <octave>5</octave>
                  </pitch>
                  <duration>240</duration>
                  <voice>1</voice>
                  <type>quarter</type>
                  <stem>down</stem>
                  <staff>1</staff>
                  <notations>
                  </notations>
              </note>
          </measure>
          <measure  number="25">
              <attributes>
              </attributes>
              <note>
                  <pitch>
                      <step>A</step>
                      <octave>4</octave>
                  </pitch>
                  <duration>240</duration>
                  <voice>1</voice>
                  <type>quarter</type>
                  <stem>up</stem>
                  <staff>1</staff>
                  <notations>
                  </notations>
              </note>
              <backup>
                  <duration>135</duration>
              </backup>
              <!--=========== CHORD HERE ==================-->
              <forward>
                  <duration>135</duration>
              </forward>
              <note>
                  <pitch>
                      <step>G</step>
                      <octave>4</octave>
                  </pitch>
                  <duration>120</duration>
                  <voice>1</voice>
                  <type>eighth</type>
                  <stem>up</stem>
                  <staff>1</staff>
                  <beam number="1">begin</beam>
                  <notations>
                  </notations>
              </note>
              <backup>
                  <duration>120</duration>
              </backup>
              <forward>
                  <duration>120</duration>
              </forward>
              <note>
                  <pitch>
                      <step>F</step>
                      <alter>1</alter>
                      <octave>4</octave>
                  </pitch>
                  <duration>120</duration>
                  <tie type="start"/>
                  <voice>1</voice>
                  <type>eighth</type>
                  <stem>up</stem>
                  <staff>1</staff>
                  <beam number="1">end</beam>
                  <notations>
                      <tied type="start"/>
                  </notations>
              </note>
              <note>
                  <pitch>
                      <step>F</step>
                      <alter>1</alter>
                      <octave>4</octave>
                  </pitch>
                  <duration>240</duration>
                  <tie type="stop"/>
                  <voice>1</voice>
                  <type>quarter</type>
                  <stem>up</stem>
                  <staff>1</staff>
                  <notations>
                      <tied type="stop"/>
                  </notations>
              </note>
              <note>
                  <rest/>
                  <duration>120</duration>
                  <voice>1</voice>
                  <type>eighth</type>
                  <staff>1</staff>
              </note>
              <note>
                  <pitch>
                      <step>D</step>
                      <octave>4</octave>
                  </pitch>
                  <duration>120</duration>
                  <voice>1</voice>
                  <type>eighth</type>
                  <stem>up</stem>
                  <staff>1</staff>
                  <notations>
                  </notations>
              </note>
          </measure>
          <measure  number="26">
              <attributes>
              </attributes>
              <note>
                  <pitch>
                      <step>B</step>
                      <octave>4</octave>
                  </pitch>
                  <duration>120</duration>
                  <voice>1</voice>
                  <type>eighth</type>
                  <stem>down</stem>
                  <staff>1</staff>
                  <beam number="1">begin</beam>
                  <notations>
                  </notations>
              </note>
              <backup>
                  <duration>21</duration>
              </backup>
              <!--=========== CHORD HERE ==================-->
              <forward>
                  <duration>21</duration>
              </forward>
              <note>
                  <pitch>
                      <step>B</step>
                      <octave>4</octave>
                  </pitch>
                  <duration>120</duration>
                  <voice>1</voice>
                  <type>eighth</type>
                  <stem>down</stem>
                  <staff>1</staff>
                  <beam number="1">continue</beam>
                  <notations>
                  </notations>
              </note>
              <note>
                  <pitch>
                      <step>B</step>
                      <octave>4</octave>
                  </pitch>
                  <duration>120</duration>
                  <voice>1</voice>
                  <type>eighth</type>
                  <stem>down</stem>
                  <staff>1</staff>
                  <beam number="1">continue</beam>
                  <notations>
                  </notations>
              </note>
              <note>
                  <pitch>
                      <step>B</step>
                      <octave>4</octave>
                  </pitch>
                  <duration>120</duration>
                  <tie type="start"/>
                  <voice>1</voice>
                  <type>eighth</type>
                  <stem>down</stem>
                  <staff>1</staff>
                  <beam number="1">end</beam>
                  <notations>
                      <tied type="start"/>
                  </notations>
              </note>
              <note>
                  <pitch>
                      <step>B</step>
                      <octave>4</octave>
                  </pitch>
                  <duration>120</duration>
                  <tie type="stop"/>
                  <voice>1</voice>
                  <type>eighth</type>
                  <stem>down</stem>
                  <staff>1</staff>
                  <beam number="1">begin</beam>
                  <notations>
                      <tied type="stop"/>
                  </notations>
              </note>
              <backup>
                  <duration>120</duration>
              </backup>
              <forward>
                  <duration>28</duration>
              </forward>
              <!--=========== CHORD HERE ==================-->
              <forward>
                  <duration>92</duration>
              </forward>
              <note>
                  <pitch>
                      <step>C</step>
                      <alter>1</alter>
                      <octave>5</octave>
                  </pitch>
                  <duration>120</duration>
                  <voice>1</voice>
                  <type>eighth</type>
                  <stem>down</stem>
                  <staff>1</staff>
                  <beam number="1">end</beam>
                  <notations>
                  </notations>
              </note>
              <note>
                  <pitch>
                      <step>D</step>
                      <octave>5</octave>
                  </pitch>
                  <duration>240</duration>
                  <voice>1</voice>
                  <type>quarter</type>
                  <stem>down</stem>
                  <staff>1</staff>
                  <notations>
                  </notations>
              </note>
          </measure>
          <measure  number="27">
              <attributes>
              </attributes>
              <note>
                  <pitch>
                      <step>A</step>
                      <octave>4</octave>
                  </pitch>
                  <duration>240</duration>
                  <voice>1</voice>
                  <type>quarter</type>
                  <stem>up</stem>
                  <staff>1</staff>
                  <notations>
                  </notations>
              </note>
              <backup>
                  <duration>115</duration>
              </backup>
              <!--=========== CHORD HERE ==================-->
              <forward>
                  <duration>115</duration>
              </forward>
              <note>
                  <pitch>
                      <step>G</step>
                      <octave>4</octave>
                  </pitch>
                  <duration>120</duration>
                  <voice>1</voice>
                  <type>eighth</type>
                  <stem>up</stem>
                  <staff>1</staff>
                  <beam number="1">begin</beam>
                  <notations>
                  </notations>
              </note>
              <backup>
                  <duration>120</duration>
              </backup>
              <forward>
                  <duration>120</duration>
              </forward>
              <note>
                  <pitch>
                      <step>F</step>
                      <alter>1</alter>
                      <octave>4</octave>
                  </pitch>
                  <duration>120</duration>
                  <tie type="start"/>
                  <voice>1</voice>
                  <type>eighth</type>
                  <stem>up</stem>
                  <staff>1</staff>
                  <beam number="1">end</beam>
                  <notations>
                      <tied type="start"/>
                  </notations>
              </note>
              <note>
                  <pitch>
                      <step>F</step>
                      <alter>1</alter>
                      <octave>4</octave>
                  </pitch>
                  <duration>480</duration>
                  <tie type="stop"/>
                  <voice>1</voice>
                  <type>half</type>
                  <stem>up</stem>
                  <staff>1</staff>
                  <notations>
                      <tied type="stop"/>
                  </notations>
              </note>
          </measure>
          <measure  number="28">
              <attributes>
              </attributes>
              <note>
                  <pitch>
                      <step>G</step>
                      <octave>4</octave>
                  </pitch>
                  <duration>240</duration>
                  <voice>1</voice>
                  <type>quarter</type>
                  <stem>up</stem>
                  <staff>1</staff>
                  <notations>
                  </notations>
              </note>
              <backup>
                  <duration>149</duration>
              </backup>
              <!--=========== CHORD HERE ==================-->
              <forward>
                  <duration>149</duration>
              </forward>
              <note>
                  <pitch>
                      <step>G</step>
                      <octave>4</octave>
                  </pitch>
                  <duration>120</duration>
                  <voice>1</voice>
                  <type>eighth</type>
                  <stem>up</stem>
                  <staff>1</staff>
                  <beam number="1">begin</beam>
                  <notations>
                  </notations>
              </note>
              <note>
                  <pitch>
                      <step>G</step>
                      <octave>4</octave>
                  </pitch>
                  <duration>120</duration>
                  <tie type="start"/>
                  <voice>1</voice>
                  <type>eighth</type>
                  <stem>up</stem>
                  <staff>1</staff>
                  <beam number="1">end</beam>
                  <notations>
                      <tied type="start"/>
                  </notations>
              </note>
              <note>
                  <pitch>
                      <step>G</step>
                      <octave>4</octave>
                  </pitch>
                  <duration>120</duration>
                  <tie type="stop"/>
                  <voice>1</voice>
                  <type>eighth</type>
                  <stem>up</stem>
                  <staff>1</staff>
                  <beam number="1">begin</beam>
                  <notations>
                      <tied type="stop"/>
                  </notations>
              </note>
              <backup>
                  <duration>120</duration>
              </backup>
              <forward>
                  <duration>120</duration>
              </forward>
              <note>
                  <pitch>
                      <step>F</step>
                      <alter>1</alter>
                      <octave>4</octave>
                  </pitch>
                  <duration>120</duration>
                  <voice>1</voice>
                  <type>eighth</type>
                  <stem>up</stem>
                  <staff>1</staff>
                  <beam number="1">continue</beam>
                  <notations>
                  </notations>
              </note>
              <note>
                  <pitch>
                      <step>E</step>
                      <octave>4</octave>
                  </pitch>
                  <duration>120</duration>
                  <voice>1</voice>
                  <type>eighth</type>
                  <stem>up</stem>
                  <staff>1</staff>
                  <beam number="1">continue</beam>
                  <notations>
                  </notations>
              </note>
              <note>
                  <pitch>
                      <step>D</step>
                      <octave>4</octave>
                  </pitch>
                  <duration>120</duration>
                  <voice>1</voice>
                  <type>eighth</type>
                  <stem>up</stem>
                  <staff>1</staff>
                  <beam number="1">end</beam>
                  <notations>
                  </notations>
              </note>
          </measure>
          <measure  number="29">
              <attributes>
              </attributes>
              <note>
                  <pitch>
                      <step>F</step>
                      <alter>1</alter>
                      <octave>4</octave>
                  </pitch>
                  <duration>240</duration>
                  <voice>1</voice>
                  <type>quarter</type>
                  <stem>up</stem>
                  <staff>1</staff>
                  <notations>
                  </notations>
              </note>
              <backup>
                  <duration>121</duration>
              </backup>
              <!--=========== CHORD HERE ==================-->
              <forward>
                  <duration>121</duration>
              </forward>
              <note>
                  <pitch>
                      <step>E</step>
                      <octave>4</octave>
                  </pitch>
                  <duration>240</duration>
                  <voice>1</voice>
                  <type>quarter</type>
                  <stem>up</stem>
                  <staff>1</staff>
                  <notations>
                  </notations>
              </note>
              <note>
                  <pitch>
                      <step>A</step>
                      <octave>4</octave>
                  </pitch>
                  <duration>480</duration>
                  <tie type="start"/>
                  <voice>1</voice>
                  <type>half</type>
                  <stem>up</stem>
                  <staff>1</staff>
                  <notations>
                      <tied type="start"/>
                  </notations>
              </note>
          </measure>
          <measure  number="30">
              <attributes>
              </attributes>
              <note>
                  <pitch>
                      <step>A</step>
                      <octave>4</octave>
                  </pitch>
                  <duration>960</duration>
                  <tie type="stop"/>
                  <voice>1</voice>
                  <type>whole</type>
                  <stem>up</stem>
                  <staff>1</staff>
                  <notations>
                      <tied type="stop"/>
                  </notations>
              </note>
              <barline location="right">
                  <bar-style>light-heavy</bar-style>
                  <repeat direction="backward"/>
              </barline>
          </measure>
      </part>
  </score-partwise>
