<?xml version="1.0" encoding="UTF-8"?>
<!DOCTYPE score-partwise PUBLIC "-//Recordare//DTD MusicXML 3.0 Partwise//EN" "http://www.musicxml.org/dtds/partwise.dtd">
<score-partwise version="3.0">
  <movement-title>Quem queritis</movement-title>
      <identification>
          <encoding>
              <software>Encore</software>
          </encoding>
      </identification>
      <defaults>
          <scaling>
              <millimeters>6.35</millimeters>
              <tenths>40</tenths>
          </scaling>
      </defaults>
      <credit>
          <credit-words justify="left" valign="top">Ritmo:</credit-words>
      </credit>
      <credit>
          <credit-words justify="left" valign="top">Voz:</credit-words>
      </credit>
      <credit>
          <credit-words justify="left" valign="top">Tempo:</credit-words>
      </credit>
      <part-list>
          <score-part id="P1">
              <part-name></part-name>
              <score-instrument id="P1-I2">
                  <instrument-name>NONE</instrument-name>
              </score-instrument>
              <midi-instrument id="P1-I2">
                  <midi-channel>1</midi-channel>
              </midi-instrument>
          </score-part>
      </part-list>
      <!--=========================================================-->
      <part id="P1">
          <measure  number="1">
              <attributes>
                  <divisions>240</divisions>
                  <key>
                      <fifths>0</fifths>
                  </key>
                  <time>
                      <beats>4</beats>
                      <beat-type>4</beat-type>
                  </time>
                  <staves>1</staves>
                  <clef number="1">
                      <sign>G</sign>
                      <line>2</line>
                  </clef>
                  <transpose>
                      <chromatic>0</chromatic>
                  </transpose>
              </attributes>
              <direction placement="above">
                  <direction-type>
                      <segno/>
                  </direction-type>
                  <voice>1</voice>
                  <staff>1</staff>
              </direction>
              <note>
                  <rest/>
                  <duration>480</duration>
                  <voice>1</voice>
                  <type>half</type>
                  <staff>1</staff>
              </note>
              <note>
                  <rest/>
                  <duration>120</duration>
                  <voice>1</voice>
                  <type>eighth</type>
                  <staff>1</staff>
              </note>
              <note>
                  <pitch>
                      <step>A</step>
                      <octave>4</octave>
                  </pitch>
                  <duration>120</duration>
                  <voice>1</voice>
                  <type>eighth</type>
                  <stem>up</stem>
                  <staff>1</staff>
                  <notations>
                  </notations>
              </note>
              <note>
                  <pitch>
                      <step>D</step>
                      <octave>5</octave>
                  </pitch>
                  <duration>120</duration>
                  <voice>1</voice>
                  <type>eighth</type>
                  <stem>down</stem>
                  <staff>1</staff>
                  <beam number="1">begin</beam>
                  <notations>
                  </notations>
              </note>
              <backup>
                  <duration>120</duration>
              </backup>
              <forward>
                  <duration>120</duration>
              </forward>
              <note>
                  <pitch>
                      <step>F</step>
                      <octave>5</octave>
                  </pitch>
                  <duration>120</duration>
                  <voice>1</voice>
                  <type>eighth</type>
                  <stem>down</stem>
                  <staff>1</staff>
                  <beam number="1">end</beam>
                  <notations>
                  </notations>
              </note>
          </measure>
          <measure  number="2">
              <attributes>
              </attributes>
              <note>
                  <pitch>
                      <step>E</step>
                      <octave>5</octave>
                  </pitch>
                  <duration>120</duration>
                  <voice>1</voice>
                  <type>eighth</type>
                  <stem>down</stem>
                  <staff>1</staff>
                  <beam number="1">begin</beam>
                  <notations>
                  </notations>
              </note>
              <backup>
                  <duration>44</duration>
              </backup>
              <!--=========== CHORD HERE ==================-->
              <forward>
                  <duration>44</duration>
              </forward>
              <note>
                  <pitch>
                      <step>D</step>
                      <octave>5</octave>
                  </pitch>
                  <duration>120</duration>
                  <voice>1</voice>
                  <type>eighth</type>
                  <stem>down</stem>
                  <staff>1</staff>
                  <beam number="1">continue</beam>
                  <notations>
                  </notations>
              </note>
              <note>
                  <pitch>
                      <step>F</step>
                      <octave>5</octave>
                  </pitch>
                  <duration>120</duration>
                  <voice>1</voice>
                  <type>eighth</type>
                  <stem>down</stem>
                  <staff>1</staff>
                  <beam number="1">continue</beam>
                  <notations>
                  </notations>
              </note>
              <note>
                  <pitch>
                      <step>D</step>
                      <octave>5</octave>
                  </pitch>
                  <duration>120</duration>
                  <voice>1</voice>
                  <type>eighth</type>
                  <stem>down</stem>
                  <staff>1</staff>
                  <beam number="1">end</beam>
                  <notations>
                  </notations>
              </note>
              <note>
                  <pitch>
                      <step>E</step>
                      <octave>5</octave>
                  </pitch>
                  <duration>120</duration>
                  <voice>1</voice>
                  <type>eighth</type>
                  <stem>down</stem>
                  <staff>1</staff>
                  <beam number="1">begin</beam>
                  <notations>
                  </notations>
              </note>
              <backup>
                  <duration>120</duration>
              </backup>
              <forward>
                  <duration>61</duration>
              </forward>
              <!--=========== CHORD HERE ==================-->
              <forward>
                  <duration>59</duration>
              </forward>
              <note>
                  <pitch>
                      <step>D</step>
                      <octave>5</octave>
                  </pitch>
                  <duration>120</duration>
                  <voice>1</voice>
                  <type>eighth</type>
                  <stem>down</stem>
                  <staff>1</staff>
                  <beam number="1">continue</beam>
                  <notations>
                  </notations>
              </note>
              <note>
                  <pitch>
                      <step>B</step>
                      <alter>-1</alter>
                      <octave>4</octave>
                  </pitch>
                  <duration>120</duration>
                  <voice>1</voice>
                  <type>eighth</type>
                  <accidental cautionary="no">flat</accidental>
                  <stem>down</stem>
                  <staff>1</staff>
                  <beam number="1">continue</beam>
                  <notations>
                  </notations>
              </note>
              <note>
                  <pitch>
                      <step>C</step>
                      <octave>5</octave>
                  </pitch>
                  <duration>120</duration>
                  <voice>1</voice>
                  <type>eighth</type>
                  <stem>down</stem>
                  <staff>1</staff>
                  <beam number="1">end</beam>
                  <notations>
                  </notations>
              </note>
          </measure>
          <measure  number="3">
              <attributes>
              </attributes>
              <note>
                  <pitch>
                      <step>A</step>
                      <octave>4</octave>
                  </pitch>
                  <duration>480</duration>
                  <tie type="start"/>
                  <voice>1</voice>
                  <type>half</type>
                  <stem>up</stem>
                  <staff>1</staff>
                  <notations>
                      <tied type="start"/>
                  </notations>
              </note>
              <backup>
                  <duration>381</duration>
              </backup>
              <!--=========== CHORD HERE ==================-->
              <forward>
                  <duration>381</duration>
              </forward>
              <note>
                  <pitch>
                      <step>A</step>
                      <octave>4</octave>
                  </pitch>
                  <duration>120</duration>
                  <tie type="stop"/>
                  <voice>1</voice>
                  <type>eighth</type>
                  <stem>down</stem>
                  <staff>1</staff>
                  <beam number="1">begin</beam>
                  <notations>
                      <tied type="stop"/>
                  </notations>
              </note>
              <backup>
                  <duration>120</duration>
              </backup>
              <forward>
                  <duration>120</duration>
              </forward>
              <note>
                  <pitch>
                      <step>A</step>
                      <octave>4</octave>
                  </pitch>
                  <duration>120</duration>
                  <voice>1</voice>
                  <type>eighth</type>
                  <stem>down</stem>
                  <staff>1</staff>
                  <beam number="1">continue</beam>
                  <notations>
                  </notations>
              </note>
              <note>
                  <pitch>
                      <step>D</step>
                      <octave>5</octave>
                  </pitch>
                  <duration>120</duration>
                  <voice>1</voice>
                  <type>eighth</type>
                  <stem>down</stem>
                  <staff>1</staff>
                  <beam number="1">continue</beam>
                  <notations>
                  </notations>
              </note>
              <note>
                  <pitch>
                      <step>F</step>
                      <octave>5</octave>
                  </pitch>
                  <duration>120</duration>
                  <voice>1</voice>
                  <type>eighth</type>
                  <stem>down</stem>
                  <staff>1</staff>
                  <beam number="1">end</beam>
                  <notations>
                  </notations>
              </note>
          </measure>
          <measure  number="4">
              <attributes>
              </attributes>
              <note>
                  <pitch>
                      <step>E</step>
                      <octave>5</octave>
                  </pitch>
                  <duration>120</duration>
                  <voice>1</voice>
                  <type>eighth</type>
                  <stem>down</stem>
                  <staff>1</staff>
                  <beam number="1">begin</beam>
                  <notations>
                  </notations>
              </note>
              <note>
                  <pitch>
                      <step>D</step>
                      <octave>5</octave>
                  </pitch>
                  <duration>120</duration>
                  <voice>1</voice>
                  <type>eighth</type>
                  <stem>down</stem>
                  <staff>1</staff>
                  <beam number="1">continue</beam>
                  <notations>
                  </notations>
              </note>
              <note>
                  <pitch>
                      <step>F</step>
                      <octave>5</octave>
                  </pitch>
                  <duration>120</duration>
                  <voice>1</voice>
                  <type>eighth</type>
                  <stem>down</stem>
                  <staff>1</staff>
                  <beam number="1">continue</beam>
                  <notations>
                  </notations>
              </note>
              <note>
                  <pitch>
                      <step>D</step>
                      <octave>5</octave>
                  </pitch>
                  <duration>120</duration>
                  <voice>1</voice>
                  <type>eighth</type>
                  <stem>down</stem>
                  <staff>1</staff>
                  <beam number="1">end</beam>
                  <notations>
                  </notations>
              </note>
              <note>
                  <pitch>
                      <step>E</step>
                      <octave>5</octave>
                  </pitch>
                  <duration>120</duration>
                  <voice>1</voice>
                  <type>eighth</type>
                  <stem>down</stem>
                  <staff>1</staff>
                  <beam number="1">begin</beam>
                  <notations>
                  </notations>
              </note>
              <backup>
                  <duration>120</duration>
              </backup>
              <forward>
                  <duration>120</duration>
              </forward>
              <note>
                  <pitch>
                      <step>D</step>
                      <octave>5</octave>
                  </pitch>
                  <duration>120</duration>
                  <voice>1</voice>
                  <type>eighth</type>
                  <stem>down</stem>
                  <staff>1</staff>
                  <beam number="1">continue</beam>
                  <notations>
                  </notations>
              </note>
              <note>
                  <pitch>
                      <step>A</step>
                      <octave>4</octave>
                  </pitch>
                  <duration>120</duration>
                  <voice>1</voice>
                  <type>eighth</type>
                  <stem>down</stem>
                  <staff>1</staff>
                  <beam number="1">continue</beam>
                  <notations>
                  </notations>
              </note>
              <note>
                  <pitch>
                      <step>A</step>
                      <alter>-1</alter>
                      <octave>4</octave>
                  </pitch>
                  <duration>120</duration>
                  <voice>1</voice>
                  <type>eighth</type>
                  <accidental cautionary="no">flat</accidental>
                  <stem>down</stem>
                  <staff>1</staff>
                  <beam number="1">end</beam>
                  <notations>
                  </notations>
              </note>
          </measure>
          <measure  number="5">
              <attributes>
              </attributes>
              <note>
                  <pitch>
                      <step>G</step>
                      <octave>4</octave>
                  </pitch>
                  <duration>480</duration>
                  <tie type="start"/>
                  <voice>1</voice>
                  <type>half</type>
                  <stem>up</stem>
                  <staff>1</staff>
                  <notations>
                      <tied type="start"/>
                  </notations>
              </note>
              <backup>
                  <duration>366</duration>
              </backup>
              <!--=========== CHORD HERE ==================-->
              <forward>
                  <duration>366</duration>
              </forward>
              <note>
                  <pitch>
                      <step>G</step>
                      <octave>4</octave>
                  </pitch>
                  <duration>120</duration>
                  <tie type="stop"/>
                  <voice>1</voice>
                  <type>eighth</type>
                  <stem>up</stem>
                  <staff>1</staff>
                  <beam number="1">begin</beam>
                  <notations>
                      <tied type="stop"/>
                  </notations>
              </note>
              <backup>
                  <duration>120</duration>
              </backup>
              <forward>
                  <duration>120</duration>
              </forward>
              <note>
                  <pitch>
                      <step>G</step>
                      <octave>4</octave>
                  </pitch>
                  <duration>120</duration>
                  <voice>1</voice>
                  <type>eighth</type>
                  <stem>up</stem>
                  <staff>1</staff>
                  <beam number="1">continue</beam>
                  <notations>
                  </notations>
              </note>
              <note>
                  <pitch>
                      <step>B</step>
                      <alter>-1</alter>
                      <octave>4</octave>
                  </pitch>
                  <duration>120</duration>
                  <voice>1</voice>
                  <type>eighth</type>
                  <accidental cautionary="no">flat</accidental>
                  <stem>up</stem>
                  <staff>1</staff>
                  <beam number="1">continue</beam>
                  <notations>
                  </notations>
              </note>
              <note>
                  <pitch>
                      <step>C</step>
                      <alter>1</alter>
                      <octave>5</octave>
                  </pitch>
                  <duration>120</duration>
                  <voice>1</voice>
                  <type>eighth</type>
                  <accidental cautionary="no">sharp</accidental>
                  <stem>up</stem>
                  <staff>1</staff>
                  <beam number="1">end</beam>
                  <notations>
                  </notations>
              </note>
          </measure>
          <measure  number="6">
              <attributes>
              </attributes>
              <note>
                  <pitch>
                      <step>E</step>
                      <octave>5</octave>
                  </pitch>
                  <duration>480</duration>
                  <tie type="start"/>
                  <voice>1</voice>
                  <type>half</type>
                  <stem>down</stem>
                  <staff>1</staff>
                  <notations>
                      <tied type="start"/>
                  </notations>
              </note>
              <note>
                  <pitch>
                      <step>E</step>
                      <octave>5</octave>
                  </pitch>
                  <duration>120</duration>
                  <tie type="stop"/>
                  <voice>1</voice>
                  <type>eighth</type>
                  <stem>down</stem>
                  <staff>1</staff>
                  <beam number="1">begin</beam>
                  <notations>
                      <tied type="stop"/>
                  </notations>
              </note>
              <backup>
                  <duration>120</duration>
              </backup>
              <forward>
                  <duration>120</duration>
              </forward>
              <note>
                  <pitch>
                      <step>G</step>
                      <octave>4</octave>
                  </pitch>
                  <duration>120</duration>
                  <voice>1</voice>
                  <type>eighth</type>
                  <stem>down</stem>
                  <staff>1</staff>
                  <beam number="1">continue</beam>
                  <notations>
                  </notations>
              </note>
              <note>
                  <pitch>
                      <step>B</step>
                      <alter>-1</alter>
                      <octave>4</octave>
                  </pitch>
                  <duration>120</duration>
                  <voice>1</voice>
                  <type>eighth</type>
                  <accidental cautionary="no">flat</accidental>
                  <stem>down</stem>
                  <staff>1</staff>
                  <beam number="1">continue</beam>
                  <notations>
                  </notations>
              </note>
              <note>
                  <pitch>
                      <step>C</step>
                      <alter>1</alter>
                      <octave>5</octave>
                  </pitch>
                  <duration>120</duration>
                  <voice>1</voice>
                  <type>eighth</type>
                  <accidental cautionary="no">sharp</accidental>
                  <stem>down</stem>
                  <staff>1</staff>
                  <beam number="1">end</beam>
                  <notations>
                  </notations>
              </note>
          </measure>
          <measure  number="7">
              <attributes>
              </attributes>
              <note>
                  <pitch>
                      <step>D</step>
                      <octave>5</octave>
                  </pitch>
                  <duration>480</duration>
                  <tie type="start"/>
                  <voice>1</voice>
                  <type>half</type>
                  <stem>down</stem>
                  <staff>1</staff>
                  <notations>
                      <tied type="start"/>
                  </notations>
              </note>
              <backup>
                  <duration>373</duration>
              </backup>
              <!--=========== CHORD HERE ==================-->
              <forward>
                  <duration>373</duration>
              </forward>
              <note>
                  <pitch>
                      <step>D</step>
                      <octave>5</octave>
                  </pitch>
                  <duration>120</duration>
                  <tie type="stop"/>
                  <voice>1</voice>
                  <type>eighth</type>
                  <stem>up</stem>
                  <staff>1</staff>
                  <beam number="1">begin</beam>
                  <notations>
                      <tied type="stop"/>
                  </notations>
              </note>
              <backup>
                  <duration>120</duration>
              </backup>
              <forward>
                  <duration>120</duration>
              </forward>
              <note>
                  <pitch>
                      <step>D</step>
                      <octave>4</octave>
                  </pitch>
                  <duration>120</duration>
                  <voice>1</voice>
                  <type>eighth</type>
                  <stem>up</stem>
                  <staff>1</staff>
                  <beam number="1">continue</beam>
                  <notations>
                  </notations>
              </note>
              <note>
                  <pitch>
                      <step>F</step>
                      <octave>4</octave>
                  </pitch>
                  <duration>120</duration>
                  <voice>1</voice>
                  <type>eighth</type>
                  <stem>up</stem>
                  <staff>1</staff>
                  <beam number="1">continue</beam>
                  <notations>
                  </notations>
              </note>
              <note>
                  <pitch>
                      <step>C</step>
                      <octave>5</octave>
                  </pitch>
                  <duration>120</duration>
                  <voice>1</voice>
                  <type>eighth</type>
                  <stem>up</stem>
                  <staff>1</staff>
                  <beam number="1">end</beam>
                  <notations>
                  </notations>
              </note>
          </measure>
          <measure  number="8">
              <attributes>
              </attributes>
              <direction placement="above">
                  <direction-type>
                      <coda/>
                  </direction-type>
                  <voice>1</voice>
                  <staff>1</staff>
              </direction>
              <note>
                  <pitch>
                      <step>B</step>
                      <alter>-1</alter>
                      <octave>4</octave>
                  </pitch>
                  <duration>120</duration>
                  <voice>1</voice>
                  <type>eighth</type>
                  <accidental cautionary="no">flat</accidental>
                  <stem>up</stem>
                  <staff>1</staff>
                  <beam number="1">begin</beam>
                  <notations>
                  </notations>
              </note>
              <note>
                  <pitch>
                      <step>A</step>
                      <octave>4</octave>
                  </pitch>
                  <duration>120</duration>
                  <voice>1</voice>
                  <type>eighth</type>
                  <stem>up</stem>
                  <staff>1</staff>
                  <beam number="1">continue</beam>
                  <notations>
                  </notations>
              </note>
              <note>
                  <pitch>
                      <step>C</step>
                      <octave>5</octave>
                  </pitch>
                  <duration>120</duration>
                  <voice>1</voice>
                  <type>eighth</type>
                  <stem>up</stem>
                  <staff>1</staff>
                  <beam number="1">continue</beam>
                  <notations>
                  </notations>
              </note>
              <note>
                  <pitch>
                      <step>B</step>
                      <alter>-1</alter>
                      <octave>4</octave>
                  </pitch>
                  <duration>120</duration>
                  <voice>1</voice>
                  <type>eighth</type>
                  <stem>up</stem>
                  <staff>1</staff>
                  <beam number="1">end</beam>
                  <notations>
                  </notations>
              </note>
              <note>
                  <pitch>
                      <step>B</step>
                      <alter>-1</alter>
                      <octave>4</octave>
                  </pitch>
                  <duration>120</duration>
                  <voice>1</voice>
                  <type>eighth</type>
                  <stem>up</stem>
                  <staff>1</staff>
                  <beam number="1">begin</beam>
                  <notations>
                  </notations>
              </note>
              <backup>
                  <duration>120</duration>
              </backup>
              <forward>
                  <duration>53</duration>
              </forward>
              <!--=========== CHORD HERE ==================-->
              <forward>
                  <duration>67</duration>
              </forward>
              <note>
                  <pitch>
                      <step>A</step>
                      <octave>4</octave>
                  </pitch>
                  <duration>120</duration>
                  <voice>1</voice>
                  <type>eighth</type>
                  <stem>up</stem>
                  <staff>1</staff>
                  <beam number="1">continue</beam>
                  <notations>
                  </notations>
              </note>
              <note>
                  <pitch>
                      <step>A</step>
                      <octave>4</octave>
                  </pitch>
                  <duration>120</duration>
                  <voice>1</voice>
                  <type>eighth</type>
                  <stem>up</stem>
                  <staff>1</staff>
                  <beam number="1">continue</beam>
                  <notations>
                  </notations>
              </note>
              <note>
                  <pitch>
                      <step>C</step>
                      <alter>1</alter>
                      <octave>4</octave>
                  </pitch>
                  <duration>120</duration>
                  <voice>1</voice>
                  <type>eighth</type>
                  <accidental cautionary="no">sharp</accidental>
                  <stem>up</stem>
                  <staff>1</staff>
                  <beam number="1">end</beam>
                  <notations>
                  </notations>
              </note>
          </measure>
          <measure  number="9">
              <attributes>
              </attributes>
              <note>
                  <pitch>
                      <step>D</step>
                      <octave>4</octave>
                  </pitch>
                  <duration>480</duration>
                  <tie type="start"/>
                  <voice>1</voice>
                  <type>half</type>
                  <stem>up</stem>
                  <staff>1</staff>
                  <notations>
                      <tied type="start"/>
                  </notations>
              </note>
              <backup>
                  <duration>373</duration>
              </backup>
              <!--=========== CHORD HERE ==================-->
              <forward>
                  <duration>373</duration>
              </forward>
              <note>
                  <pitch>
                      <step>D</step>
                      <octave>4</octave>
                  </pitch>
                  <duration>120</duration>
                  <tie type="stop"/>
                  <voice>1</voice>
                  <type>eighth</type>
                  <stem>up</stem>
                  <staff>1</staff>
                  <beam number="1">begin</beam>
                  <notations>
                      <tied type="stop"/>
                  </notations>
              </note>
              <backup>
                  <duration>120</duration>
              </backup>
              <forward>
                  <duration>120</duration>
              </forward>
              <note>
                  <pitch>
                      <step>D</step>
                      <octave>5</octave>
                  </pitch>
                  <duration>120</duration>
                  <voice>1</voice>
                  <type>eighth</type>
                  <stem>up</stem>
                  <staff>1</staff>
                  <beam number="1">continue</beam>
                  <notations>
                  </notations>
              </note>
              <note>
                  <pitch>
                      <step>D</step>
                      <octave>5</octave>
                  </pitch>
                  <duration>120</duration>
                  <voice>1</voice>
                  <type>eighth</type>
                  <stem>up</stem>
                  <staff>1</staff>
                  <beam number="1">continue</beam>
                  <notations>
                  </notations>
              </note>
              <note>
                  <pitch>
                      <step>D</step>
                      <alter>-1</alter>
                      <octave>5</octave>
                  </pitch>
                  <duration>120</duration>
                  <voice>1</voice>
                  <type>eighth</type>
                  <accidental cautionary="no">flat</accidental>
                  <stem>up</stem>
                  <staff>1</staff>
                  <beam number="1">end</beam>
                  <notations>
                  </notations>
              </note>
          </measure>
          <measure  number="10">
              <attributes>
              </attributes>
              <note>
                  <pitch>
                      <step>C</step>
                      <octave>5</octave>
                  </pitch>
                  <duration>480</duration>
                  <voice>1</voice>
                  <type>half</type>
                  <stem>down</stem>
                  <staff>1</staff>
                  <notations>
                  </notations>
              </note>
              <backup>
                  <duration>380</duration>
              </backup>
              <!--=========== CHORD HERE ==================-->
              <forward>
                  <duration>380</duration>
              </forward>
              <note>
                  <pitch>
                      <step>E</step>
                      <octave>5</octave>
                  </pitch>
                  <duration>240</duration>
                  <voice>1</voice>
                  <type>quarter</type>
                  <stem>down</stem>
                  <staff>1</staff>
                  <notations>
                  </notations>
              </note>
              <note>
                  <pitch>
                      <step>D</step>
                      <octave>5</octave>
                  </pitch>
                  <duration>120</duration>
                  <voice>1</voice>
                  <type>eighth</type>
                  <stem>down</stem>
                  <staff>1</staff>
                  <beam number="1">begin</beam>
                  <notations>
                  </notations>
              </note>
              <backup>
                  <duration>120</duration>
              </backup>
              <forward>
                  <duration>120</duration>
              </forward>
              <note>
                  <pitch>
                      <step>B</step>
                      <alter>-1</alter>
                      <octave>4</octave>
                  </pitch>
                  <duration>120</duration>
                  <voice>1</voice>
                  <type>eighth</type>
                  <accidental cautionary="no">flat</accidental>
                  <stem>down</stem>
                  <staff>1</staff>
                  <beam number="1">end</beam>
                  <notations>
                  </notations>
              </note>
          </measure>
          <measure  number="11">
              <attributes>
              </attributes>
              <note>
                  <pitch>
                      <step>A</step>
                      <octave>4</octave>
                  </pitch>
                  <duration>480</duration>
                  <tie type="start"/>
                  <voice>1</voice>
                  <type>half</type>
                  <stem>up</stem>
                  <staff>1</staff>
                  <notations>
                      <tied type="start"/>
                  </notations>
              </note>
              <backup>
                  <duration>352</duration>
              </backup>
              <!--=========== CHORD HERE ==================-->
              <forward>
                  <duration>352</duration>
              </forward>
              <note>
                  <pitch>
                      <step>A</step>
                      <octave>4</octave>
                  </pitch>
                  <duration>120</duration>
                  <tie type="stop"/>
                  <voice>1</voice>
                  <type>eighth</type>
                  <stem>up</stem>
                  <staff>1</staff>
                  <beam number="1">begin</beam>
                  <notations>
                      <tied type="stop"/>
                  </notations>
              </note>
              <backup>
                  <duration>120</duration>
              </backup>
              <forward>
                  <duration>120</duration>
              </forward>
              <note>
                  <pitch>
                      <step>A</step>
                      <octave>4</octave>
                  </pitch>
                  <duration>120</duration>
                  <voice>1</voice>
                  <type>eighth</type>
                  <stem>up</stem>
                  <staff>1</staff>
                  <beam number="1">continue</beam>
                  <notations>
                  </notations>
              </note>
              <note>
                  <pitch>
                      <step>C</step>
                      <octave>5</octave>
                  </pitch>
                  <duration>120</duration>
                  <voice>1</voice>
                  <type>eighth</type>
                  <stem>up</stem>
                  <staff>1</staff>
                  <beam number="1">continue</beam>
                  <notations>
                  </notations>
              </note>
              <note>
                  <pitch>
                      <step>A</step>
                      <octave>4</octave>
                  </pitch>
                  <duration>120</duration>
                  <voice>1</voice>
                  <type>eighth</type>
                  <stem>up</stem>
                  <staff>1</staff>
                  <beam number="1">end</beam>
                  <notations>
                  </notations>
              </note>
          </measure>
          <measure  number="12">
              <attributes>
              </attributes>
              <note>
                  <pitch>
                      <step>G</step>
                      <octave>4</octave>
                  </pitch>
                  <duration>480</duration>
                  <tie type="start"/>
                  <voice>1</voice>
                  <type>half</type>
                  <stem>up</stem>
                  <staff>1</staff>
                  <notations>
                      <tied type="start"/>
                  </notations>
              </note>
              <backup>
                  <duration>382</duration>
              </backup>
              <!--=========== CHORD HERE ==================-->
              <forward>
                  <duration>382</duration>
              </forward>
              <note>
                  <pitch>
                      <step>G</step>
                      <octave>4</octave>
                  </pitch>
                  <duration>120</duration>
                  <tie type="stop"/>
                  <voice>1</voice>
                  <type>eighth</type>
                  <stem>up</stem>
                  <staff>1</staff>
                  <beam number="1">begin</beam>
                  <notations>
                      <tied type="stop"/>
                  </notations>
              </note>
              <backup>
                  <duration>120</duration>
              </backup>
              <forward>
                  <duration>120</duration>
              </forward>
              <note>
                  <pitch>
                      <step>G</step>
                      <octave>4</octave>
                  </pitch>
                  <duration>120</duration>
                  <voice>1</voice>
                  <type>eighth</type>
                  <stem>up</stem>
                  <staff>1</staff>
                  <beam number="1">continue</beam>
                  <notations>
                  </notations>
              </note>
              <note>
                  <pitch>
                      <step>B</step>
                      <alter>-1</alter>
                      <octave>4</octave>
                  </pitch>
                  <duration>120</duration>
                  <voice>1</voice>
                  <type>eighth</type>
                  <accidental cautionary="no">flat</accidental>
                  <stem>up</stem>
                  <staff>1</staff>
                  <beam number="1">continue</beam>
                  <notations>
                  </notations>
              </note>
              <note>
                  <pitch>
                      <step>G</step>
                      <alter>1</alter>
                      <octave>4</octave>
                  </pitch>
                  <duration>120</duration>
                  <voice>1</voice>
                  <type>eighth</type>
                  <accidental cautionary="no">sharp</accidental>
                  <stem>up</stem>
                  <staff>1</staff>
                  <beam number="1">end</beam>
                  <notations>
                  </notations>
              </note>
          </measure>
          <measure  number="13">
              <attributes>
              </attributes>
              <note>
                  <pitch>
                      <step>A</step>
                      <octave>4</octave>
                  </pitch>
                  <duration>960</duration>
                  <voice>1</voice>
                  <type>whole</type>
                  <stem>up</stem>
                  <staff>1</staff>
                  <notations>
                  </notations>
              </note>
              <backup>
                  <duration>789</duration>
              </backup>
              <!--=========== CHORD HERE ==================-->
              <forward>
                  <duration>789</duration>
              </forward>
              <direction placement="above">
                  <direction-type>
                      <coda/>
                  </direction-type>
                  <voice>1</voice>
                  <staff>1</staff>
              </direction>
              <barline location="right">
                  <bar-style>light-heavy</bar-style>
                  <repeat direction="backward"/>
              </barline>
          </measure>
          <measure  number="14">
              <attributes>
              </attributes>
              <note>
                  <pitch>
                      <step>B</step>
                      <alter>-1</alter>
                      <octave>4</octave>
                  </pitch>
                  <duration>120</duration>
                  <voice>1</voice>
                  <type>eighth</type>
                  <accidental cautionary="no">flat</accidental>
                  <stem>up</stem>
                  <staff>1</staff>
                  <beam number="1">begin</beam>
                  <notations>
                  </notations>
              </note>
              <backup>
                  <duration>20</duration>
              </backup>
              <!--=========== CHORD HERE ==================-->
              <forward>
                  <duration>20</duration>
              </forward>
              <note>
                  <pitch>
                      <step>A</step>
                      <octave>4</octave>
                  </pitch>
                  <duration>120</duration>
                  <voice>1</voice>
                  <type>eighth</type>
                  <stem>up</stem>
                  <staff>1</staff>
                  <beam number="1">continue</beam>
                  <notations>
                  </notations>
              </note>
              <note>
                  <pitch>
                      <step>C</step>
                      <octave>5</octave>
                  </pitch>
                  <duration>120</duration>
                  <voice>1</voice>
                  <type>eighth</type>
                  <stem>up</stem>
                  <staff>1</staff>
                  <beam number="1">continue</beam>
                  <notations>
                  </notations>
              </note>
              <note>
                  <pitch>
                      <step>B</step>
                      <alter>-1</alter>
                      <octave>4</octave>
                  </pitch>
                  <duration>120</duration>
                  <voice>1</voice>
                  <type>eighth</type>
                  <stem>up</stem>
                  <staff>1</staff>
                  <beam number="1">end</beam>
                  <notations>
                  </notations>
              </note>
              <note>
                  <pitch>
                      <step>B</step>
                      <alter>-1</alter>
                      <octave>4</octave>
                  </pitch>
                  <duration>120</duration>
                  <voice>1</voice>
                  <type>eighth</type>
                  <stem>up</stem>
                  <staff>1</staff>
                  <beam number="1">begin</beam>
                  <notations>
                  </notations>
              </note>
              <backup>
                  <duration>120</duration>
              </backup>
              <forward>
                  <duration>75</duration>
              </forward>
              <!--=========== CHORD HERE ==================-->
              <forward>
                  <duration>45</duration>
              </forward>
              <note>
                  <pitch>
                      <step>A</step>
                      <octave>4</octave>
                  </pitch>
                  <duration>120</duration>
                  <voice>1</voice>
                  <type>eighth</type>
                  <stem>up</stem>
                  <staff>1</staff>
                  <beam number="1">continue</beam>
                  <notations>
                  </notations>
              </note>
              <note>
                  <pitch>
                      <step>A</step>
                      <octave>4</octave>
                  </pitch>
                  <duration>120</duration>
                  <voice>1</voice>
                  <type>eighth</type>
                  <stem>up</stem>
                  <staff>1</staff>
                  <beam number="1">continue</beam>
                  <notations>
                  </notations>
              </note>
              <note>
                  <pitch>
                      <step>C</step>
                      <alter>1</alter>
                      <octave>5</octave>
                  </pitch>
                  <duration>120</duration>
                  <voice>1</voice>
                  <type>eighth</type>
                  <accidental cautionary="no">sharp</accidental>
                  <stem>up</stem>
                  <staff>1</staff>
                  <beam number="1">end</beam>
                  <notations>
                  </notations>
              </note>
          </measure>
          <measure  number="15">
              <attributes>
              </attributes>
              <note>
                  <pitch>
                      <step>D</step>
                      <octave>5</octave>
                  </pitch>
                  <duration>960</duration>
                  <tie type="start"/>
                  <voice>1</voice>
                  <type>whole</type>
                  <stem>down</stem>
                  <staff>1</staff>
                  <notations>
                      <tied type="start"/>
                  </notations>
              </note>
              <backup>
                  <duration>804</duration>
              </backup>
              <!--=========== CHORD HERE ==================-->
          </measure>
          <measure  number="16">
              <attributes>
              </attributes>
              <note>
                  <pitch>
                      <step>D</step>
                      <octave>5</octave>
                  </pitch>
                  <duration>960</duration>
                  <tie type="stop"/>
                  <voice>1</voice>
                  <type>whole</type>
                  <stem>down</stem>
                  <staff>1</staff>
                  <notations>
                      <tied type="stop"/>
                  </notations>
              </note>
              <barline location="right">
                  <bar-style>light-heavy</bar-style>
              </barline>
          </measure>
      </part>
  </score-partwise>
