<?xml version="1.0" encoding="UTF-8"?>
<!DOCTYPE score-partwise PUBLIC "-//Recordare//DTD MusicXML 3.0 Partwise//EN" "http://www.musicxml.org/dtds/partwise.dtd">
<score-partwise version="3.0">
  <movement-title>Quem queritis</movement-title>
      <identification>
          <encoding>
              <software>Encore</software>
          </encoding>
      </identification>
      <defaults>
          <scaling>
              <millimeters>6.35</millimeters>
              <tenths>40</tenths>
          </scaling>
      </defaults>
      <part-list>
          <score-part id="P1">
              <part-name></part-name>
              <score-instrument id="P1-I2">
                  <instrument-name>NONE</instrument-name>
              </score-instrument>
              <midi-instrument id="P1-I2">
                  <midi-channel>1</midi-channel>
              </midi-instrument>
          </score-part>
      </part-list>
      <!--=========================================================-->
      <part id="P1">
          <measure  number="1">
              <attributes>
                  <divisions>240</divisions>
                  <key>
                      <fifths>0</fifths>
                  </key>
                  <time>
                      <beats>4</beats>
                      <beat-type>4</beat-type>
                  </time>
                  <staves>1</staves>
                  <clef number="1">
                      <sign>F</sign>
                      <line>4</line>
                  </clef>
                  <transpose>
                      <chromatic>0</chromatic>
                  </transpose>
              </attributes>
              <note>
                  <pitch>
                      <step>B</step>
                      <octave>3</octave>
                  </pitch>
                  <duration>240</duration>
                  <voice>1</voice>
                  <type>quarter</type>
                  <stem>down</stem>
                  <staff>1</staff>
                  <notations>
                  </notations>
              </note>
              <note>
                  <pitch>
                      <step>B</step>
                      <octave>3</octave>
                  </pitch>
                  <duration>480</duration>
                  <voice>1</voice>
                  <type>half</type>
                  <stem>down</stem>
                  <staff>1</staff>
                  <notations>
                  </notations>
              </note>
              <note>
                  <chord/>
                  <pitch>
                      <step>G</step>
                      <octave>3</octave>
                  </pitch>
                  <duration>480</duration>
                  <voice>1</voice>
                  <type>half</type>
                  <stem>down</stem>
                  <staff>1</staff>
                  <notations>
                  </notations>
              </note>
              <note>
                  <chord/>
                  <pitch>
                      <step>E</step>
                      <octave>3</octave>
                  </pitch>
                  <duration>480</duration>
                  <voice>1</voice>
                  <type>half</type>
                  <stem>down</stem>
                  <staff>1</staff>
                  <notations>
                  </notations>
              </note>
              <note>
                  <rest/>
                  <duration>240</duration>
                  <voice>1</voice>
                  <type>quarter</type>
                  <staff>1</staff>
              </note>
          </measure>
          <measure  number="2">
              <attributes>
              </attributes>
              <note>
                  <pitch>
                      <step>B</step>
                      <octave>3</octave>
                  </pitch>
                  <duration>240</duration>
                  <voice>1</voice>
                  <type>quarter</type>
                  <stem>down</stem>
                  <staff>1</staff>
                  <notations>
                  </notations>
              </note>
              <note>
                  <chord/>
                  <pitch>
                      <step>G</step>
                      <octave>3</octave>
                  </pitch>
                  <duration>240</duration>
                  <voice>1</voice>
                  <type>quarter</type>
                  <stem>down</stem>
                  <staff>1</staff>
                  <notations>
                  </notations>
              </note>
              <note>
                  <chord/>
                  <pitch>
                      <step>E</step>
                      <octave>3</octave>
                  </pitch>
                  <duration>240</duration>
                  <voice>1</voice>
                  <type>quarter</type>
                  <stem>down</stem>
                  <staff>1</staff>
                  <notations>
                  </notations>
              </note>
              <note>
                  <rest/>
                  <duration>240</duration>
                  <voice>1</voice>
                  <type>quarter</type>
                  <staff>1</staff>
              </note>
              <note>
                  <rest/>
                  <duration>120</duration>
                  <voice>1</voice>
                  <type>eighth</type>
                  <staff>1</staff>
              </note>
              <note>
                  <pitch>
                      <step>B</step>
                      <octave>3</octave>
                  </pitch>
                  <duration>360</duration>
                  <voice>1</voice>
                  <type>quarter</type>
                  <dot/>
                  <stem>down</stem>
                  <staff>1</staff>
                  <notations>
                  </notations>
              </note>
              <note>
                  <chord/>
                  <pitch>
                      <step>G</step>
                      <octave>3</octave>
                  </pitch>
                  <duration>360</duration>
                  <voice>1</voice>
                  <type>quarter</type>
                  <dot/>
                  <stem>down</stem>
                  <staff>1</staff>
                  <notations>
                  </notations>
              </note>
              <note>
                  <chord/>
                  <pitch>
                      <step>E</step>
                      <octave>3</octave>
                  </pitch>
                  <duration>360</duration>
                  <voice>1</voice>
                  <type>quarter</type>
                  <dot/>
                  <stem>down</stem>
                  <staff>1</staff>
                  <notations>
                  </notations>
              </note>
          </measure>
          <measure  number="3">
              <attributes>
              </attributes>
              <note>
                  <rest/>
                  <duration>360</duration>
                  <voice>1</voice>
                  <type>quarter</type>
                  <staff>1</staff>
              </note>
              <note>
                  <pitch>
                      <step>B</step>
                      <octave>3</octave>
                  </pitch>
                  <duration>120</duration>
                  <tie type="start"/>
                  <voice>1</voice>
                  <type>eighth</type>
                  <stem>down</stem>
                  <staff>1</staff>
                  <notations>
                      <tied type="start"/>
                  </notations>
              </note>
              <note>
                  <chord/>
                  <pitch>
                      <step>G</step>
                      <octave>3</octave>
                  </pitch>
                  <duration>120</duration>
                  <tie type="start"/>
                  <voice>1</voice>
                  <type>eighth</type>
                  <stem>down</stem>
                  <staff>1</staff>
                  <notations>
                      <tied type="start"/>
                  </notations>
              </note>
              <note>
                  <chord/>
                  <pitch>
                      <step>E</step>
                      <octave>3</octave>
                  </pitch>
                  <duration>120</duration>
                  <tie type="start"/>
                  <voice>1</voice>
                  <type>eighth</type>
                  <stem>down</stem>
                  <staff>1</staff>
                  <notations>
                      <tied type="start"/>
                  </notations>
              </note>
              <note>
                  <pitch>
                      <step>B</step>
                      <octave>3</octave>
                  </pitch>
                  <duration>480</duration>
                  <tie type="stop"/>
                  <voice>1</voice>
                  <type>half</type>
                  <stem>down</stem>
                  <staff>1</staff>
                  <notations>
                      <tied type="stop"/>
                  </notations>
              </note>
              <note>
                  <chord/>
                  <pitch>
                      <step>G</step>
                      <octave>3</octave>
                  </pitch>
                  <duration>480</duration>
                  <tie type="stop"/>
                  <voice>1</voice>
                  <type>half</type>
                  <stem>down</stem>
                  <staff>1</staff>
                  <notations>
                      <tied type="stop"/>
                  </notations>
              </note>
              <note>
                  <chord/>
                  <pitch>
                      <step>E</step>
                      <octave>3</octave>
                  </pitch>
                  <duration>480</duration>
                  <tie type="stop"/>
                  <voice>1</voice>
                  <type>half</type>
                  <stem>down</stem>
                  <staff>1</staff>
                  <notations>
                      <tied type="stop"/>
                  </notations>
              </note>
          </measure>
          <measure  number="4">
              <attributes>
              </attributes>
              <note>
                  <pitch>
                      <step>B</step>
                      <octave>3</octave>
                  </pitch>
                  <duration>480</duration>
                  <voice>1</voice>
                  <type>half</type>
                  <stem>down</stem>
                  <staff>1</staff>
                  <notations>
                  </notations>
              </note>
              <note>
                  <chord/>
                  <pitch>
                      <step>G</step>
                      <octave>3</octave>
                  </pitch>
                  <duration>480</duration>
                  <voice>1</voice>
                  <type>half</type>
                  <stem>down</stem>
                  <staff>1</staff>
                  <notations>
                  </notations>
              </note>
              <note>
                  <chord/>
                  <pitch>
                      <step>E</step>
                      <octave>3</octave>
                  </pitch>
                  <duration>480</duration>
                  <voice>1</voice>
                  <type>half</type>
                  <stem>down</stem>
                  <staff>1</staff>
                  <notations>
                  </notations>
              </note>
              <note>
                  <rest/>
                  <duration>240</duration>
                  <voice>1</voice>
                  <type>quarter</type>
                  <staff>1</staff>
              </note>
              <note>
                  <pitch>
                      <step>B</step>
                      <octave>3</octave>
                  </pitch>
                  <duration>240</duration>
                  <voice>1</voice>
                  <type>quarter</type>
                  <stem>down</stem>
                  <staff>1</staff>
                  <notations>
                  </notations>
              </note>
              <note>
                  <chord/>
                  <pitch>
                      <step>G</step>
                      <octave>3</octave>
                  </pitch>
                  <duration>240</duration>
                  <voice>1</voice>
                  <type>quarter</type>
                  <stem>down</stem>
                  <staff>1</staff>
                  <notations>
                  </notations>
              </note>
              <note>
                  <chord/>
                  <pitch>
                      <step>E</step>
                      <octave>3</octave>
                  </pitch>
                  <duration>240</duration>
                  <voice>1</voice>
                  <type>quarter</type>
                  <stem>down</stem>
                  <staff>1</staff>
                  <notations>
                  </notations>
              </note>
          </measure>
          <measure  number="5">
              <attributes>
              </attributes>
              <note>
                  <rest/>
                  <duration>240</duration>
                  <voice>1</voice>
                  <type>quarter</type>
                  <staff>1</staff>
              </note>
              <note>
                  <pitch>
                      <step>B</step>
                      <octave>3</octave>
                  </pitch>
                  <duration>240</duration>
                  <voice>1</voice>
                  <type>quarter</type>
                  <stem>down</stem>
                  <staff>1</staff>
                  <notations>
                  </notations>
              </note>
              <note>
                  <pitch>
                      <step>B</step>
                      <octave>3</octave>
                  </pitch>
                  <duration>240</duration>
                  <voice>1</voice>
                  <type>quarter</type>
                  <stem>down</stem>
                  <staff>1</staff>
                  <notations>
                  </notations>
              </note>
              <note>
                  <chord/>
                  <pitch>
                      <step>G</step>
                      <octave>3</octave>
                  </pitch>
                  <duration>240</duration>
                  <voice>1</voice>
                  <type>quarter</type>
                  <stem>down</stem>
                  <staff>1</staff>
                  <notations>
                  </notations>
              </note>
              <note>
                  <chord/>
                  <pitch>
                      <step>E</step>
                      <octave>3</octave>
                  </pitch>
                  <duration>240</duration>
                  <voice>1</voice>
                  <type>quarter</type>
                  <stem>down</stem>
                  <staff>1</staff>
                  <notations>
                  </notations>
              </note>
              <note>
                  <rest/>
                  <duration>240</duration>
                  <voice>1</voice>
                  <type>quarter</type>
                  <staff>1</staff>
              </note>
          </measure>
          <measure  number="6">
              <attributes>
              </attributes>
              <note>
                  <rest/>
                  <duration>240</duration>
                  <voice>1</voice>
                  <type>quarter</type>
                  <staff>1</staff>
              </note>
              <note>
                  <pitch>
                      <step>B</step>
                      <octave>3</octave>
                  </pitch>
                  <duration>240</duration>
                  <voice>1</voice>
                  <type>quarter</type>
                  <stem>down</stem>
                  <staff>1</staff>
                  <notations>
                  </notations>
              </note>
              <note>
                  <chord/>
                  <pitch>
                      <step>E</step>
                      <octave>3</octave>
                  </pitch>
                  <duration>240</duration>
                  <voice>1</voice>
                  <type>quarter</type>
                  <stem>down</stem>
                  <staff>1</staff>
                  <notations>
                  </notations>
              </note>
              <note>
                  <chord/>
                  <pitch>
                      <step>G</step>
                      <octave>3</octave>
                  </pitch>
                  <duration>240</duration>
                  <voice>1</voice>
                  <type>quarter</type>
                  <stem>down</stem>
                  <staff>1</staff>
                  <notations>
                  </notations>
              </note>
              <note>
                  <rest/>
                  <duration>360</duration>
                  <voice>1</voice>
                  <type>quarter</type>
                  <staff>1</staff>
              </note>
              <note>
                  <pitch>
                      <step>D</step>
                      <octave>4</octave>
                  </pitch>
                  <duration>120</duration>
                  <tie type="start"/>
                  <voice>1</voice>
                  <type>eighth</type>
                  <stem>down</stem>
                  <staff>1</staff>
                  <notations>
                      <tied type="start"/>
                  </notations>
              </note>
              <note>
                  <chord/>
                  <pitch>
                      <step>B</step>
                      <alter>-1</alter>
                      <octave>3</octave>
                  </pitch>
                  <duration>120</duration>
                  <tie type="start"/>
                  <voice>1</voice>
                  <type>eighth</type>
                  <accidental cautionary="no">flat</accidental>
                  <stem>down</stem>
                  <staff>1</staff>
                  <notations>
                      <tied type="start"/>
                  </notations>
              </note>
              <note>
                  <chord/>
                  <pitch>
                      <step>G</step>
                      <octave>3</octave>
                  </pitch>
                  <duration>120</duration>
                  <tie type="start"/>
                  <voice>1</voice>
                  <type>eighth</type>
                  <stem>down</stem>
                  <staff>1</staff>
                  <notations>
                      <tied type="start"/>
                  </notations>
              </note>
          </measure>
          <measure  number="7">
              <attributes>
              </attributes>
              <note>
                  <pitch>
                      <step>D</step>
                      <octave>4</octave>
                  </pitch>
                  <duration>480</duration>
                  <tie type="stop"/>
                  <voice>1</voice>
                  <type>half</type>
                  <stem>down</stem>
                  <staff>1</staff>
                  <notations>
                      <tied type="stop"/>
                  </notations>
              </note>
              <note>
                  <chord/>
                  <pitch>
                      <step>B</step>
                      <alter>-1</alter>
                      <octave>3</octave>
                  </pitch>
                  <duration>480</duration>
                  <tie type="stop"/>
                  <voice>1</voice>
                  <type>half</type>
                  <stem>down</stem>
                  <staff>1</staff>
                  <notations>
                      <tied type="stop"/>
                  </notations>
              </note>
              <note>
                  <chord/>
                  <pitch>
                      <step>G</step>
                      <octave>3</octave>
                  </pitch>
                  <duration>480</duration>
                  <tie type="stop"/>
                  <voice>1</voice>
                  <type>half</type>
                  <stem>down</stem>
                  <staff>1</staff>
                  <notations>
                      <tied type="stop"/>
                  </notations>
              </note>
              <note>
                  <pitch>
                      <step>C</step>
                      <octave>4</octave>
                  </pitch>
                  <duration>480</duration>
                  <voice>1</voice>
                  <type>half</type>
                  <stem>down</stem>
                  <staff>1</staff>
                  <notations>
                  </notations>
              </note>
              <note>
                  <chord/>
                  <pitch>
                      <step>G</step>
                      <alter>1</alter>
                      <octave>3</octave>
                  </pitch>
                  <duration>480</duration>
                  <voice>1</voice>
                  <type>half</type>
                  <accidental cautionary="no">sharp</accidental>
                  <stem>down</stem>
                  <staff>1</staff>
                  <notations>
                  </notations>
              </note>
              <note>
                  <chord/>
                  <pitch>
                      <step>F</step>
                      <octave>3</octave>
                  </pitch>
                  <duration>480</duration>
                  <voice>1</voice>
                  <type>half</type>
                  <stem>down</stem>
                  <staff>1</staff>
                  <notations>
                  </notations>
              </note>
          </measure>
          <measure  number="8">
              <attributes>
              </attributes>
              <note>
                  <rest/>
                  <duration>120</duration>
                  <voice>1</voice>
                  <type>eighth</type>
                  <staff>1</staff>
              </note>
              <note>
                  <pitch>
                      <step>C</step>
                      <octave>4</octave>
                  </pitch>
                  <duration>360</duration>
                  <voice>1</voice>
                  <type>quarter</type>
                  <dot/>
                  <stem>down</stem>
                  <staff>1</staff>
                  <notations>
                  </notations>
              </note>
              <note>
                  <chord/>
                  <pitch>
                      <step>A</step>
                      <octave>3</octave>
                  </pitch>
                  <duration>360</duration>
                  <voice>1</voice>
                  <type>quarter</type>
                  <dot/>
                  <stem>down</stem>
                  <staff>1</staff>
                  <notations>
                  </notations>
              </note>
              <note>
                  <chord/>
                  <pitch>
                      <step>E</step>
                      <octave>3</octave>
                  </pitch>
                  <duration>360</duration>
                  <voice>1</voice>
                  <type>quarter</type>
                  <dot/>
                  <stem>down</stem>
                  <staff>1</staff>
                  <notations>
                  </notations>
              </note>
              <note>
                  <rest/>
                  <duration>360</duration>
                  <voice>1</voice>
                  <type>quarter</type>
                  <staff>1</staff>
              </note>
              <note>
                  <pitch>
                      <step>G</step>
                      <octave>3</octave>
                  </pitch>
                  <duration>120</duration>
                  <voice>1</voice>
                  <type>eighth</type>
                  <stem>down</stem>
                  <staff>1</staff>
                  <notations>
                  </notations>
              </note>
              <note>
                  <chord/>
                  <pitch>
                      <step>E</step>
                      <octave>3</octave>
                  </pitch>
                  <duration>120</duration>
                  <voice>1</voice>
                  <type>eighth</type>
                  <stem>down</stem>
                  <staff>1</staff>
                  <notations>
                  </notations>
              </note>
              <note>
                  <chord/>
                  <pitch>
                      <step>C</step>
                      <alter>1</alter>
                      <octave>3</octave>
                  </pitch>
                  <duration>120</duration>
                  <voice>1</voice>
                  <type>eighth</type>
                  <accidental cautionary="no">sharp</accidental>
                  <stem>down</stem>
                  <staff>1</staff>
                  <notations>
                  </notations>
              </note>
          </measure>
          <measure  number="9">
              <attributes>
              </attributes>
              <note>
                  <rest/>
                  <duration>480</duration>
                  <voice>1</voice>
                  <type>half</type>
                  <staff>1</staff>
              </note>
              <note>
                  <rest/>
                  <duration>120</duration>
                  <voice>1</voice>
                  <type>eighth</type>
                  <staff>1</staff>
              </note>
              <note>
                  <pitch>
                      <step>B</step>
                      <octave>3</octave>
                  </pitch>
                  <duration>360</duration>
                  <voice>1</voice>
                  <type>quarter</type>
                  <dot/>
                  <stem>down</stem>
                  <staff>1</staff>
                  <notations>
                  </notations>
              </note>
              <note>
                  <chord/>
                  <pitch>
                      <step>G</step>
                      <octave>3</octave>
                  </pitch>
                  <duration>360</duration>
                  <voice>1</voice>
                  <type>quarter</type>
                  <dot/>
                  <stem>down</stem>
                  <staff>1</staff>
                  <notations>
                  </notations>
              </note>
              <note>
                  <chord/>
                  <pitch>
                      <step>E</step>
                      <octave>3</octave>
                  </pitch>
                  <duration>360</duration>
                  <voice>1</voice>
                  <type>quarter</type>
                  <dot/>
                  <stem>down</stem>
                  <staff>1</staff>
                  <notations>
                  </notations>
              </note>
          </measure>
          <measure  number="10">
              <attributes>
              </attributes>
              <note>
                  <rest/>
                  <duration>960</duration>
                  <voice>1</voice>
                  <type>whole</type>
                  <staff>1</staff>
              </note>
              <barline location="right">
                  <bar-style>light-heavy</bar-style>
              </barline>
          </measure>
      </part>
  </score-partwise>
