<?xml version="1.0" encoding="UTF-8"?>
<!DOCTYPE score-partwise PUBLIC "-//Recordare//DTD MusicXML 3.0 Partwise//EN" "http://www.musicxml.org/dtds/partwise.dtd">
<score-partwise version="3.0">
  <movement-title>Quem queritis</movement-title>
      <identification>
          <rights>deborah.h.bizuti@uol.com.br</rights>
          <encoding>
              <software>Encore</software>
          </encoding>
      </identification>
      <defaults>
          <scaling>
              <millimeters>6.35</millimeters>
              <tenths>40</tenths>
          </scaling>
      </defaults>
      <credit>
          <credit-words justify="center" valign="bottom">deborah.h.bizuti@uol.com.br</credit-words>
      </credit>
      <part-list>
          <score-part id="P1">
              <part-name></part-name>
              <score-instrument id="P1-I2">
                  <instrument-name>NONE</instrument-name>
              </score-instrument>
              <midi-instrument id="P1-I2">
                  <midi-channel>1</midi-channel>
              </midi-instrument>
          </score-part>
      </part-list>
      <!--=========================================================-->
      <part id="P1">
          <measure  number="1">
              <attributes>
                  <divisions>240</divisions>
                  <key>
                      <fifths>0</fifths>
                  </key>
                  <time>
                      <beats>2</beats>
                      <beat-type>4</beat-type>
                  </time>
                  <staves>1</staves>
                  <clef number="1">
                      <sign>G</sign>
                      <line>2</line>
                  </clef>
                  <transpose>
                      <chromatic>0</chromatic>
                  </transpose>
              </attributes>
              <note>
                  <pitch>
                      <step>G</step>
                      <octave>3</octave>
                  </pitch>
                  <duration>120</duration>
                  <voice>1</voice>
                  <type>eighth</type>
                  <stem>up</stem>
                  <staff>1</staff>
                  <beam number="1">begin</beam>
                  <notations>
                  </notations>
              </note>
              <note>
                  <pitch>
                      <step>G</step>
                      <octave>3</octave>
                  </pitch>
                  <duration>120</duration>
                  <voice>1</voice>
                  <type>eighth</type>
                  <stem>up</stem>
                  <staff>1</staff>
                  <beam number="1">end</beam>
                  <notations>
                  </notations>
              </note>
          </measure>
          <measure  number="2">
              <barline location="left">
                  <bar-style>light-light</bar-style>
              </barline>
              <attributes>
              </attributes>
              <note>
                  <pitch>
                      <step>G</step>
                      <octave>3</octave>
                  </pitch>
                  <duration>240</duration>
                  <voice>1</voice>
                  <type>quarter</type>
                  <stem>up</stem>
                  <staff>1</staff>
                  <notations>
                  </notations>
              </note>
              <backup>
                  <duration>107</duration>
              </backup>
              <!--=========== CHORD HERE ==================-->
              <forward>
                  <duration>107</duration>
              </forward>
              <note>
                  <pitch>
                      <step>A</step>
                      <octave>3</octave>
                  </pitch>
                  <duration>120</duration>
                  <voice>1</voice>
                  <type>eighth</type>
                  <stem>up</stem>
                  <staff>1</staff>
                  <beam number="1">begin</beam>
                  <notations>
                  </notations>
              </note>
              <backup>
                  <duration>120</duration>
              </backup>
              <forward>
                  <duration>120</duration>
              </forward>
              <note>
                  <pitch>
                      <step>B</step>
                      <octave>3</octave>
                  </pitch>
                  <duration>120</duration>
                  <voice>1</voice>
                  <type>eighth</type>
                  <stem>up</stem>
                  <staff>1</staff>
                  <beam number="1">end</beam>
                  <notations>
                  </notations>
              </note>
          </measure>
          <measure  number="3">
              <attributes>
              </attributes>
              <note>
                  <pitch>
                      <step>C</step>
                      <octave>4</octave>
                  </pitch>
                  <duration>240</duration>
                  <voice>1</voice>
                  <type>quarter</type>
                  <stem>up</stem>
                  <staff>1</staff>
                  <notations>
                  </notations>
              </note>
              <note>
                  <pitch>
                      <step>D</step>
                      <octave>4</octave>
                  </pitch>
                  <duration>120</duration>
                  <voice>1</voice>
                  <type>eighth</type>
                  <stem>up</stem>
                  <staff>1</staff>
                  <beam number="1">begin</beam>
                  <notations>
                  </notations>
              </note>
              <backup>
                  <duration>120</duration>
              </backup>
              <forward>
                  <duration>120</duration>
              </forward>
              <note>
                  <pitch>
                      <step>C</step>
                      <octave>4</octave>
                  </pitch>
                  <duration>120</duration>
                  <voice>1</voice>
                  <type>eighth</type>
                  <stem>up</stem>
                  <staff>1</staff>
                  <beam number="1">end</beam>
                  <notations>
                  </notations>
              </note>
          </measure>
          <measure  number="4">
              <attributes>
              </attributes>
              <note>
                  <pitch>
                      <step>E</step>
                      <octave>4</octave>
                  </pitch>
                  <duration>240</duration>
                  <voice>1</voice>
                  <type>quarter</type>
                  <stem>up</stem>
                  <staff>1</staff>
                  <notations>
                  </notations>
              </note>
              <note>
                  <pitch>
                      <step>E</step>
                      <octave>4</octave>
                  </pitch>
                  <duration>240</duration>
                  <tie type="start"/>
                  <voice>1</voice>
                  <type>quarter</type>
                  <stem>up</stem>
                  <staff>1</staff>
                  <notations>
                      <tied type="start"/>
                  </notations>
              </note>
          </measure>
          <measure  number="5">
              <attributes>
              </attributes>
              <note>
                  <pitch>
                      <step>E</step>
                      <octave>4</octave>
                  </pitch>
                  <duration>240</duration>
                  <tie type="stop"/>
                  <voice>1</voice>
                  <type>quarter</type>
                  <stem>up</stem>
                  <staff>1</staff>
                  <notations>
                      <tied type="stop"/>
                  </notations>
              </note>
              <note>
                  <pitch>
                      <step>D</step>
                      <octave>4</octave>
                  </pitch>
                  <duration>120</duration>
                  <voice>1</voice>
                  <type>eighth</type>
                  <stem>up</stem>
                  <staff>1</staff>
                  <beam number="1">begin</beam>
                  <notations>
                  </notations>
              </note>
              <backup>
                  <duration>120</duration>
              </backup>
              <forward>
                  <duration>120</duration>
              </forward>
              <note>
                  <pitch>
                      <step>B</step>
                      <octave>3</octave>
                  </pitch>
                  <duration>120</duration>
                  <voice>1</voice>
                  <type>eighth</type>
                  <stem>up</stem>
                  <staff>1</staff>
                  <beam number="1">end</beam>
                  <notations>
                  </notations>
              </note>
          </measure>
          <measure  number="6">
              <attributes>
              </attributes>
              <note>
                  <pitch>
                      <step>D</step>
                      <octave>4</octave>
                  </pitch>
                  <duration>240</duration>
                  <voice>1</voice>
                  <type>quarter</type>
                  <stem>up</stem>
                  <staff>1</staff>
                  <notations>
                  </notations>
              </note>
              <note>
                  <pitch>
                      <step>C</step>
                      <octave>4</octave>
                  </pitch>
                  <duration>120</duration>
                  <voice>1</voice>
                  <type>eighth</type>
                  <stem>up</stem>
                  <staff>1</staff>
                  <beam number="1">begin</beam>
                  <notations>
                  </notations>
              </note>
              <backup>
                  <duration>120</duration>
              </backup>
              <forward>
                  <duration>120</duration>
              </forward>
              <note>
                  <pitch>
                      <step>B</step>
                      <octave>3</octave>
                  </pitch>
                  <duration>120</duration>
                  <voice>1</voice>
                  <type>eighth</type>
                  <stem>up</stem>
                  <staff>1</staff>
                  <beam number="1">end</beam>
                  <notations>
                  </notations>
              </note>
          </measure>
          <measure  number="7">
              <attributes>
              </attributes>
              <note>
                  <pitch>
                      <step>A</step>
                      <octave>3</octave>
                  </pitch>
                  <duration>240</duration>
                  <voice>1</voice>
                  <type>quarter</type>
                  <stem>up</stem>
                  <staff>1</staff>
                  <notations>
                  </notations>
              </note>
              <backup>
                  <duration>139</duration>
              </backup>
              <!--=========== CHORD HERE ==================-->
              <forward>
                  <duration>139</duration>
              </forward>
              <note>
                  <pitch>
                      <step>G</step>
                      <octave>3</octave>
                  </pitch>
                  <duration>120</duration>
                  <voice>1</voice>
                  <type>eighth</type>
                  <stem>up</stem>
                  <staff>1</staff>
                  <beam number="1">begin</beam>
                  <notations>
                  </notations>
              </note>
              <backup>
                  <duration>120</duration>
              </backup>
              <forward>
                  <duration>120</duration>
              </forward>
              <note>
                  <pitch>
                      <step>B</step>
                      <octave>3</octave>
                  </pitch>
                  <duration>120</duration>
                  <voice>1</voice>
                  <type>eighth</type>
                  <stem>up</stem>
                  <staff>1</staff>
                  <beam number="1">end</beam>
                  <notations>
                  </notations>
              </note>
          </measure>
          <measure  number="8">
              <attributes>
              </attributes>
              <note>
                  <pitch>
                      <step>A</step>
                      <octave>3</octave>
                  </pitch>
                  <duration>240</duration>
                  <voice>1</voice>
                  <type>quarter</type>
                  <stem>up</stem>
                  <staff>1</staff>
                  <notations>
                  </notations>
              </note>
              <backup>
                  <duration>128</duration>
              </backup>
              <!--=========== CHORD HERE ==================-->
              <forward>
                  <duration>128</duration>
              </forward>
              <note>
                  <pitch>
                      <step>A</step>
                      <octave>3</octave>
                  </pitch>
                  <duration>240</duration>
                  <tie type="start"/>
                  <voice>1</voice>
                  <type>quarter</type>
                  <stem>up</stem>
                  <staff>1</staff>
                  <notations>
                      <tied type="start"/>
                  </notations>
              </note>
          </measure>
          <measure  number="9">
              <attributes>
              </attributes>
              <note>
                  <pitch>
                      <step>A</step>
                      <octave>3</octave>
                  </pitch>
                  <duration>240</duration>
                  <tie type="stop"/>
                  <voice>1</voice>
                  <type>quarter</type>
                  <stem>up</stem>
                  <staff>1</staff>
                  <notations>
                      <tied type="stop"/>
                  </notations>
              </note>
              <note>
                  <pitch>
                      <step>A</step>
                      <octave>3</octave>
                  </pitch>
                  <duration>120</duration>
                  <voice>1</voice>
                  <type>eighth</type>
                  <stem>up</stem>
                  <staff>1</staff>
                  <beam number="1">begin</beam>
                  <notations>
                  </notations>
              </note>
              <backup>
                  <duration>120</duration>
              </backup>
              <forward>
                  <duration>120</duration>
              </forward>
              <note>
                  <pitch>
                      <step>A</step>
                      <octave>3</octave>
                  </pitch>
                  <duration>120</duration>
                  <voice>1</voice>
                  <type>eighth</type>
                  <stem>up</stem>
                  <staff>1</staff>
                  <beam number="1">end</beam>
                  <notations>
                  </notations>
              </note>
          </measure>
          <measure  number="10">
              <attributes>
              </attributes>
              <note>
                  <pitch>
                      <step>A</step>
                      <octave>3</octave>
                  </pitch>
                  <duration>240</duration>
                  <voice>1</voice>
                  <type>quarter</type>
                  <stem>up</stem>
                  <staff>1</staff>
                  <notations>
                  </notations>
              </note>
              <note>
                  <pitch>
                      <step>B</step>
                      <octave>3</octave>
                  </pitch>
                  <duration>120</duration>
                  <voice>1</voice>
                  <type>eighth</type>
                  <stem>up</stem>
                  <staff>1</staff>
                  <beam number="1">begin</beam>
                  <notations>
                  </notations>
              </note>
              <backup>
                  <duration>120</duration>
              </backup>
              <forward>
                  <duration>120</duration>
              </forward>
              <note>
                  <pitch>
                      <step>D</step>
                      <octave>4</octave>
                  </pitch>
                  <duration>120</duration>
                  <voice>1</voice>
                  <type>eighth</type>
                  <stem>up</stem>
                  <staff>1</staff>
                  <beam number="1">end</beam>
                  <notations>
                  </notations>
              </note>
          </measure>
          <measure  number="11">
              <attributes>
              </attributes>
              <note>
                  <pitch>
                      <step>C</step>
                      <alter>1</alter>
                      <octave>4</octave>
                  </pitch>
                  <duration>240</duration>
                  <voice>1</voice>
                  <type>quarter</type>
                  <accidental cautionary="no">sharp</accidental>
                  <stem>up</stem>
                  <staff>1</staff>
                  <notations>
                  </notations>
              </note>
              <backup>
                  <duration>139</duration>
              </backup>
              <!--=========== CHORD HERE ==================-->
              <forward>
                  <duration>139</duration>
              </forward>
              <note>
                  <pitch>
                      <step>D</step>
                      <octave>4</octave>
                  </pitch>
                  <duration>120</duration>
                  <voice>1</voice>
                  <type>eighth</type>
                  <stem>up</stem>
                  <staff>1</staff>
                  <beam number="1">begin</beam>
                  <notations>
                  </notations>
              </note>
              <backup>
                  <duration>120</duration>
              </backup>
              <forward>
                  <duration>120</duration>
              </forward>
              <note>
                  <pitch>
                      <step>E</step>
                      <octave>4</octave>
                  </pitch>
                  <duration>120</duration>
                  <voice>1</voice>
                  <type>eighth</type>
                  <stem>up</stem>
                  <staff>1</staff>
                  <beam number="1">end</beam>
                  <notations>
                  </notations>
              </note>
          </measure>
          <measure  number="12">
              <attributes>
              </attributes>
              <note>
                  <pitch>
                      <step>G</step>
                      <octave>4</octave>
                  </pitch>
                  <duration>240</duration>
                  <voice>1</voice>
                  <type>quarter</type>
                  <stem>up</stem>
                  <staff>1</staff>
                  <notations>
                  </notations>
              </note>
              <backup>
                  <duration>138</duration>
              </backup>
              <!--=========== CHORD HERE ==================-->
              <forward>
                  <duration>138</duration>
              </forward>
              <note>
                  <pitch>
                      <step>F</step>
                      <octave>4</octave>
                  </pitch>
                  <duration>240</duration>
                  <voice>1</voice>
                  <type>quarter</type>
                  <stem>up</stem>
                  <staff>1</staff>
                  <notations>
                  </notations>
              </note>
          </measure>
          <measure  number="13">
              <attributes>
              </attributes>
              <note>
                  <rest/>
                  <duration>240</duration>
                  <voice>1</voice>
                  <type>quarter</type>
                  <staff>1</staff>
              </note>
              <note>
                  <pitch>
                      <step>F</step>
                      <octave>4</octave>
                  </pitch>
                  <duration>120</duration>
                  <voice>1</voice>
                  <type>eighth</type>
                  <stem>up</stem>
                  <staff>1</staff>
                  <beam number="1">begin</beam>
                  <notations>
                  </notations>
              </note>
              <backup>
                  <duration>120</duration>
              </backup>
              <forward>
                  <duration>120</duration>
              </forward>
              <note>
                  <pitch>
                      <step>E</step>
                      <octave>4</octave>
                  </pitch>
                  <duration>120</duration>
                  <voice>1</voice>
                  <type>eighth</type>
                  <stem>up</stem>
                  <staff>1</staff>
                  <beam number="1">end</beam>
                  <notations>
                  </notations>
              </note>
          </measure>
          <measure  number="14">
              <attributes>
              </attributes>
              <note>
                  <pitch>
                      <step>G</step>
                      <octave>4</octave>
                  </pitch>
                  <duration>240</duration>
                  <voice>1</voice>
                  <type>quarter</type>
                  <stem>up</stem>
                  <staff>1</staff>
                  <notations>
                  </notations>
              </note>
              <backup>
                  <duration>133</duration>
              </backup>
              <!--=========== CHORD HERE ==================-->
              <forward>
                  <duration>133</duration>
              </forward>
              <note>
                  <pitch>
                      <step>F</step>
                      <octave>4</octave>
                  </pitch>
                  <duration>120</duration>
                  <voice>1</voice>
                  <type>eighth</type>
                  <stem>up</stem>
                  <staff>1</staff>
                  <beam number="1">begin</beam>
                  <notations>
                  </notations>
              </note>
              <backup>
                  <duration>120</duration>
              </backup>
              <forward>
                  <duration>120</duration>
              </forward>
              <note>
                  <pitch>
                      <step>D</step>
                      <octave>4</octave>
                  </pitch>
                  <duration>120</duration>
                  <voice>1</voice>
                  <type>eighth</type>
                  <stem>up</stem>
                  <staff>1</staff>
                  <beam number="1">end</beam>
                  <notations>
                  </notations>
              </note>
          </measure>
          <measure  number="15">
              <attributes>
              </attributes>
              <note>
                  <pitch>
                      <step>B</step>
                      <octave>3</octave>
                  </pitch>
                  <duration>240</duration>
                  <voice>1</voice>
                  <type>quarter</type>
                  <stem>up</stem>
                  <staff>1</staff>
                  <notations>
                  </notations>
              </note>
              <note>
                  <pitch>
                      <step>A</step>
                      <octave>3</octave>
                  </pitch>
                  <duration>120</duration>
                  <voice>1</voice>
                  <type>eighth</type>
                  <stem>up</stem>
                  <staff>1</staff>
                  <beam number="1">begin</beam>
                  <notations>
                  </notations>
              </note>
              <backup>
                  <duration>120</duration>
              </backup>
              <forward>
                  <duration>120</duration>
              </forward>
              <note>
                  <pitch>
                      <step>G</step>
                      <octave>3</octave>
                  </pitch>
                  <duration>120</duration>
                  <voice>1</voice>
                  <type>eighth</type>
                  <stem>up</stem>
                  <staff>1</staff>
                  <beam number="1">end</beam>
                  <notations>
                  </notations>
              </note>
          </measure>
          <measure  number="16">
              <attributes>
              </attributes>
              <note>
                  <pitch>
                      <step>E</step>
                      <octave>4</octave>
                  </pitch>
                  <duration>240</duration>
                  <voice>1</voice>
                  <type>quarter</type>
                  <stem>up</stem>
                  <staff>1</staff>
                  <notations>
                  </notations>
              </note>
              <backup>
                  <duration>139</duration>
              </backup>
              <!--=========== CHORD HERE ==================-->
              <forward>
                  <duration>139</duration>
              </forward>
              <note>
                  <pitch>
                      <step>E</step>
                      <octave>4</octave>
                  </pitch>
                  <duration>240</duration>
                  <voice>1</voice>
                  <type>quarter</type>
                  <stem>up</stem>
                  <staff>1</staff>
                  <notations>
                  </notations>
              </note>
          </measure>
          <measure  number="17">
              <attributes>
              </attributes>
              <note>
                  <rest/>
                  <duration>240</duration>
                  <voice>1</voice>
                  <type>quarter</type>
                  <staff>1</staff>
              </note>
              <backup>
                  <duration>123</duration>
              </backup>
              <!--=========== CHORD HERE ==================-->
              <forward>
                  <duration>123</duration>
              </forward>
              <note>
                  <pitch>
                      <step>G</step>
                      <octave>4</octave>
                  </pitch>
                  <duration>120</duration>
                  <voice>1</voice>
                  <type>eighth</type>
                  <stem>up</stem>
                  <staff>1</staff>
                  <beam number="1">begin</beam>
                  <notations>
                  </notations>
              </note>
              <backup>
                  <duration>120</duration>
              </backup>
              <forward>
                  <duration>120</duration>
              </forward>
              <note>
                  <pitch>
                      <step>G</step>
                      <octave>4</octave>
                  </pitch>
                  <duration>120</duration>
                  <voice>1</voice>
                  <type>eighth</type>
                  <stem>up</stem>
                  <staff>1</staff>
                  <beam number="1">end</beam>
                  <notations>
                  </notations>
              </note>
          </measure>
          <measure  number="18">
              <attributes>
              </attributes>
              <note>
                  <pitch>
                      <step>G</step>
                      <octave>4</octave>
                  </pitch>
                  <duration>240</duration>
                  <voice>1</voice>
                  <type>quarter</type>
                  <stem>up</stem>
                  <staff>1</staff>
                  <notations>
                  </notations>
              </note>
              <backup>
                  <duration>143</duration>
              </backup>
              <!--=========== CHORD HERE ==================-->
              <forward>
                  <duration>143</duration>
              </forward>
              <note>
                  <pitch>
                      <step>F</step>
                      <octave>4</octave>
                  </pitch>
                  <duration>120</duration>
                  <voice>1</voice>
                  <type>eighth</type>
                  <stem>up</stem>
                  <staff>1</staff>
                  <beam number="1">begin</beam>
                  <notations>
                  </notations>
              </note>
              <backup>
                  <duration>120</duration>
              </backup>
              <forward>
                  <duration>120</duration>
              </forward>
              <note>
                  <pitch>
                      <step>E</step>
                      <octave>4</octave>
                  </pitch>
                  <duration>120</duration>
                  <voice>1</voice>
                  <type>eighth</type>
                  <stem>up</stem>
                  <staff>1</staff>
                  <beam number="1">end</beam>
                  <notations>
                  </notations>
              </note>
          </measure>
          <measure  number="19">
              <attributes>
              </attributes>
              <note>
                  <pitch>
                      <step>E</step>
                      <octave>4</octave>
                  </pitch>
                  <duration>240</duration>
                  <voice>1</voice>
                  <type>quarter</type>
                  <stem>up</stem>
                  <staff>1</staff>
                  <notations>
                  </notations>
              </note>
              <note>
                  <pitch>
                      <step>C</step>
                      <octave>4</octave>
                  </pitch>
                  <duration>120</duration>
                  <voice>1</voice>
                  <type>eighth</type>
                  <stem>up</stem>
                  <staff>1</staff>
                  <beam number="1">begin</beam>
                  <notations>
                  </notations>
              </note>
              <backup>
                  <duration>120</duration>
              </backup>
              <forward>
                  <duration>120</duration>
              </forward>
              <note>
                  <pitch>
                      <step>E</step>
                      <octave>4</octave>
                  </pitch>
                  <duration>120</duration>
                  <voice>1</voice>
                  <type>eighth</type>
                  <stem>up</stem>
                  <staff>1</staff>
                  <beam number="1">end</beam>
                  <notations>
                  </notations>
              </note>
          </measure>
          <measure  number="20">
              <attributes>
              </attributes>
              <note>
                  <pitch>
                      <step>D</step>
                      <octave>4</octave>
                  </pitch>
                  <duration>240</duration>
                  <voice>1</voice>
                  <type>quarter</type>
                  <stem>up</stem>
                  <staff>1</staff>
                  <notations>
                  </notations>
              </note>
              <backup>
                  <duration>123</duration>
              </backup>
              <!--=========== CHORD HERE ==================-->
              <forward>
                  <duration>123</duration>
              </forward>
              <note>
                  <pitch>
                      <step>D</step>
                      <octave>4</octave>
                  </pitch>
                  <duration>240</duration>
                  <tie type="start"/>
                  <voice>1</voice>
                  <type>quarter</type>
                  <stem>up</stem>
                  <staff>1</staff>
                  <notations>
                      <tied type="start"/>
                  </notations>
              </note>
          </measure>
          <measure  number="21">
              <attributes>
              </attributes>
              <note>
                  <pitch>
                      <step>D</step>
                      <octave>4</octave>
                  </pitch>
                  <duration>240</duration>
                  <tie type="stop"/>
                  <voice>1</voice>
                  <type>quarter</type>
                  <stem>up</stem>
                  <staff>1</staff>
                  <notations>
                      <tied type="stop"/>
                  </notations>
              </note>
              <note>
                  <pitch>
                      <step>G</step>
                      <octave>4</octave>
                  </pitch>
                  <duration>120</duration>
                  <voice>1</voice>
                  <type>eighth</type>
                  <stem>up</stem>
                  <staff>1</staff>
                  <beam number="1">begin</beam>
                  <notations>
                  </notations>
              </note>
              <backup>
                  <duration>120</duration>
              </backup>
              <forward>
                  <duration>120</duration>
              </forward>
              <note>
                  <pitch>
                      <step>G</step>
                      <octave>4</octave>
                  </pitch>
                  <duration>120</duration>
                  <voice>1</voice>
                  <type>eighth</type>
                  <stem>up</stem>
                  <staff>1</staff>
                  <beam number="1">end</beam>
                  <notations>
                  </notations>
              </note>
          </measure>
          <measure  number="22">
              <attributes>
              </attributes>
              <note>
                  <pitch>
                      <step>G</step>
                      <octave>4</octave>
                  </pitch>
                  <duration>240</duration>
                  <voice>1</voice>
                  <type>quarter</type>
                  <stem>up</stem>
                  <staff>1</staff>
                  <notations>
                  </notations>
              </note>
              <backup>
                  <duration>144</duration>
              </backup>
              <!--=========== CHORD HERE ==================-->
              <forward>
                  <duration>144</duration>
              </forward>
              <note>
                  <pitch>
                      <step>F</step>
                      <octave>4</octave>
                  </pitch>
                  <duration>120</duration>
                  <voice>1</voice>
                  <type>eighth</type>
                  <stem>up</stem>
                  <staff>1</staff>
                  <beam number="1">begin</beam>
                  <notations>
                  </notations>
              </note>
              <backup>
                  <duration>120</duration>
              </backup>
              <forward>
                  <duration>120</duration>
              </forward>
              <note>
                  <pitch>
                      <step>E</step>
                      <octave>4</octave>
                  </pitch>
                  <duration>120</duration>
                  <voice>1</voice>
                  <type>eighth</type>
                  <stem>up</stem>
                  <staff>1</staff>
                  <beam number="1">end</beam>
                  <notations>
                  </notations>
              </note>
          </measure>
          <measure  number="23">
              <attributes>
              </attributes>
              <note>
                  <pitch>
                      <step>E</step>
                      <octave>4</octave>
                  </pitch>
                  <duration>240</duration>
                  <voice>1</voice>
                  <type>quarter</type>
                  <stem>up</stem>
                  <staff>1</staff>
                  <notations>
                  </notations>
              </note>
              <note>
                  <pitch>
                      <step>G</step>
                      <octave>4</octave>
                  </pitch>
                  <duration>120</duration>
                  <voice>1</voice>
                  <type>eighth</type>
                  <stem>up</stem>
                  <staff>1</staff>
                  <beam number="1">begin</beam>
                  <notations>
                  </notations>
              </note>
              <backup>
                  <duration>120</duration>
              </backup>
              <forward>
                  <duration>120</duration>
              </forward>
              <note>
                  <pitch>
                      <step>E</step>
                      <octave>4</octave>
                  </pitch>
                  <duration>120</duration>
                  <voice>1</voice>
                  <type>eighth</type>
                  <stem>up</stem>
                  <staff>1</staff>
                  <beam number="1">end</beam>
                  <notations>
                  </notations>
              </note>
          </measure>
          <measure  number="24">
              <attributes>
              </attributes>
              <note>
                  <pitch>
                      <step>D</step>
                      <octave>4</octave>
                  </pitch>
                  <duration>480</duration>
                  <voice>1</voice>
                  <type>half</type>
                  <stem>up</stem>
                  <staff>1</staff>
                  <notations>
                  </notations>
              </note>
              <backup>
                  <duration>347</duration>
              </backup>
              <!--=========== CHORD HERE ==================-->
          </measure>
          <measure  number="25">
              <attributes>
              </attributes>
              <note>
                  <rest/>
                  <duration>240</duration>
                  <voice>1</voice>
                  <type>quarter</type>
                  <staff>1</staff>
              </note>
              <note>
                  <pitch>
                      <step>A</step>
                      <octave>3</octave>
                  </pitch>
                  <duration>120</duration>
                  <voice>1</voice>
                  <type>eighth</type>
                  <stem>up</stem>
                  <staff>1</staff>
                  <beam number="1">begin</beam>
                  <notations>
                  </notations>
              </note>
              <backup>
                  <duration>120</duration>
              </backup>
              <forward>
                  <duration>120</duration>
              </forward>
              <note>
                  <pitch>
                      <step>B</step>
                      <octave>3</octave>
                  </pitch>
                  <duration>120</duration>
                  <voice>1</voice>
                  <type>eighth</type>
                  <stem>up</stem>
                  <staff>1</staff>
                  <beam number="1">end</beam>
                  <notations>
                  </notations>
              </note>
          </measure>
          <measure  number="26">
              <attributes>
              </attributes>
              <note>
                  <pitch>
                      <step>C</step>
                      <octave>4</octave>
                  </pitch>
                  <duration>240</duration>
                  <voice>1</voice>
                  <type>quarter</type>
                  <stem>up</stem>
                  <staff>1</staff>
                  <notations>
                  </notations>
              </note>
              <note>
                  <pitch>
                      <step>B</step>
                      <octave>3</octave>
                  </pitch>
                  <duration>120</duration>
                  <voice>1</voice>
                  <type>eighth</type>
                  <stem>up</stem>
                  <staff>1</staff>
                  <beam number="1">begin</beam>
                  <notations>
                  </notations>
              </note>
              <backup>
                  <duration>120</duration>
              </backup>
              <forward>
                  <duration>120</duration>
              </forward>
              <note>
                  <pitch>
                      <step>C</step>
                      <octave>4</octave>
                  </pitch>
                  <duration>120</duration>
                  <voice>1</voice>
                  <type>eighth</type>
                  <stem>up</stem>
                  <staff>1</staff>
                  <beam number="1">end</beam>
                  <notations>
                  </notations>
              </note>
          </measure>
          <measure  number="27">
              <attributes>
              </attributes>
              <note>
                  <pitch>
                      <step>D</step>
                      <octave>4</octave>
                  </pitch>
                  <duration>240</duration>
                  <voice>1</voice>
                  <type>quarter</type>
                  <stem>up</stem>
                  <staff>1</staff>
                  <notations>
                  </notations>
              </note>
              <backup>
                  <duration>133</duration>
              </backup>
              <!--=========== CHORD HERE ==================-->
              <forward>
                  <duration>133</duration>
              </forward>
              <note>
                  <pitch>
                      <step>C</step>
                      <octave>4</octave>
                  </pitch>
                  <duration>120</duration>
                  <voice>1</voice>
                  <type>eighth</type>
                  <stem>up</stem>
                  <staff>1</staff>
                  <beam number="1">begin</beam>
                  <notations>
                  </notations>
              </note>
              <backup>
                  <duration>120</duration>
              </backup>
              <forward>
                  <duration>120</duration>
              </forward>
              <note>
                  <pitch>
                      <step>D</step>
                      <octave>4</octave>
                  </pitch>
                  <duration>120</duration>
                  <voice>1</voice>
                  <type>eighth</type>
                  <stem>up</stem>
                  <staff>1</staff>
                  <beam number="1">end</beam>
                  <notations>
                  </notations>
              </note>
          </measure>
          <measure  number="28">
              <attributes>
              </attributes>
              <note>
                  <pitch>
                      <step>E</step>
                      <octave>4</octave>
                  </pitch>
                  <duration>240</duration>
                  <voice>1</voice>
                  <type>quarter</type>
                  <stem>up</stem>
                  <staff>1</staff>
                  <notations>
                  </notations>
              </note>
              <backup>
                  <duration>149</duration>
              </backup>
              <!--=========== CHORD HERE ==================-->
              <forward>
                  <duration>149</duration>
              </forward>
              <note>
                  <pitch>
                      <step>D</step>
                      <alter>1</alter>
                      <octave>4</octave>
                  </pitch>
                  <duration>120</duration>
                  <voice>1</voice>
                  <type>eighth</type>
                  <accidental cautionary="no">sharp</accidental>
                  <stem>up</stem>
                  <staff>1</staff>
                  <beam number="1">begin</beam>
                  <notations>
                  </notations>
              </note>
              <backup>
                  <duration>120</duration>
              </backup>
              <forward>
                  <duration>120</duration>
              </forward>
              <note>
                  <pitch>
                      <step>E</step>
                      <octave>4</octave>
                  </pitch>
                  <duration>120</duration>
                  <voice>1</voice>
                  <type>eighth</type>
                  <stem>up</stem>
                  <staff>1</staff>
                  <beam number="1">end</beam>
                  <notations>
                  </notations>
              </note>
          </measure>
          <measure  number="29">
              <attributes>
              </attributes>
              <note>
                  <pitch>
                      <step>F</step>
                      <octave>4</octave>
                  </pitch>
                  <duration>240</duration>
                  <voice>1</voice>
                  <type>quarter</type>
                  <stem>up</stem>
                  <staff>1</staff>
                  <notations>
                  </notations>
              </note>
              <backup>
                  <duration>133</duration>
              </backup>
              <!--=========== CHORD HERE ==================-->
              <forward>
                  <duration>133</duration>
              </forward>
              <note>
                  <pitch>
                      <step>G</step>
                      <octave>4</octave>
                  </pitch>
                  <duration>120</duration>
                  <voice>1</voice>
                  <type>eighth</type>
                  <stem>up</stem>
                  <staff>1</staff>
                  <beam number="1">begin</beam>
                  <notations>
                  </notations>
              </note>
              <backup>
                  <duration>120</duration>
              </backup>
              <forward>
                  <duration>120</duration>
              </forward>
              <note>
                  <pitch>
                      <step>G</step>
                      <alter>1</alter>
                      <octave>4</octave>
                  </pitch>
                  <duration>120</duration>
                  <voice>1</voice>
                  <type>eighth</type>
                  <accidental cautionary="no">sharp</accidental>
                  <stem>up</stem>
                  <staff>1</staff>
                  <beam number="1">end</beam>
                  <notations>
                  </notations>
              </note>
          </measure>
          <measure  number="30">
              <attributes>
              </attributes>
              <note>
                  <pitch>
                      <step>A</step>
                      <octave>4</octave>
                  </pitch>
                  <duration>240</duration>
                  <voice>1</voice>
                  <type>quarter</type>
                  <stem>up</stem>
                  <staff>1</staff>
                  <notations>
                  </notations>
              </note>
              <backup>
                  <duration>138</duration>
              </backup>
              <!--=========== CHORD HERE ==================-->
              <forward>
                  <duration>138</duration>
              </forward>
              <note>
                  <pitch>
                      <step>A</step>
                      <octave>3</octave>
                  </pitch>
                  <duration>240</duration>
                  <voice>1</voice>
                  <type>quarter</type>
                  <stem>up</stem>
                  <staff>1</staff>
                  <notations>
                  </notations>
              </note>
          </measure>
          <measure  number="31">
              <attributes>
              </attributes>
              <note>
                  <pitch>
                      <step>E</step>
                      <octave>4</octave>
                  </pitch>
                  <duration>240</duration>
                  <voice>1</voice>
                  <type>quarter</type>
                  <stem>up</stem>
                  <staff>1</staff>
                  <notations>
                  </notations>
              </note>
              <backup>
                  <duration>112</duration>
              </backup>
              <!--=========== CHORD HERE ==================-->
              <forward>
                  <duration>112</duration>
              </forward>
              <note>
                  <pitch>
                      <step>E</step>
                      <octave>4</octave>
                  </pitch>
                  <duration>240</duration>
                  <voice>1</voice>
                  <type>quarter</type>
                  <stem>up</stem>
                  <staff>1</staff>
                  <notations>
                  </notations>
              </note>
          </measure>
          <measure  number="32">
              <attributes>
              </attributes>
              <note>
                  <pitch>
                      <step>C</step>
                      <octave>4</octave>
                  </pitch>
                  <duration>480</duration>
                  <tie type="start"/>
                  <voice>1</voice>
                  <type>half</type>
                  <stem>up</stem>
                  <staff>1</staff>
                  <notations>
                      <tied type="start"/>
                  </notations>
              </note>
              <backup>
                  <duration>309</duration>
              </backup>
              <!--=========== CHORD HERE ==================-->
          </measure>
          <measure  number="33">
              <attributes>
              </attributes>
              <note>
                  <pitch>
                      <step>C</step>
                      <octave>4</octave>
                  </pitch>
                  <duration>240</duration>
                  <tie type="stop"/>
                  <voice>1</voice>
                  <type>quarter</type>
                  <stem>up</stem>
                  <staff>1</staff>
                  <notations>
                      <tied type="stop"/>
                  </notations>
              </note>
              <backup>
                  <duration>64</duration>
              </backup>
              <!--=========== CHORD HERE ==================-->
              <forward>
                  <duration>64</duration>
              </forward>
              <note>
                  <rest/>
                  <duration>120</duration>
                  <voice>1</voice>
                  <type>eighth</type>
                  <staff>1</staff>
              </note>
              <note>
                  <pitch>
                      <step>C</step>
                      <octave>4</octave>
                  </pitch>
                  <duration>120</duration>
                  <voice>1</voice>
                  <type>eighth</type>
                  <stem>up</stem>
                  <staff>1</staff>
                  <notations>
                  </notations>
              </note>
          </measure>
          <measure  number="34">
              <barline location="left">
                  <bar-style>heavy-light</bar-style>
                  <repeat direction="forward"/>
              </barline>
              <attributes>
              </attributes>
              <note>
                  <pitch>
                      <step>G</step>
                      <octave>4</octave>
                  </pitch>
                  <duration>240</duration>
                  <voice>1</voice>
                  <type>quarter</type>
                  <stem>up</stem>
                  <staff>1</staff>
                  <notations>
                  </notations>
              </note>
              <backup>
                  <duration>131</duration>
              </backup>
              <!--=========== CHORD HERE ==================-->
              <forward>
                  <duration>131</duration>
              </forward>
              <note>
                  <pitch>
                      <step>F</step>
                      <octave>4</octave>
                  </pitch>
                  <duration>240</duration>
                  <tie type="start"/>
                  <voice>1</voice>
                  <type>quarter</type>
                  <stem>up</stem>
                  <staff>1</staff>
                  <notations>
                      <tied type="start"/>
                  </notations>
              </note>
          </measure>
          <measure  number="35">
              <attributes>
              </attributes>
              <note>
                  <pitch>
                      <step>F</step>
                      <octave>4</octave>
                  </pitch>
                  <duration>120</duration>
                  <tie type="stop"/>
                  <voice>1</voice>
                  <type>eighth</type>
                  <stem>up</stem>
                  <staff>1</staff>
                  <beam number="1">begin</beam>
                  <notations>
                      <tied type="stop"/>
                  </notations>
              </note>
              <note>
                  <pitch>
                      <step>C</step>
                      <octave>4</octave>
                  </pitch>
                  <duration>120</duration>
                  <voice>1</voice>
                  <type>eighth</type>
                  <stem>up</stem>
                  <staff>1</staff>
                  <beam number="1">continue</beam>
                  <notations>
                  </notations>
              </note>
              <note>
                  <pitch>
                      <step>A</step>
                      <octave>3</octave>
                  </pitch>
                  <duration>120</duration>
                  <voice>1</voice>
                  <type>eighth</type>
                  <stem>up</stem>
                  <staff>1</staff>
                  <beam number="1">continue</beam>
                  <notations>
                  </notations>
              </note>
              <direction placement="above">
                  <direction-type>
                      <words justify="left" font-family="unknown font" font-style="normal" font-size="12" font-weight="normal" color="#000000" enclosure="none">Hino do Palmeiras</words>
                  </direction-type>
                  <voice>1</voice>
                  <staff>1</staff>
              </direction>
              <note>
                  <pitch>
                      <step>F</step>
                      <octave>3</octave>
                  </pitch>
                  <duration>120</duration>
                  <voice>1</voice>
                  <type>eighth</type>
                  <stem>up</stem>
                  <staff>1</staff>
                  <beam number="1">end</beam>
                  <notations>
                  </notations>
              </note>
          </measure>
          <measure  number="36">
              <attributes>
              </attributes>
              <note>
                  <pitch>
                      <step>C</step>
                      <octave>4</octave>
                  </pitch>
                  <duration>240</duration>
                  <voice>1</voice>
                  <type>quarter</type>
                  <stem>up</stem>
                  <staff>1</staff>
                  <notations>
                  </notations>
              </note>
              <backup>
                  <duration>128</duration>
              </backup>
              <!--=========== CHORD HERE ==================-->
              <forward>
                  <duration>128</duration>
              </forward>
              <note>
                  <pitch>
                      <step>C</step>
                      <octave>4</octave>
                  </pitch>
                  <duration>240</duration>
                  <voice>1</voice>
                  <type>quarter</type>
                  <stem>up</stem>
                  <staff>1</staff>
                  <notations>
                  </notations>
              </note>
          </measure>
          <measure  number="37">
              <attributes>
              </attributes>
              <note>
                  <rest/>
                  <duration>240</duration>
                  <voice>1</voice>
                  <type>quarter</type>
                  <staff>1</staff>
              </note>
              <backup>
                  <duration>160</duration>
              </backup>
              <!--=========== CHORD HERE ==================-->
              <forward>
                  <duration>160</duration>
              </forward>
              <note>
                  <rest/>
                  <duration>120</duration>
                  <voice>1</voice>
                  <type>eighth</type>
                  <staff>1</staff>
              </note>
              <note>
                  <pitch>
                      <step>C</step>
                      <octave>4</octave>
                  </pitch>
                  <duration>120</duration>
                  <voice>1</voice>
                  <type>eighth</type>
                  <stem>up</stem>
                  <staff>1</staff>
                  <notations>
                  </notations>
              </note>
          </measure>
          <measure  number="38">
              <attributes>
              </attributes>
              <note>
                  <pitch>
                      <step>G</step>
                      <octave>4</octave>
                  </pitch>
                  <duration>240</duration>
                  <voice>1</voice>
                  <type>quarter</type>
                  <stem>up</stem>
                  <staff>1</staff>
                  <notations>
                  </notations>
              </note>
              <backup>
                  <duration>139</duration>
              </backup>
              <!--=========== CHORD HERE ==================-->
              <forward>
                  <duration>139</duration>
              </forward>
              <note>
                  <pitch>
                      <step>F</step>
                      <octave>4</octave>
                  </pitch>
                  <duration>120</duration>
                  <voice>1</voice>
                  <type>eighth</type>
                  <stem>up</stem>
                  <staff>1</staff>
                  <beam number="1">begin</beam>
                  <notations>
                  </notations>
              </note>
              <backup>
                  <duration>120</duration>
              </backup>
              <forward>
                  <duration>120</duration>
              </forward>
              <note>
                  <pitch>
                      <step>G</step>
                      <octave>4</octave>
                  </pitch>
                  <duration>120</duration>
                  <voice>1</voice>
                  <type>eighth</type>
                  <stem>up</stem>
                  <staff>1</staff>
                  <beam number="1">end</beam>
                  <notations>
                  </notations>
              </note>
          </measure>
          <measure  number="39">
              <attributes>
              </attributes>
              <note>
                  <pitch>
                      <step>F</step>
                      <octave>4</octave>
                  </pitch>
                  <duration>120</duration>
                  <voice>1</voice>
                  <type>eighth</type>
                  <stem>up</stem>
                  <staff>1</staff>
                  <beam number="1">begin</beam>
                  <notations>
                  </notations>
              </note>
              <note>
                  <pitch>
                      <step>C</step>
                      <octave>4</octave>
                  </pitch>
                  <duration>120</duration>
                  <voice>1</voice>
                  <type>eighth</type>
                  <stem>up</stem>
                  <staff>1</staff>
                  <beam number="1">continue</beam>
                  <notations>
                  </notations>
              </note>
              <note>
                  <pitch>
                      <step>A</step>
                      <octave>3</octave>
                  </pitch>
                  <duration>120</duration>
                  <voice>1</voice>
                  <type>eighth</type>
                  <stem>up</stem>
                  <staff>1</staff>
                  <beam number="1">continue</beam>
                  <notations>
                  </notations>
              </note>
              <note>
                  <pitch>
                      <step>F</step>
                      <octave>3</octave>
                  </pitch>
                  <duration>120</duration>
                  <voice>1</voice>
                  <type>eighth</type>
                  <stem>up</stem>
                  <staff>1</staff>
                  <beam number="1">end</beam>
                  <notations>
                  </notations>
              </note>
          </measure>
          <measure  number="40">
              <attributes>
              </attributes>
              <note>
                  <pitch>
                      <step>C</step>
                      <octave>4</octave>
                  </pitch>
                  <duration>240</duration>
                  <voice>1</voice>
                  <type>quarter</type>
                  <stem>up</stem>
                  <staff>1</staff>
                  <notations>
                  </notations>
              </note>
              <backup>
                  <duration>123</duration>
              </backup>
              <!--=========== CHORD HERE ==================-->
              <forward>
                  <duration>123</duration>
              </forward>
              <note>
                  <pitch>
                      <step>C</step>
                      <octave>4</octave>
                  </pitch>
                  <duration>240</duration>
                  <voice>1</voice>
                  <type>quarter</type>
                  <stem>up</stem>
                  <staff>1</staff>
                  <notations>
                  </notations>
              </note>
          </measure>
          <measure  number="41">
              <attributes>
              </attributes>
              <note>
                  <rest/>
                  <duration>240</duration>
                  <voice>1</voice>
                  <type>quarter</type>
                  <staff>1</staff>
              </note>
              <note>
                  <rest/>
                  <duration>120</duration>
                  <voice>1</voice>
                  <type>eighth</type>
                  <staff>1</staff>
              </note>
              <note>
                  <pitch>
                      <step>C</step>
                      <octave>4</octave>
                  </pitch>
                  <duration>120</duration>
                  <voice>1</voice>
                  <type>eighth</type>
                  <stem>up</stem>
                  <staff>1</staff>
                  <notations>
                  </notations>
              </note>
          </measure>
          <measure  number="42">
              <attributes>
              </attributes>
              <note>
                  <pitch>
                      <step>A</step>
                      <octave>4</octave>
                  </pitch>
                  <duration>240</duration>
                  <voice>1</voice>
                  <type>quarter</type>
                  <stem>up</stem>
                  <staff>1</staff>
                  <notations>
                  </notations>
              </note>
              <backup>
                  <duration>148</duration>
              </backup>
              <!--=========== CHORD HERE ==================-->
              <forward>
                  <duration>148</duration>
              </forward>
              <note>
                  <pitch>
                      <step>G</step>
                      <alter>1</alter>
                      <octave>4</octave>
                  </pitch>
                  <duration>120</duration>
                  <voice>1</voice>
                  <type>eighth</type>
                  <accidental cautionary="no">sharp</accidental>
                  <stem>up</stem>
                  <staff>1</staff>
                  <beam number="1">begin</beam>
                  <notations>
                  </notations>
              </note>
              <backup>
                  <duration>120</duration>
              </backup>
              <forward>
                  <duration>120</duration>
              </forward>
              <note>
                  <pitch>
                      <step>A</step>
                      <octave>4</octave>
                  </pitch>
                  <duration>120</duration>
                  <voice>1</voice>
                  <type>eighth</type>
                  <stem>up</stem>
                  <staff>1</staff>
                  <beam number="1">end</beam>
                  <notations>
                  </notations>
              </note>
          </measure>
          <measure  number="43">
              <attributes>
              </attributes>
              <note>
                  <pitch>
                      <step>B</step>
                      <alter>-1</alter>
                      <octave>4</octave>
                  </pitch>
                  <duration>240</duration>
                  <voice>1</voice>
                  <type>quarter</type>
                  <accidental cautionary="no">flat</accidental>
                  <stem>down</stem>
                  <staff>1</staff>
                  <notations>
                  </notations>
              </note>
              <note>
                  <pitch>
                      <step>A</step>
                      <octave>4</octave>
                  </pitch>
                  <duration>240</duration>
                  <voice>1</voice>
                  <type>quarter</type>
                  <stem>up</stem>
                  <staff>1</staff>
                  <notations>
                  </notations>
              </note>
          </measure>
          <measure  number="44">
              <barline location="left">
                  <bar-style>light-light</bar-style>
                  <ending type="start" number="1"/>
              </barline>
              <attributes>
              </attributes>
              <note>
                  <pitch>
                      <step>A</step>
                      <octave>4</octave>
                  </pitch>
                  <duration>480</duration>
                  <voice>1</voice>
                  <type>half</type>
                  <stem>up</stem>
                  <staff>1</staff>
                  <notations>
                  </notations>
              </note>
              <backup>
                  <duration>326</duration>
              </backup>
              <!--=========== CHORD HERE ==================-->
          </measure>
          <measure  number="45">
              <attributes>
              </attributes>
              <note>
                  <pitch>
                      <step>G</step>
                      <octave>4</octave>
                  </pitch>
                  <duration>360</duration>
                  <voice>1</voice>
                  <type>quarter</type>
                  <dot/>
                  <stem>up</stem>
                  <staff>1</staff>
                  <notations>
                  </notations>
              </note>
              <backup>
                  <duration>246</duration>
              </backup>
              <!--=========== CHORD HERE ==================-->
              <forward>
                  <duration>246</duration>
              </forward>
              <note>
                  <pitch>
                      <step>C</step>
                      <octave>4</octave>
                  </pitch>
                  <duration>120</duration>
                  <voice>1</voice>
                  <type>eighth</type>
                  <stem>up</stem>
                  <staff>1</staff>
                  <notations>
                  </notations>
              </note>
              <barline location="right">
                  <bar-style>light-heavy</bar-style>
                  <ending type="stop" number="1"/>
                  <repeat direction="backward"/>
              </barline>
          </measure>
          <measure  number="46">
              <barline location="left">
                  <ending type="start" number="2"/>
              </barline>
              <attributes>
              </attributes>
              <note>
                  <pitch>
                      <step>A</step>
                      <octave>4</octave>
                  </pitch>
                  <duration>480</duration>
                  <voice>1</voice>
                  <type>half</type>
                  <stem>up</stem>
                  <staff>1</staff>
                  <notations>
                  </notations>
              </note>
              <backup>
                  <duration>299</duration>
              </backup>
              <!--=========== CHORD HERE ==================-->
              <barline location="right">
                  <ending type="stop" number="2"/>
              </barline>
          </measure>
          <measure  number="47">
              <attributes>
              </attributes>
              <note>
                  <pitch>
                      <step>G</step>
                      <octave>4</octave>
                  </pitch>
                  <duration>360</duration>
                  <voice>1</voice>
                  <type>quarter</type>
                  <dot/>
                  <stem>up</stem>
                  <staff>1</staff>
                  <notations>
                  </notations>
              </note>
              <note>
                  <pitch>
                      <step>C</step>
                      <octave>4</octave>
                  </pitch>
                  <duration>120</duration>
                  <voice>1</voice>
                  <type>eighth</type>
                  <stem>up</stem>
                  <staff>1</staff>
                  <notations>
                  </notations>
              </note>
          </measure>
          <measure  number="48">
              <attributes>
              </attributes>
              <note>
                  <pitch>
                      <step>C</step>
                      <octave>4</octave>
                  </pitch>
                  <duration>240</duration>
                  <voice>1</voice>
                  <type>quarter</type>
                  <stem>up</stem>
                  <staff>1</staff>
                  <notations>
                  </notations>
              </note>
              <backup>
                  <duration>133</duration>
              </backup>
              <!--=========== CHORD HERE ==================-->
              <forward>
                  <duration>133</duration>
              </forward>
              <note>
                  <pitch>
                      <step>C</step>
                      <octave>4</octave>
                  </pitch>
                  <duration>120</duration>
                  <voice>1</voice>
                  <type>eighth</type>
                  <stem>up</stem>
                  <staff>1</staff>
                  <beam number="1">begin</beam>
                  <notations>
                  </notations>
              </note>
              <backup>
                  <duration>120</duration>
              </backup>
              <forward>
                  <duration>120</duration>
              </forward>
              <note>
                  <pitch>
                      <step>D</step>
                      <octave>4</octave>
                  </pitch>
                  <duration>120</duration>
                  <voice>1</voice>
                  <type>eighth</type>
                  <stem>up</stem>
                  <staff>1</staff>
                  <beam number="1">end</beam>
                  <notations>
                  </notations>
              </note>
          </measure>
          <measure  number="49">
              <attributes>
              </attributes>
              <note>
                  <pitch>
                      <step>E</step>
                      <octave>4</octave>
                  </pitch>
                  <duration>240</duration>
                  <voice>1</voice>
                  <type>quarter</type>
                  <stem>up</stem>
                  <staff>1</staff>
                  <notations>
                  </notations>
              </note>
              <note>
                  <pitch>
                      <step>D</step>
                      <octave>4</octave>
                  </pitch>
                  <duration>240</duration>
                  <voice>1</voice>
                  <type>quarter</type>
                  <stem>up</stem>
                  <staff>1</staff>
                  <notations>
                  </notations>
              </note>
          </measure>
          <measure  number="50">
              <attributes>
              </attributes>
              <note>
                  <pitch>
                      <step>C</step>
                      <octave>4</octave>
                  </pitch>
                  <duration>480</duration>
                  <voice>1</voice>
                  <type>half</type>
                  <stem>up</stem>
                  <staff>1</staff>
                  <notations>
                  </notations>
              </note>
              <backup>
                  <duration>331</duration>
              </backup>
              <!--=========== CHORD HERE ==================-->
          </measure>
          <measure  number="51">
              <attributes>
              </attributes>
              <note>
                  <rest/>
                  <duration>240</duration>
                  <voice>1</voice>
                  <type>quarter</type>
                  <staff>1</staff>
              </note>
              <note>
                  <pitch>
                      <step>C</step>
                      <octave>4</octave>
                  </pitch>
                  <duration>240</duration>
                  <voice>1</voice>
                  <type>quarter</type>
                  <stem>up</stem>
                  <staff>1</staff>
                  <notations>
                  </notations>
              </note>
          </measure>
          <measure  number="52">
              <attributes>
              </attributes>
              <note>
                  <pitch>
                      <step>G</step>
                      <octave>4</octave>
                  </pitch>
                  <duration>240</duration>
                  <voice>1</voice>
                  <type>quarter</type>
                  <stem>up</stem>
                  <staff>1</staff>
                  <notations>
                  </notations>
              </note>
              <backup>
                  <duration>139</duration>
              </backup>
              <!--=========== CHORD HERE ==================-->
              <forward>
                  <duration>139</duration>
              </forward>
              <note>
                  <pitch>
                      <step>G</step>
                      <octave>4</octave>
                  </pitch>
                  <duration>240</duration>
                  <tie type="start"/>
                  <voice>1</voice>
                  <type>quarter</type>
                  <stem>up</stem>
                  <staff>1</staff>
                  <notations>
                      <tied type="start"/>
                  </notations>
              </note>
          </measure>
          <measure  number="53">
              <attributes>
              </attributes>
              <note>
                  <pitch>
                      <step>G</step>
                      <octave>4</octave>
                  </pitch>
                  <duration>120</duration>
                  <tie type="stop"/>
                  <voice>1</voice>
                  <type>eighth</type>
                  <stem>up</stem>
                  <staff>1</staff>
                  <beam number="1">begin</beam>
                  <notations>
                      <tied type="stop"/>
                  </notations>
              </note>
              <backup>
                  <duration>24</duration>
              </backup>
              <!--=========== CHORD HERE ==================-->
              <forward>
                  <duration>24</duration>
              </forward>
              <note>
                  <pitch>
                      <step>G</step>
                      <octave>4</octave>
                  </pitch>
                  <duration>120</duration>
                  <voice>1</voice>
                  <type>eighth</type>
                  <stem>up</stem>
                  <staff>1</staff>
                  <beam number="1">continue</beam>
                  <notations>
                  </notations>
              </note>
              <note>
                  <pitch>
                      <step>F</step>
                      <octave>4</octave>
                  </pitch>
                  <duration>120</duration>
                  <voice>1</voice>
                  <type>eighth</type>
                  <stem>up</stem>
                  <staff>1</staff>
                  <beam number="1">continue</beam>
                  <notations>
                  </notations>
              </note>
              <note>
                  <pitch>
                      <step>G</step>
                      <octave>4</octave>
                  </pitch>
                  <duration>120</duration>
                  <voice>1</voice>
                  <type>eighth</type>
                  <stem>up</stem>
                  <staff>1</staff>
                  <beam number="1">end</beam>
                  <notations>
                  </notations>
              </note>
          </measure>
          <measure  number="54">
              <attributes>
              </attributes>
              <note>
                  <pitch>
                      <step>A</step>
                      <octave>4</octave>
                  </pitch>
                  <duration>480</duration>
                  <voice>1</voice>
                  <type>half</type>
                  <stem>up</stem>
                  <staff>1</staff>
                  <notations>
                  </notations>
              </note>
              <backup>
                  <duration>357</duration>
              </backup>
              <!--=========== CHORD HERE ==================-->
          </measure>
          <measure  number="55">
              <attributes>
              </attributes>
              <note>
                  <pitch>
                      <step>F</step>
                      <octave>4</octave>
                  </pitch>
                  <duration>240</duration>
                  <voice>1</voice>
                  <type>quarter</type>
                  <stem>up</stem>
                  <staff>1</staff>
                  <notations>
                  </notations>
              </note>
              <note>
                  <pitch>
                      <step>C</step>
                      <octave>4</octave>
                  </pitch>
                  <duration>120</duration>
                  <voice>1</voice>
                  <type>eighth</type>
                  <stem>up</stem>
                  <staff>1</staff>
                  <beam number="1">begin</beam>
                  <notations>
                  </notations>
              </note>
              <backup>
                  <duration>120</duration>
              </backup>
              <forward>
                  <duration>120</duration>
              </forward>
              <note>
                  <pitch>
                      <step>C</step>
                      <octave>4</octave>
                  </pitch>
                  <duration>120</duration>
                  <voice>1</voice>
                  <type>eighth</type>
                  <stem>up</stem>
                  <staff>1</staff>
                  <beam number="1">end</beam>
                  <notations>
                  </notations>
              </note>
          </measure>
          <measure  number="56">
              <attributes>
              </attributes>
              <note>
                  <pitch>
                      <step>D</step>
                      <octave>4</octave>
                  </pitch>
                  <duration>240</duration>
                  <voice>1</voice>
                  <type>quarter</type>
                  <stem>up</stem>
                  <staff>1</staff>
                  <notations>
                  </notations>
              </note>
              <backup>
                  <duration>120</duration>
              </backup>
              <!--=========== CHORD HERE ==================-->
              <forward>
                  <duration>120</duration>
              </forward>
              <direction placement="below">
                  <direction-type>
                      <words justify="left" font-family="unknown font" font-style="normal" font-size="12" font-weight="normal" color="#000000" enclosure="none">deborah.h.bizuti@uol.com.br</words>
                  </direction-type>
                  <voice>1</voice>
                  <staff>1</staff>
              </direction>
              <note>
                  <pitch>
                      <step>D</step>
                      <octave>4</octave>
                  </pitch>
                  <duration>240</duration>
                  <voice>1</voice>
                  <type>quarter</type>
                  <stem>up</stem>
                  <staff>1</staff>
                  <notations>
                  </notations>
              </note>
          </measure>
          <measure  number="57">
              <attributes>
              </attributes>
              <note>
                  <pitch>
                      <step>E</step>
                      <octave>4</octave>
                  </pitch>
                  <duration>240</duration>
                  <voice>1</voice>
                  <type>quarter</type>
                  <stem>up</stem>
                  <staff>1</staff>
                  <notations>
                  </notations>
              </note>
              <backup>
                  <duration>129</duration>
              </backup>
              <!--=========== CHORD HERE ==================-->
              <forward>
                  <duration>129</duration>
              </forward>
              <note>
                  <pitch>
                      <step>E</step>
                      <octave>4</octave>
                  </pitch>
                  <duration>240</duration>
                  <voice>1</voice>
                  <type>quarter</type>
                  <stem>up</stem>
                  <staff>1</staff>
                  <notations>
                  </notations>
              </note>
          </measure>
          <measure  number="58">
              <attributes>
              </attributes>
              <note>
                  <pitch>
                      <step>F</step>
                      <octave>4</octave>
                  </pitch>
                  <duration>480</duration>
                  <voice>1</voice>
                  <type>half</type>
                  <stem>up</stem>
                  <staff>1</staff>
                  <notations>
                  </notations>
              </note>
              <backup>
                  <duration>356</duration>
              </backup>
              <!--=========== CHORD HERE ==================-->
          </measure>
          <measure  number="59">
              <attributes>
              </attributes>
              <note>
                  <rest/>
                  <duration>240</duration>
                  <voice>1</voice>
                  <type>quarter</type>
                  <staff>1</staff>
              </note>
              <backup>
                  <duration>145</duration>
              </backup>
              <!--=========== CHORD HERE ==================-->
              <forward>
                  <duration>145</duration>
              </forward>
              <note>
                  <pitch>
                      <step>G</step>
                      <octave>3</octave>
                  </pitch>
                  <duration>120</duration>
                  <voice>1</voice>
                  <type>eighth</type>
                  <stem>up</stem>
                  <staff>1</staff>
                  <beam number="1">begin</beam>
                  <notations>
                  </notations>
              </note>
              <backup>
                  <duration>120</duration>
              </backup>
              <forward>
                  <duration>120</duration>
              </forward>
              <note>
                  <pitch>
                      <step>G</step>
                      <octave>3</octave>
                  </pitch>
                  <duration>120</duration>
                  <voice>1</voice>
                  <type>eighth</type>
                  <stem>up</stem>
                  <staff>1</staff>
                  <beam number="1">end</beam>
                  <notations>
                  </notations>
              </note>
              <barline location="right">
                  <bar-style>light-light</bar-style>
              </barline>
          </measure>
      </part>
  </score-partwise>
