<?xml version="1.0" encoding="UTF-8"?>
<!DOCTYPE score-partwise PUBLIC "-//Recordare//DTD MusicXML 3.0 Partwise//EN" "http://www.musicxml.org/dtds/partwise.dtd">
<score-partwise version="3.0">
  <movement-title>Quem queritis</movement-title>
      <identification>
          <encoding>
              <software>Encore</software>
          </encoding>
      </identification>
      <defaults>
          <scaling>
              <millimeters>6.35</millimeters>
              <tenths>40</tenths>
          </scaling>
      </defaults>
      <part-list>
          <score-part id="P1">
              <part-name></part-name>
              <score-instrument id="P1-I2">
                  <instrument-name>NONE</instrument-name>
              </score-instrument>
              <midi-instrument id="P1-I2">
                  <midi-channel>1</midi-channel>
              </midi-instrument>
          </score-part>
      </part-list>
      <!--=========================================================-->
      <part id="P1">
          <measure  number="1">
              <attributes>
                  <divisions>240</divisions>
                  <key>
                      <fifths>0</fifths>
                  </key>
                  <time>
                      <beats>3</beats>
                      <beat-type>4</beat-type>
                  </time>
                  <staves>1</staves>
                  <clef number="1">
                      <sign>G</sign>
                      <line>2</line>
                  </clef>
                  <transpose>
                      <chromatic>0</chromatic>
                  </transpose>
              </attributes>
              <note>
                  <rest/>
                  <duration>360</duration>
                  <voice>1</voice>
                  <type>quarter</type>
                  <staff>1</staff>
              </note>
              <backup>
                  <duration>4</duration>
              </backup>
              <note>
                  <pitch>
                      <step>A</step>
                      <octave>4</octave>
                  </pitch>
                  <duration>120</duration>
                  <voice>1</voice>
                  <type>eighth</type>
                  <stem>up</stem>
                  <staff>1</staff>
                  <notations>
                  </notations>
              </note>
              <backup>
                  <duration>4</duration>
              </backup>
              <note>
                  <pitch>
                      <step>C</step>
                      <octave>5</octave>
                  </pitch>
                  <duration>120</duration>
                  <voice>1</voice>
                  <type>eighth</type>
                  <stem>down</stem>
                  <staff>1</staff>
                  <beam number="1">begin</beam>
                  <notations>
                  </notations>
              </note>
              <backup>
                  <duration>120</duration>
              </backup>
              <forward>
                  <duration>116</duration>
              </forward>
              <note>
                  <pitch>
                      <step>B</step>
                      <octave>4</octave>
                  </pitch>
                  <duration>120</duration>
                  <voice>1</voice>
                  <type>eighth</type>
                  <stem>down</stem>
                  <staff>1</staff>
                  <beam number="1">end</beam>
                  <notations>
                  </notations>
              </note>
          </measure>
          <measure  number="2">
              <attributes>
              </attributes>
              <note>
                  <pitch>
                      <step>E</step>
                      <octave>4</octave>
                  </pitch>
                  <duration>360</duration>
                  <voice>1</voice>
                  <type>quarter</type>
                  <dot/>
                  <stem>up</stem>
                  <staff>1</staff>
                  <notations>
                  </notations>
              </note>
              <backup>
                  <duration>249</duration>
              </backup>
              <!--=========== CHORD HERE ==================-->
              <forward>
                  <duration>246</duration>
              </forward>
              <note>
                  <pitch>
                      <step>E</step>
                      <octave>4</octave>
                  </pitch>
                  <duration>120</duration>
                  <voice>1</voice>
                  <type>eighth</type>
                  <stem>up</stem>
                  <staff>1</staff>
                  <notations>
                  </notations>
              </note>
              <forward>
                  <duration>4</duration>
              </forward>
              <note>
                  <pitch>
                      <step>G</step>
                      <octave>4</octave>
                  </pitch>
                  <duration>120</duration>
                  <voice>1</voice>
                  <type>eighth</type>
                  <stem>up</stem>
                  <staff>1</staff>
                  <beam number="1">begin</beam>
                  <notations>
                  </notations>
              </note>
              <backup>
                  <duration>120</duration>
              </backup>
              <forward>
                  <duration>109</duration>
              </forward>
              <note>
                  <pitch>
                      <step>E</step>
                      <octave>4</octave>
                  </pitch>
                  <duration>120</duration>
                  <voice>1</voice>
                  <type>eighth</type>
                  <stem>up</stem>
                  <staff>1</staff>
                  <beam number="1">end</beam>
                  <notations>
                  </notations>
              </note>
          </measure>
          <measure  number="3">
              <attributes>
              </attributes>
              <note>
                  <pitch>
                      <step>A</step>
                      <octave>4</octave>
                  </pitch>
                  <duration>360</duration>
                  <voice>1</voice>
                  <type>quarter</type>
                  <dot/>
                  <stem>up</stem>
                  <staff>1</staff>
                  <notations>
                  </notations>
              </note>
              <backup>
                  <duration>260</duration>
              </backup>
              <!--=========== CHORD HERE ==================-->
              <forward>
                  <duration>260</duration>
              </forward>
              <note>
                  <pitch>
                      <step>A</step>
                      <octave>4</octave>
                  </pitch>
                  <duration>120</duration>
                  <voice>1</voice>
                  <type>eighth</type>
                  <stem>up</stem>
                  <staff>1</staff>
                  <notations>
                  </notations>
              </note>
              <forward>
                  <duration>3</duration>
              </forward>
              <note>
                  <pitch>
                      <step>G</step>
                      <octave>4</octave>
                  </pitch>
                  <duration>120</duration>
                  <voice>1</voice>
                  <type>eighth</type>
                  <stem>up</stem>
                  <staff>1</staff>
                  <beam number="1">begin</beam>
                  <notations>
                  </notations>
              </note>
              <backup>
                  <duration>120</duration>
              </backup>
              <forward>
                  <duration>118</duration>
              </forward>
              <note>
                  <pitch>
                      <step>F</step>
                      <octave>4</octave>
                  </pitch>
                  <duration>120</duration>
                  <voice>1</voice>
                  <type>eighth</type>
                  <stem>up</stem>
                  <staff>1</staff>
                  <beam number="1">end</beam>
                  <notations>
                  </notations>
              </note>
          </measure>
          <measure  number="4">
              <attributes>
              </attributes>
              <forward>
                  <duration>4</duration>
              </forward>
              <note>
                  <pitch>
                      <step>G</step>
                      <octave>4</octave>
                  </pitch>
                  <duration>360</duration>
                  <voice>1</voice>
                  <type>quarter</type>
                  <dot/>
                  <stem>up</stem>
                  <staff>1</staff>
                  <notations>
                  </notations>
              </note>
              <backup>
                  <duration>261</duration>
              </backup>
              <!--=========== CHORD HERE ==================-->
              <forward>
                  <duration>255</duration>
              </forward>
              <note>
                  <pitch>
                      <step>G</step>
                      <octave>4</octave>
                  </pitch>
                  <duration>120</duration>
                  <voice>1</voice>
                  <type>eighth</type>
                  <stem>up</stem>
                  <staff>1</staff>
                  <notations>
                  </notations>
              </note>
              <forward>
                  <duration>1</duration>
              </forward>
              <note>
                  <pitch>
                      <step>F</step>
                      <octave>4</octave>
                  </pitch>
                  <duration>120</duration>
                  <voice>1</voice>
                  <type>eighth</type>
                  <stem>up</stem>
                  <staff>1</staff>
                  <beam number="1">begin</beam>
                  <notations>
                  </notations>
              </note>
              <backup>
                  <duration>120</duration>
              </backup>
              <forward>
                  <duration>101</duration>
              </forward>
              <note>
                  <pitch>
                      <step>E</step>
                      <octave>4</octave>
                  </pitch>
                  <duration>120</duration>
                  <voice>1</voice>
                  <type>eighth</type>
                  <stem>up</stem>
                  <staff>1</staff>
                  <beam number="1">end</beam>
                  <notations>
                  </notations>
              </note>
          </measure>
          <measure  number="5">
              <attributes>
              </attributes>
              <note>
                  <pitch>
                      <step>D</step>
                      <octave>4</octave>
                  </pitch>
                  <duration>360</duration>
                  <voice>1</voice>
                  <type>quarter</type>
                  <dot/>
                  <stem>up</stem>
                  <staff>1</staff>
                  <notations>
                  </notations>
              </note>
              <backup>
                  <duration>253</duration>
              </backup>
              <!--=========== CHORD HERE ==================-->
              <forward>
                  <duration>253</duration>
              </forward>
              <note>
                  <pitch>
                      <step>E</step>
                      <octave>4</octave>
                  </pitch>
                  <duration>60</duration>
                  <voice>1</voice>
                  <type>16th</type>
                  <stem>up</stem>
                  <staff>1</staff>
                  <notations>
                  </notations>
              </note>
              <note>
                  <pitch>
                      <step>D</step>
                      <octave>4</octave>
                  </pitch>
                  <duration>60</duration>
                  <voice>1</voice>
                  <type>16th</type>
                  <stem>up</stem>
                  <staff>1</staff>
                  <notations>
                  </notations>
              </note>
              <backup>
                  <duration>30</duration>
              </backup>
              <note>
                  <pitch>
                      <step>C</step>
                      <octave>4</octave>
                  </pitch>
                  <duration>80</duration>
                  <voice>1</voice>
                  <type>eighth</type>
                  <time-modification>
                      <actual-notes>3</actual-notes>
                      <normal-notes>2</normal-notes>
                  </time-modification>
                  <stem>up</stem>
                  <staff>1</staff>
                  <notations>
                  </notations>
              </note>
              <forward>
                  <duration>49</duration>
              </forward>
              <note>
                  <pitch>
                      <step>D</step>
                      <octave>4</octave>
                  </pitch>
                  <duration>160</duration>
                  <voice>1</voice>
                  <type>quarter</type>
                  <time-modification>
                      <actual-notes>3</actual-notes>
                      <normal-notes>2</normal-notes>
                  </time-modification>
                  <stem>up</stem>
                  <staff>1</staff>
                  <notations>
                  </notations>
              </note>
          </measure>
          <measure  number="6">
              <attributes>
              </attributes>
              <note>
                  <pitch>
                      <step>E</step>
                      <octave>4</octave>
                  </pitch>
                  <duration>360</duration>
                  <voice>1</voice>
                  <type>quarter</type>
                  <dot/>
                  <stem>up</stem>
                  <staff>1</staff>
                  <notations>
                  </notations>
              </note>
              <backup>
                  <duration>264</duration>
              </backup>
              <!--=========== CHORD HERE ==================-->
              <forward>
                  <duration>260</duration>
              </forward>
              <note>
                  <pitch>
                      <step>A</step>
                      <octave>4</octave>
                  </pitch>
                  <duration>120</duration>
                  <voice>1</voice>
                  <type>eighth</type>
                  <stem>up</stem>
                  <staff>1</staff>
                  <notations>
                  </notations>
              </note>
              <forward>
                  <duration>9</duration>
              </forward>
              <note>
                  <pitch>
                      <step>C</step>
                      <octave>5</octave>
                  </pitch>
                  <duration>120</duration>
                  <voice>1</voice>
                  <type>eighth</type>
                  <stem>down</stem>
                  <staff>1</staff>
                  <beam number="1">begin</beam>
                  <notations>
                  </notations>
              </note>
              <backup>
                  <duration>120</duration>
              </backup>
              <forward>
                  <duration>112</duration>
              </forward>
              <note>
                  <pitch>
                      <step>B</step>
                      <octave>4</octave>
                  </pitch>
                  <duration>120</duration>
                  <voice>1</voice>
                  <type>eighth</type>
                  <stem>down</stem>
                  <staff>1</staff>
                  <beam number="1">end</beam>
                  <notations>
                  </notations>
              </note>
          </measure>
          <measure  number="7">
              <attributes>
              </attributes>
              <note>
                  <pitch>
                      <step>E</step>
                      <octave>4</octave>
                  </pitch>
                  <duration>360</duration>
                  <voice>1</voice>
                  <type>quarter</type>
                  <dot/>
                  <stem>up</stem>
                  <staff>1</staff>
                  <notations>
                  </notations>
              </note>
              <backup>
                  <duration>248</duration>
              </backup>
              <!--=========== CHORD HERE ==================-->
              <forward>
                  <duration>243</duration>
              </forward>
              <note>
                  <pitch>
                      <step>E</step>
                      <octave>4</octave>
                  </pitch>
                  <duration>120</duration>
                  <voice>1</voice>
                  <type>eighth</type>
                  <stem>up</stem>
                  <staff>1</staff>
                  <notations>
                  </notations>
              </note>
              <forward>
                  <duration>4</duration>
              </forward>
              <note>
                  <pitch>
                      <step>G</step>
                      <octave>4</octave>
                  </pitch>
                  <duration>120</duration>
                  <voice>1</voice>
                  <type>eighth</type>
                  <stem>up</stem>
                  <staff>1</staff>
                  <beam number="1">begin</beam>
                  <notations>
                  </notations>
              </note>
              <backup>
                  <duration>120</duration>
              </backup>
              <forward>
                  <duration>105</duration>
              </forward>
              <note>
                  <pitch>
                      <step>E</step>
                      <octave>4</octave>
                  </pitch>
                  <duration>120</duration>
                  <voice>1</voice>
                  <type>eighth</type>
                  <stem>up</stem>
                  <staff>1</staff>
                  <beam number="1">end</beam>
                  <notations>
                  </notations>
              </note>
          </measure>
          <measure  number="8">
              <attributes>
              </attributes>
              <note>
                  <pitch>
                      <step>A</step>
                      <octave>4</octave>
                  </pitch>
                  <duration>480</duration>
                  <voice>1</voice>
                  <type>half</type>
                  <stem>up</stem>
                  <staff>1</staff>
                  <notations>
                  </notations>
              </note>
              <backup>
                  <duration>375</duration>
              </backup>
              <!--=========== CHORD HERE ==================-->
              <forward>
                  <duration>366</duration>
              </forward>
              <note>
                  <pitch>
                      <step>A</step>
                      <octave>4</octave>
                  </pitch>
                  <duration>240</duration>
                  <voice>1</voice>
                  <type>quarter</type>
                  <stem>up</stem>
                  <staff>1</staff>
                  <notations>
                  </notations>
              </note>
          </measure>
          <measure  number="9">
              <attributes>
              </attributes>
              <note>
                  <pitch>
                      <step>D</step>
                      <octave>5</octave>
                  </pitch>
                  <duration>720</duration>
                  <voice>1</voice>
                  <type>half</type>
                  <dot/>
                  <stem>down</stem>
                  <staff>1</staff>
                  <notations>
                  </notations>
              </note>
              <backup>
                  <duration>587</duration>
              </backup>
              <!--=========== CHORD HERE ==================-->
          </measure>
          <measure  number="10">
              <attributes>
              </attributes>
              <note>
                  <pitch>
                      <step>B</step>
                      <octave>4</octave>
                  </pitch>
                  <duration>480</duration>
                  <voice>1</voice>
                  <type>half</type>
                  <stem>down</stem>
                  <staff>1</staff>
                  <notations>
                  </notations>
              </note>
              <backup>
                  <duration>373</duration>
              </backup>
              <!--=========== CHORD HERE ==================-->
              <forward>
                  <duration>355</duration>
              </forward>
              <note>
                  <pitch>
                      <step>E</step>
                      <octave>4</octave>
                  </pitch>
                  <duration>240</duration>
                  <voice>1</voice>
                  <type>quarter</type>
                  <stem>up</stem>
                  <staff>1</staff>
                  <notations>
                  </notations>
              </note>
          </measure>
          <measure  number="11">
              <attributes>
              </attributes>
              <note>
                  <pitch>
                      <step>C</step>
                      <octave>5</octave>
                  </pitch>
                  <duration>360</duration>
                  <voice>1</voice>
                  <type>quarter</type>
                  <dot/>
                  <stem>down</stem>
                  <staff>1</staff>
                  <notations>
                  </notations>
              </note>
              <backup>
                  <duration>269</duration>
              </backup>
              <!--=========== CHORD HERE ==================-->
              <forward>
                  <duration>257</duration>
              </forward>
              <note>
                  <pitch>
                      <step>B</step>
                      <octave>4</octave>
                  </pitch>
                  <duration>120</duration>
                  <voice>1</voice>
                  <type>eighth</type>
                  <stem>down</stem>
                  <staff>1</staff>
                  <notations>
                  </notations>
              </note>
              <forward>
                  <duration>8</duration>
              </forward>
              <note>
                  <pitch>
                      <step>A</step>
                      <octave>4</octave>
                  </pitch>
                  <duration>120</duration>
                  <voice>1</voice>
                  <type>eighth</type>
                  <stem>up</stem>
                  <staff>1</staff>
                  <beam number="1">begin</beam>
                  <notations>
                  </notations>
              </note>
              <backup>
                  <duration>120</duration>
              </backup>
              <forward>
                  <duration>109</duration>
              </forward>
              <note>
                  <pitch>
                      <step>G</step>
                      <octave>4</octave>
                  </pitch>
                  <duration>120</duration>
                  <voice>1</voice>
                  <type>eighth</type>
                  <stem>up</stem>
                  <staff>1</staff>
                  <beam number="1">end</beam>
                  <notations>
                  </notations>
              </note>
          </measure>
          <measure  number="12">
              <attributes>
              </attributes>
              <note>
                  <pitch>
                      <step>C</step>
                      <octave>5</octave>
                  </pitch>
                  <duration>80</duration>
                  <voice>1</voice>
                  <type>eighth</type>
                  <time-modification>
                      <actual-notes>3</actual-notes>
                      <normal-notes>2</normal-notes>
                  </time-modification>
                  <stem>down</stem>
                  <staff>1</staff>
                  <notations>
                  </notations>
              </note>
              <backup>
                  <duration>17</duration>
              </backup>
              <!--=========== CHORD HERE ==================-->
              <forward>
                  <duration>35</duration>
              </forward>
              <note>
                  <pitch>
                      <step>B</step>
                      <octave>4</octave>
                  </pitch>
                  <duration>160</duration>
                  <voice>1</voice>
                  <type>quarter</type>
                  <time-modification>
                      <actual-notes>3</actual-notes>
                      <normal-notes>2</normal-notes>
                  </time-modification>
                  <stem>down</stem>
                  <staff>1</staff>
                  <notations>
                  </notations>
              </note>
              <backup>
                  <duration>25</duration>
              </backup>
              <note>
                  <pitch>
                      <step>A</step>
                      <octave>4</octave>
                  </pitch>
                  <duration>240</duration>
                  <voice>1</voice>
                  <type>quarter</type>
                  <stem>up</stem>
                  <staff>1</staff>
                  <notations>
                  </notations>
              </note>
              <backup>
                  <duration>4</duration>
              </backup>
              <note>
                  <pitch>
                      <step>G</step>
                      <alter>1</alter>
                      <octave>4</octave>
                  </pitch>
                  <duration>240</duration>
                  <voice>1</voice>
                  <type>quarter</type>
                  <accidental cautionary="no">sharp</accidental>
                  <stem>up</stem>
                  <staff>1</staff>
                  <notations>
                  </notations>
              </note>
              <backup>
                  <duration>131</duration>
              </backup>
              <!--=========== CHORD HERE ==================-->
          </measure>
          <measure  number="13">
              <attributes>
              </attributes>
              <note>
                  <pitch>
                      <step>A</step>
                      <octave>4</octave>
                  </pitch>
                  <duration>720</duration>
                  <voice>1</voice>
                  <type>half</type>
                  <dot/>
                  <stem>up</stem>
                  <staff>1</staff>
                  <notations>
                  </notations>
              </note>
              <backup>
                  <duration>549</duration>
              </backup>
              <!--=========== CHORD HERE ==================-->
          </measure>
          <measure  number="14">
              <attributes>
              </attributes>
              <note>
                  <rest/>
                  <duration>480</duration>
                  <voice>1</voice>
                  <type>half</type>
                  <staff>1</staff>
              </note>
              <backup>
                  <duration>15</duration>
              </backup>
              <note>
                  <pitch>
                      <step>C</step>
                      <octave>5</octave>
                  </pitch>
                  <duration>240</duration>
                  <voice>1</voice>
                  <type>quarter</type>
                  <stem>down</stem>
                  <staff>1</staff>
                  <notations>
                  </notations>
              </note>
          </measure>
          <measure  number="15">
              <attributes>
              </attributes>
              <note>
                  <pitch>
                      <step>E</step>
                      <octave>5</octave>
                  </pitch>
                  <duration>480</duration>
                  <voice>1</voice>
                  <type>half</type>
                  <stem>down</stem>
                  <staff>1</staff>
                  <notations>
                  </notations>
              </note>
              <backup>
                  <duration>389</duration>
              </backup>
              <!--=========== CHORD HERE ==================-->
              <forward>
                  <duration>381</duration>
              </forward>
              <note>
                  <pitch>
                      <step>C</step>
                      <octave>5</octave>
                  </pitch>
                  <duration>240</duration>
                  <voice>1</voice>
                  <type>quarter</type>
                  <stem>down</stem>
                  <staff>1</staff>
                  <notations>
                  </notations>
              </note>
          </measure>
          <measure  number="16">
              <attributes>
              </attributes>
              <note>
                  <pitch>
                      <step>D</step>
                      <octave>5</octave>
                  </pitch>
                  <duration>480</duration>
                  <voice>1</voice>
                  <type>half</type>
                  <stem>down</stem>
                  <staff>1</staff>
                  <notations>
                  </notations>
              </note>
              <backup>
                  <duration>359</duration>
              </backup>
              <!--=========== CHORD HERE ==================-->
              <forward>
                  <duration>342</duration>
              </forward>
              <note>
                  <pitch>
                      <step>E</step>
                      <octave>5</octave>
                  </pitch>
                  <duration>240</duration>
                  <voice>1</voice>
                  <type>quarter</type>
                  <stem>down</stem>
                  <staff>1</staff>
                  <notations>
                  </notations>
              </note>
          </measure>
          <measure  number="17">
              <attributes>
              </attributes>
              <note>
                  <pitch>
                      <step>F</step>
                      <octave>5</octave>
                  </pitch>
                  <duration>480</duration>
                  <voice>1</voice>
                  <type>half</type>
                  <stem>down</stem>
                  <staff>1</staff>
                  <notations>
                  </notations>
              </note>
              <backup>
                  <duration>384</duration>
              </backup>
              <!--=========== CHORD HERE ==================-->
              <forward>
                  <duration>368</duration>
              </forward>
              <note>
                  <pitch>
                      <step>D</step>
                      <octave>5</octave>
                  </pitch>
                  <duration>240</duration>
                  <voice>1</voice>
                  <type>quarter</type>
                  <stem>down</stem>
                  <staff>1</staff>
                  <notations>
                  </notations>
              </note>
          </measure>
          <measure  number="18">
              <attributes>
              </attributes>
              <note>
                  <pitch>
                      <step>E</step>
                      <octave>5</octave>
                  </pitch>
                  <duration>480</duration>
                  <voice>1</voice>
                  <type>half</type>
                  <stem>down</stem>
                  <staff>1</staff>
                  <notations>
                  </notations>
              </note>
              <backup>
                  <duration>368</duration>
              </backup>
              <!--=========== CHORD HERE ==================-->
              <forward>
                  <duration>345</duration>
              </forward>
              <note>
                  <pitch>
                      <step>C</step>
                      <octave>5</octave>
                  </pitch>
                  <duration>240</duration>
                  <voice>1</voice>
                  <type>quarter</type>
                  <stem>down</stem>
                  <staff>1</staff>
                  <notations>
                  </notations>
              </note>
          </measure>
          <measure  number="19">
              <attributes>
              </attributes>
              <note>
                  <pitch>
                      <step>D</step>
                      <octave>5</octave>
                  </pitch>
                  <duration>480</duration>
                  <voice>1</voice>
                  <type>half</type>
                  <stem>down</stem>
                  <staff>1</staff>
                  <notations>
                  </notations>
              </note>
              <backup>
                  <duration>384</duration>
              </backup>
              <!--=========== CHORD HERE ==================-->
              <forward>
                  <duration>363</duration>
              </forward>
              <note>
                  <pitch>
                      <step>B</step>
                      <alter>-1</alter>
                      <octave>4</octave>
                  </pitch>
                  <duration>240</duration>
                  <voice>1</voice>
                  <type>quarter</type>
                  <accidental cautionary="no">flat</accidental>
                  <stem>down</stem>
                  <staff>1</staff>
                  <notations>
                  </notations>
              </note>
          </measure>
          <measure  number="20">
              <attributes>
              </attributes>
              <note>
                  <pitch>
                      <step>C</step>
                      <octave>5</octave>
                  </pitch>
                  <duration>480</duration>
                  <voice>1</voice>
                  <type>half</type>
                  <stem>down</stem>
                  <staff>1</staff>
                  <notations>
                  </notations>
              </note>
              <backup>
                  <duration>375</duration>
              </backup>
              <!--=========== CHORD HERE ==================-->
              <forward>
                  <duration>363</duration>
              </forward>
              <note>
                  <pitch>
                      <step>A</step>
                      <octave>4</octave>
                  </pitch>
                  <duration>240</duration>
                  <voice>1</voice>
                  <type>quarter</type>
                  <stem>up</stem>
                  <staff>1</staff>
                  <notations>
                  </notations>
              </note>
          </measure>
          <measure  number="21">
              <attributes>
              </attributes>
              <note>
                  <pitch>
                      <step>B</step>
                      <octave>4</octave>
                  </pitch>
                  <duration>480</duration>
                  <voice>1</voice>
                  <type>half</type>
                  <stem>down</stem>
                  <staff>1</staff>
                  <notations>
                  </notations>
              </note>
              <backup>
                  <duration>363</duration>
              </backup>
              <!--=========== CHORD HERE ==================-->
              <forward>
                  <duration>333</duration>
              </forward>
              <note>
                  <pitch>
                      <step>G</step>
                      <octave>4</octave>
                  </pitch>
                  <duration>240</duration>
                  <voice>1</voice>
                  <type>quarter</type>
                  <stem>up</stem>
                  <staff>1</staff>
                  <notations>
                  </notations>
              </note>
          </measure>
          <measure  number="22">
              <attributes>
              </attributes>
              <note>
                  <pitch>
                      <step>A</step>
                      <octave>4</octave>
                  </pitch>
                  <duration>360</duration>
                  <voice>1</voice>
                  <type>quarter</type>
                  <dot/>
                  <stem>up</stem>
                  <staff>1</staff>
                  <notations>
                  </notations>
              </note>
              <backup>
                  <duration>253</duration>
              </backup>
              <!--=========== CHORD HERE ==================-->
              <forward>
                  <duration>255</duration>
              </forward>
              <note>
                  <pitch>
                      <step>A</step>
                      <octave>4</octave>
                  </pitch>
                  <duration>120</duration>
                  <voice>1</voice>
                  <type>eighth</type>
                  <stem>up</stem>
                  <staff>1</staff>
                  <notations>
                  </notations>
              </note>
              <forward>
                  <duration>8</duration>
              </forward>
              <note>
                  <pitch>
                      <step>C</step>
                      <octave>5</octave>
                  </pitch>
                  <duration>120</duration>
                  <voice>1</voice>
                  <type>eighth</type>
                  <stem>down</stem>
                  <staff>1</staff>
                  <beam number="1">begin</beam>
                  <notations>
                  </notations>
              </note>
              <backup>
                  <duration>120</duration>
              </backup>
              <forward>
                  <duration>117</duration>
              </forward>
              <note>
                  <pitch>
                      <step>B</step>
                      <octave>4</octave>
                  </pitch>
                  <duration>120</duration>
                  <voice>1</voice>
                  <type>eighth</type>
                  <stem>down</stem>
                  <staff>1</staff>
                  <beam number="1">end</beam>
                  <notations>
                  </notations>
              </note>
          </measure>
          <measure  number="23">
              <attributes>
              </attributes>
              <forward>
                  <duration>11</duration>
              </forward>
              <note>
                  <pitch>
                      <step>E</step>
                      <octave>4</octave>
                  </pitch>
                  <duration>360</duration>
                  <voice>1</voice>
                  <type>quarter</type>
                  <dot/>
                  <stem>up</stem>
                  <staff>1</staff>
                  <notations>
                  </notations>
              </note>
              <backup>
                  <duration>13</duration>
              </backup>
              <note>
                  <pitch>
                      <step>E</step>
                      <octave>4</octave>
                  </pitch>
                  <duration>120</duration>
                  <voice>1</voice>
                  <type>eighth</type>
                  <stem>up</stem>
                  <staff>1</staff>
                  <notations>
                  </notations>
              </note>
              <forward>
                  <duration>12</duration>
              </forward>
              <note>
                  <pitch>
                      <step>G</step>
                      <octave>4</octave>
                  </pitch>
                  <duration>120</duration>
                  <voice>1</voice>
                  <type>eighth</type>
                  <stem>up</stem>
                  <staff>1</staff>
                  <beam number="1">begin</beam>
                  <notations>
                  </notations>
              </note>
              <backup>
                  <duration>120</duration>
              </backup>
              <forward>
                  <duration>102</duration>
              </forward>
              <note>
                  <pitch>
                      <step>E</step>
                      <octave>4</octave>
                  </pitch>
                  <duration>120</duration>
                  <voice>1</voice>
                  <type>eighth</type>
                  <stem>up</stem>
                  <staff>1</staff>
                  <beam number="1">end</beam>
                  <notations>
                  </notations>
              </note>
          </measure>
          <measure  number="24">
              <attributes>
              </attributes>
              <note>
                  <pitch>
                      <step>A</step>
                      <octave>4</octave>
                  </pitch>
                  <duration>360</duration>
                  <voice>1</voice>
                  <type>quarter</type>
                  <dot/>
                  <stem>up</stem>
                  <staff>1</staff>
                  <notations>
                  </notations>
              </note>
              <backup>
                  <duration>271</duration>
              </backup>
              <!--=========== CHORD HERE ==================-->
              <forward>
                  <duration>268</duration>
              </forward>
              <note>
                  <pitch>
                      <step>A</step>
                      <octave>4</octave>
                  </pitch>
                  <duration>120</duration>
                  <voice>1</voice>
                  <type>eighth</type>
                  <stem>up</stem>
                  <staff>1</staff>
                  <notations>
                  </notations>
              </note>
              <forward>
                  <duration>4</duration>
              </forward>
              <note>
                  <pitch>
                      <step>G</step>
                      <octave>4</octave>
                  </pitch>
                  <duration>120</duration>
                  <voice>1</voice>
                  <type>eighth</type>
                  <stem>up</stem>
                  <staff>1</staff>
                  <beam number="1">begin</beam>
                  <notations>
                  </notations>
              </note>
              <backup>
                  <duration>120</duration>
              </backup>
              <forward>
                  <duration>120</duration>
              </forward>
              <note>
                  <pitch>
                      <step>F</step>
                      <octave>4</octave>
                  </pitch>
                  <duration>120</duration>
                  <voice>1</voice>
                  <type>eighth</type>
                  <stem>up</stem>
                  <staff>1</staff>
                  <beam number="1">end</beam>
                  <notations>
                  </notations>
              </note>
          </measure>
          <measure  number="25">
              <attributes>
              </attributes>
              <note>
                  <pitch>
                      <step>G</step>
                      <octave>4</octave>
                  </pitch>
                  <duration>360</duration>
                  <voice>1</voice>
                  <type>quarter</type>
                  <dot/>
                  <stem>up</stem>
                  <staff>1</staff>
                  <notations>
                  </notations>
              </note>
              <backup>
                  <duration>269</duration>
              </backup>
              <!--=========== CHORD HERE ==================-->
              <forward>
                  <duration>263</duration>
              </forward>
              <note>
                  <pitch>
                      <step>G</step>
                      <octave>4</octave>
                  </pitch>
                  <duration>120</duration>
                  <voice>1</voice>
                  <type>eighth</type>
                  <stem>up</stem>
                  <staff>1</staff>
                  <notations>
                  </notations>
              </note>
              <note>
                  <pitch>
                      <step>F</step>
                      <octave>4</octave>
                  </pitch>
                  <duration>120</duration>
                  <voice>1</voice>
                  <type>eighth</type>
                  <stem>up</stem>
                  <staff>1</staff>
                  <beam number="1">begin</beam>
                  <notations>
                  </notations>
              </note>
              <backup>
                  <duration>120</duration>
              </backup>
              <forward>
                  <duration>106</duration>
              </forward>
              <note>
                  <pitch>
                      <step>E</step>
                      <octave>4</octave>
                  </pitch>
                  <duration>120</duration>
                  <voice>1</voice>
                  <type>eighth</type>
                  <stem>up</stem>
                  <staff>1</staff>
                  <beam number="1">end</beam>
                  <notations>
                  </notations>
              </note>
          </measure>
          <measure  number="26">
              <attributes>
              </attributes>
              <note>
                  <pitch>
                      <step>D</step>
                      <octave>4</octave>
                  </pitch>
                  <duration>240</duration>
                  <tie type="start"/>
                  <voice>1</voice>
                  <type>quarter</type>
                  <stem>up</stem>
                  <staff>1</staff>
                  <notations>
                      <tied type="start"/>
                  </notations>
              </note>
              <backup>
                  <duration>181</duration>
              </backup>
              <!--=========== CHORD HERE ==================-->
              <forward>
                  <duration>181</duration>
              </forward>
              <note>
                  <pitch>
                      <step>D</step>
                      <octave>4</octave>
                  </pitch>
                  <duration>80</duration>
                  <tie type="stop"/>
                  <voice>1</voice>
                  <type>eighth</type>
                  <time-modification>
                      <actual-notes>3</actual-notes>
                      <normal-notes>2</normal-notes>
                  </time-modification>
                  <stem>up</stem>
                  <staff>1</staff>
                  <beam number="1">begin</beam>
                  <notations>
                      <tied type="stop"/>
                      <tuplet type="start" bracket="no" show-number="actual"/>
                  </notations>
              </note>
              <forward>
                  <duration>15</duration>
              </forward>
              <note>
                  <pitch>
                      <step>E</step>
                      <octave>4</octave>
                  </pitch>
                  <duration>80</duration>
                  <voice>1</voice>
                  <type>eighth</type>
                  <time-modification>
                      <actual-notes>3</actual-notes>
                      <normal-notes>2</normal-notes>
                  </time-modification>
                  <stem>up</stem>
                  <staff>1</staff>
                  <beam number="1">continue</beam>
                  <notations>
                  </notations>
              </note>
              <backup>
                  <duration>16</duration>
              </backup>
              <note>
                  <pitch>
                      <step>D</step>
                      <octave>4</octave>
                  </pitch>
                  <duration>80</duration>
                  <voice>1</voice>
                  <type>eighth</type>
                  <time-modification>
                      <actual-notes>3</actual-notes>
                      <normal-notes>2</normal-notes>
                  </time-modification>
                  <stem>up</stem>
                  <staff>1</staff>
                  <beam number="1">end</beam>
                  <notations>
                      <tuplet type="stop" placement="above"/>
                  </notations>
              </note>
              <forward>
                  <duration>1</duration>
              </forward>
              <note>
                  <pitch>
                      <step>C</step>
                      <octave>4</octave>
                  </pitch>
                  <duration>120</duration>
                  <voice>1</voice>
                  <type>eighth</type>
                  <stem>up</stem>
                  <staff>1</staff>
                  <beam number="1">begin</beam>
                  <notations>
                  </notations>
              </note>
              <backup>
                  <duration>120</duration>
              </backup>
              <forward>
                  <duration>113</duration>
              </forward>
              <note>
                  <pitch>
                      <step>D</step>
                      <octave>4</octave>
                  </pitch>
                  <duration>120</duration>
                  <voice>1</voice>
                  <type>eighth</type>
                  <stem>up</stem>
                  <staff>1</staff>
                  <beam number="1">end</beam>
                  <notations>
                  </notations>
              </note>
          </measure>
          <measure  number="27">
              <attributes>
              </attributes>
              <forward>
                  <duration>1</duration>
              </forward>
              <note>
                  <pitch>
                      <step>E</step>
                      <octave>4</octave>
                  </pitch>
                  <duration>360</duration>
                  <voice>1</voice>
                  <type>quarter</type>
                  <dot/>
                  <stem>up</stem>
                  <staff>1</staff>
                  <notations>
                  </notations>
              </note>
              <backup>
                  <duration>254</duration>
              </backup>
              <!--=========== CHORD HERE ==================-->
              <forward>
                  <duration>257</duration>
              </forward>
              <note>
                  <pitch>
                      <step>A</step>
                      <octave>4</octave>
                  </pitch>
                  <duration>120</duration>
                  <voice>1</voice>
                  <type>eighth</type>
                  <stem>up</stem>
                  <staff>1</staff>
                  <notations>
                  </notations>
              </note>
              <forward>
                  <duration>3</duration>
              </forward>
              <note>
                  <pitch>
                      <step>C</step>
                      <octave>5</octave>
                  </pitch>
                  <duration>120</duration>
                  <voice>1</voice>
                  <type>eighth</type>
                  <stem>down</stem>
                  <staff>1</staff>
                  <beam number="1">begin</beam>
                  <notations>
                  </notations>
              </note>
              <backup>
                  <duration>120</duration>
              </backup>
              <forward>
                  <duration>116</duration>
              </forward>
              <note>
                  <pitch>
                      <step>B</step>
                      <octave>4</octave>
                  </pitch>
                  <duration>120</duration>
                  <voice>1</voice>
                  <type>eighth</type>
                  <stem>down</stem>
                  <staff>1</staff>
                  <beam number="1">end</beam>
                  <notations>
                  </notations>
              </note>
          </measure>
          <measure  number="28">
              <attributes>
              </attributes>
              <forward>
                  <duration>5</duration>
              </forward>
              <note>
                  <pitch>
                      <step>E</step>
                      <octave>4</octave>
                  </pitch>
                  <duration>360</duration>
                  <voice>1</voice>
                  <type>quarter</type>
                  <dot/>
                  <stem>up</stem>
                  <staff>1</staff>
                  <notations>
                  </notations>
              </note>
              <backup>
                  <duration>255</duration>
              </backup>
              <!--=========== CHORD HERE ==================-->
              <forward>
                  <duration>253</duration>
              </forward>
              <note>
                  <pitch>
                      <step>E</step>
                      <octave>4</octave>
                  </pitch>
                  <duration>120</duration>
                  <voice>1</voice>
                  <type>eighth</type>
                  <stem>up</stem>
                  <staff>1</staff>
                  <notations>
                  </notations>
              </note>
              <backup>
                  <duration>5</duration>
              </backup>
              <note>
                  <pitch>
                      <step>G</step>
                      <octave>4</octave>
                  </pitch>
                  <duration>120</duration>
                  <voice>1</voice>
                  <type>eighth</type>
                  <stem>up</stem>
                  <staff>1</staff>
                  <beam number="1">begin</beam>
                  <notations>
                  </notations>
              </note>
              <backup>
                  <duration>120</duration>
              </backup>
              <forward>
                  <duration>108</duration>
              </forward>
              <note>
                  <pitch>
                      <step>E</step>
                      <octave>4</octave>
                  </pitch>
                  <duration>120</duration>
                  <voice>1</voice>
                  <type>eighth</type>
                  <stem>up</stem>
                  <staff>1</staff>
                  <beam number="1">end</beam>
                  <notations>
                  </notations>
              </note>
          </measure>
          <measure  number="29">
              <attributes>
              </attributes>
              <note>
                  <pitch>
                      <step>A</step>
                      <octave>4</octave>
                  </pitch>
                  <duration>480</duration>
                  <voice>1</voice>
                  <type>half</type>
                  <stem>up</stem>
                  <staff>1</staff>
                  <notations>
                  </notations>
              </note>
              <backup>
                  <duration>373</duration>
              </backup>
              <!--=========== CHORD HERE ==================-->
              <forward>
                  <duration>373</duration>
              </forward>
              <note>
                  <rest/>
                  <duration>120</duration>
                  <voice>1</voice>
                  <type>eighth</type>
                  <staff>1</staff>
              </note>
              <backup>
                  <duration>10</duration>
              </backup>
              <note>
                  <pitch>
                      <step>A</step>
                      <octave>4</octave>
                  </pitch>
                  <duration>120</duration>
                  <voice>1</voice>
                  <type>eighth</type>
                  <stem>up</stem>
                  <staff>1</staff>
                  <notations>
                  </notations>
              </note>
          </measure>
          <measure  number="30">
              <attributes>
              </attributes>
              <note>
                  <pitch>
                      <step>D</step>
                      <octave>5</octave>
                  </pitch>
                  <duration>720</duration>
                  <voice>1</voice>
                  <type>half</type>
                  <dot/>
                  <stem>down</stem>
                  <staff>1</staff>
                  <notations>
                  </notations>
              </note>
              <backup>
                  <duration>565</duration>
              </backup>
              <!--=========== CHORD HERE ==================-->
          </measure>
          <measure  number="31">
              <attributes>
              </attributes>
              <note>
                  <pitch>
                      <step>B</step>
                      <octave>4</octave>
                  </pitch>
                  <duration>480</duration>
                  <voice>1</voice>
                  <type>half</type>
                  <stem>down</stem>
                  <staff>1</staff>
                  <notations>
                  </notations>
              </note>
              <backup>
                  <duration>363</duration>
              </backup>
              <!--=========== CHORD HERE ==================-->
              <forward>
                  <duration>354</duration>
              </forward>
              <note>
                  <pitch>
                      <step>E</step>
                      <octave>4</octave>
                  </pitch>
                  <duration>240</duration>
                  <voice>1</voice>
                  <type>quarter</type>
                  <stem>up</stem>
                  <staff>1</staff>
                  <notations>
                  </notations>
              </note>
          </measure>
          <measure  number="32">
              <attributes>
              </attributes>
              <note>
                  <pitch>
                      <step>C</step>
                      <octave>5</octave>
                  </pitch>
                  <duration>360</duration>
                  <voice>1</voice>
                  <type>quarter</type>
                  <dot/>
                  <stem>down</stem>
                  <staff>1</staff>
                  <notations>
                  </notations>
              </note>
              <backup>
                  <duration>281</duration>
              </backup>
              <!--=========== CHORD HERE ==================-->
              <forward>
                  <duration>282</duration>
              </forward>
              <note>
                  <pitch>
                      <step>B</step>
                      <octave>4</octave>
                  </pitch>
                  <duration>120</duration>
                  <voice>1</voice>
                  <type>eighth</type>
                  <stem>down</stem>
                  <staff>1</staff>
                  <notations>
                  </notations>
              </note>
              <backup>
                  <duration>2</duration>
              </backup>
              <note>
                  <pitch>
                      <step>A</step>
                      <octave>4</octave>
                  </pitch>
                  <duration>120</duration>
                  <voice>1</voice>
                  <type>eighth</type>
                  <stem>up</stem>
                  <staff>1</staff>
                  <beam number="1">begin</beam>
                  <notations>
                  </notations>
              </note>
              <backup>
                  <duration>120</duration>
              </backup>
              <forward>
                  <duration>113</duration>
              </forward>
              <note>
                  <pitch>
                      <step>G</step>
                      <octave>4</octave>
                  </pitch>
                  <duration>120</duration>
                  <voice>1</voice>
                  <type>eighth</type>
                  <stem>up</stem>
                  <staff>1</staff>
                  <beam number="1">end</beam>
                  <notations>
                  </notations>
              </note>
          </measure>
          <measure  number="33">
              <attributes>
              </attributes>
              <note>
                  <pitch>
                      <step>C</step>
                      <octave>5</octave>
                  </pitch>
                  <duration>120</duration>
                  <voice>1</voice>
                  <type>eighth</type>
                  <stem>down</stem>
                  <staff>1</staff>
                  <beam number="1">begin</beam>
                  <notations>
                  </notations>
              </note>
              <backup>
                  <duration>120</duration>
              </backup>
              <forward>
                  <duration>107</duration>
              </forward>
              <!--=========== CHORD HERE ==================-->
              <forward>
                  <duration>4</duration>
              </forward>
              <note>
                  <pitch>
                      <step>B</step>
                      <octave>4</octave>
                  </pitch>
                  <duration>120</duration>
                  <voice>1</voice>
                  <type>eighth</type>
                  <stem>down</stem>
                  <staff>1</staff>
                  <beam number="1">end</beam>
                  <notations>
                  </notations>
              </note>
              <forward>
                  <duration>7</duration>
              </forward>
              <note>
                  <pitch>
                      <step>A</step>
                      <octave>4</octave>
                  </pitch>
                  <duration>240</duration>
                  <voice>1</voice>
                  <type>quarter</type>
                  <stem>up</stem>
                  <staff>1</staff>
                  <notations>
                  </notations>
              </note>
              <backup>
                  <duration>6</duration>
              </backup>
              <note>
                  <pitch>
                      <step>G</step>
                      <octave>4</octave>
                  </pitch>
                  <duration>240</duration>
                  <voice>1</voice>
                  <type>quarter</type>
                  <stem>up</stem>
                  <staff>1</staff>
                  <notations>
                  </notations>
              </note>
              <backup>
                  <duration>141</duration>
              </backup>
              <!--=========== CHORD HERE ==================-->
          </measure>
          <measure  number="34">
              <attributes>
              </attributes>
              <note>
                  <pitch>
                      <step>A</step>
                      <octave>4</octave>
                  </pitch>
                  <duration>720</duration>
                  <voice>1</voice>
                  <type>half</type>
                  <dot/>
                  <stem>up</stem>
                  <staff>1</staff>
                  <notations>
                  </notations>
              </note>
              <backup>
                  <duration>549</duration>
              </backup>
              <!--=========== CHORD HERE ==================-->
              <barline location="right">
                  <bar-style>light-heavy</bar-style>
              </barline>
          </measure>
      </part>
  </score-partwise>
