<?xml version="1.0" encoding="UTF-8"?>
<!DOCTYPE score-partwise PUBLIC "-//Recordare//DTD MusicXML 3.0 Partwise//EN" "http://www.musicxml.org/dtds/partwise.dtd">
<score-partwise version="3.0">
  <movement-title>Quem queritis</movement-title>
      <identification>
          <creator type="composer">&lt;Name&gt;</creator>
          <encoding>
              <software>PDFtoMusic Pro v1.4.2c Build 11B5B (c) Myriad - http://www.myriad-online.com</software>
              <?PDFtoMusic Document type 0100- 00000000?>
              <supports attribute="new-system" element="print" type="yes" value="yes"/>
              <supports attribute="new-page" element="print" type="yes" value="yes"/>
          </encoding>
      </identification>
      <defaults>
          <scaling>
              <millimeters>9.144001</millimeters>
              <tenths>40</tenths>
          </scaling>
          <page-layout>
              <page-height>1299.383</page-height>
              <page-width>918.210</page-width>
              <page-margins type="both">
                  <left-margin>43.745</left-margin>
                  <right-margin>43.745</right-margin>
                  <top-margin>43.745</top-margin>
                  <bottom-margin>43.745</bottom-margin>
              </page-margins>
          </page-layout>
          <appearance>
              <line-width type="stem">0.0926</line-width>
              <line-width type="beam">5.0001</line-width>
              <line-width type="staff">0.9260</line-width>
              <line-width type="light barline">0.3668</line-width>
              <line-width type="heavy barline">6.6667</line-width>
              <line-width type="leger">0.9260</line-width>
              <line-width type="wedge">0.0926</line-width>
          </appearance>
      </defaults>
      <credit page="1">
          <credit-words  default-x="335.194" default-y="1245.958" justify="left" valign="baseline" font-family="Times New Roman" font-size="24" font-weight="bold" font-style="normal">Piano Template</credit-words>
      </credit>
      <credit page="1">
          <credit-words  default-x="831.554" default-y="1200.957" justify="left" valign="baseline" font-family="Times New Roman" font-size="12" font-weight="normal" font-style="normal">&lt;Name&gt;</credit-words>
      </credit>
      <credit page="1">
          <credit-words  default-x="409.078" default-y="25.310" justify="left" valign="baseline" font-family="Times New Roman" font-size="8" font-weight="normal" font-style="normal">All Rights Reserved</credit-words>
      </credit>
      <part-list>
          <part-group type="start" number="1">
              <group-symbol>none</group-symbol>
              <group-barline>yes</group-barline>
          </part-group>
          <score-part id="P1">
              <part-name></part-name>
              <score-instrument id="P1-I1">
                  <instrument-name>Instrument 1</instrument-name>
              </score-instrument>
              <midi-instrument id="P1-I1">
                  <midi-channel>1</midi-channel>
                  <midi-bank>1</midi-bank>
                  <midi-program>1</midi-program>
                  <volume>50</volume>
                  <pan>0</pan>
              </midi-instrument>
          </score-part>
          <score-part id="P2">
              <part-name></part-name>
              <score-instrument id="P2-I1">
                  <instrument-name>Instrument 2</instrument-name>
              </score-instrument>
              <midi-instrument id="P2-I1">
                  <midi-channel>2</midi-channel>
                  <midi-bank>1</midi-bank>
                  <midi-program>1</midi-program>
                  <volume>50</volume>
                  <pan>0</pan>
              </midi-instrument>
          </score-part>
          <part-group type="stop" number="1"/>
      </part-list>
      <part id="P1">
          <!--==========================[1,1]=============================-->
          <measure number="1" width="337">
              <print new-system="yes">
                  <system-layout>
                      <system-margins>
                          <left-margin>-1.476</left-margin>
                          <right-margin>0.000</right-margin>
                      </system-margins>
                      <top-system-distance>158.246</top-system-distance>
                  </system-layout>
              </print>
              <attributes>
                  <divisions>6720</divisions>
                  <time>
                      <beats>4</beats>
                      <beat-type>4</beat-type>
                  </time>
                  <clef number="1">
                      <sign>G</sign>
                      <line>2</line>
                  </clef>
                  <staff-details number="1" print-object="yes">
                      <staff-lines>5</staff-lines>
                      <staff-size>100.00</staff-size>
                  </staff-details>
              </attributes>
              <note>
                  <pitch>
                      <step>E</step>
                      <octave>5</octave>
                  </pitch>
                  <duration>26880</duration>
                  <voice>1</voice>
                  <type>whole</type>
                  <stem>none</stem>
                  <notations>
                      <slur type="start" number="1" placement="above" orientation="over"/>
                      <articulations>
                          <accent placement="above" relative-x="0.31" relative-y="2.40"/>
                      </articulations>
                  </notations>
              </note>
              <note>
                  <chord/>
                  <pitch>
                      <step>C</step>
                      <octave>5</octave>
                  </pitch>
                  <duration>26880</duration>
                  <voice>1</voice>
                  <type>whole</type>
                  <stem>none</stem>
                  <notations>
                      <slur type="start" number="2" placement="above" orientation="over"/>
                  </notations>
              </note>
              <note>
                  <chord/>
                  <pitch>
                      <step>G</step>
                      <octave>4</octave>
                  </pitch>
                  <duration>26880</duration>
                  <voice>1</voice>
                  <type>whole</type>
                  <stem>none</stem>
                  <notations>
                      <slur type="start" number="3" placement="below" orientation="under"/>
                  </notations>
              </note>
              <direction placement="above">
                  <direction-type>
                      <metronome font-family="Times New Roman" font-size="13" font-weight="bold" font-style="normal" relative-x="2.11" default-y="22.55">
                          <beat-unit>quarter</beat-unit>
                          <per-minute>168</per-minute>
                      </metronome>
                  </direction-type>
                  <direction-type>
                      <words font-family="Times New Roman" font-size="13" font-weight="bold" font-style="normal" relative-x="54.35" default-y="22.55">=168</words>
                  </direction-type>
                  <offset>-26880.00</offset>
                  <sound tempo="168.00"/>
              </direction>
          </measure>
          <!--==========================[1,2]=============================-->
          <measure number="2" width="291">
              <note>
                  <pitch>
                      <step>E</step>
                      <octave>5</octave>
                  </pitch>
                  <duration>26880</duration>
                  <voice>1</voice>
                  <type>whole</type>
                  <stem>none</stem>
                  <notations>
                      <slur type="stop" number="1"/>
                      <slur type="start" number="1" placement="above" orientation="over"/>
                  </notations>
              </note>
              <note>
                  <chord/>
                  <pitch>
                      <step>C</step>
                      <octave>5</octave>
                  </pitch>
                  <duration>26880</duration>
                  <voice>1</voice>
                  <type>whole</type>
                  <stem>none</stem>
                  <notations>
                      <slur type="stop" number="2"/>
                      <slur type="start" number="2" placement="above" orientation="over"/>
                  </notations>
              </note>
              <note>
                  <chord/>
                  <pitch>
                      <step>G</step>
                      <octave>4</octave>
                  </pitch>
                  <duration>26880</duration>
                  <voice>1</voice>
                  <type>whole</type>
                  <stem>none</stem>
                  <notations>
                      <slur type="stop" number="3"/>
                      <slur type="start" number="3" placement="below" orientation="under"/>
                  </notations>
              </note>
          </measure>
          <!--==========================[1,3]=============================-->
          <measure number="3" width="224">
              <note>
                  <pitch>
                      <step>E</step>
                      <octave>5</octave>
                  </pitch>
                  <duration>26880</duration>
                  <voice>1</voice>
                  <type>whole</type>
                  <stem>none</stem>
                  <notations>
                      <slur type="stop" number="1"/>
                  </notations>
              </note>
              <note>
                  <chord/>
                  <pitch>
                      <step>C</step>
                      <octave>5</octave>
                  </pitch>
                  <duration>26880</duration>
                  <voice>1</voice>
                  <type>whole</type>
                  <stem>none</stem>
                  <notations>
                      <slur type="stop" number="2"/>
                  </notations>
              </note>
              <note>
                  <chord/>
                  <pitch>
                      <step>G</step>
                      <octave>4</octave>
                  </pitch>
                  <duration>26880</duration>
                  <voice>1</voice>
                  <type>whole</type>
                  <stem>none</stem>
                  <notations>
                      <slur type="stop" number="3"/>
                  </notations>
              </note>
          </measure>
          <!--==========================[1,4]=============================-->
          <measure number="4" width="442">
              <print new-system="yes">
                  <system-layout>
                      <system-margins>
                          <left-margin>-1.476</left-margin>
                          <right-margin>0.000</right-margin>
                      </system-margins>
                      <system-distance>139.907</system-distance>
                  </system-layout>
              </print>
              <attributes>
                  <staff-details number="1" print-object="yes">
                  </staff-details>
              </attributes>
              <note>
                  <rest>
                  </rest>
                  <duration>3360</duration>
                  <voice>1</voice>
                  <type>eighth</type>
              </note>
              <note>
                  <pitch>
                      <step>E</step>
                      <octave>4</octave>
                  </pitch>
                  <duration>3360</duration>
                  <voice>1</voice>
                  <type>eighth</type>
                  <stem default-y="-0.15">up</stem>
              </note>
              <note>
                  <chord/>
                  <pitch>
                      <step>F</step>
                      <alter>1</alter>
                      <octave>4</octave>
                  </pitch>
                  <duration>3360</duration>
                  <voice>1</voice>
                  <type>eighth</type>
                  <accidental>sharp</accidental>
                  <stem default-y="-0.15">up</stem>
              </note>
              <note>
                  <pitch>
                      <step>E</step>
                      <octave>4</octave>
                  </pitch>
                  <duration>3360</duration>
                  <voice>1</voice>
                  <type>eighth</type>
                  <stem default-y="-0.15">up</stem>
              </note>
              <note>
                  <chord/>
                  <pitch>
                      <step>F</step>
                      <alter>1</alter>
                      <octave>4</octave>
                  </pitch>
                  <duration>3360</duration>
                  <voice>1</voice>
                  <type>eighth</type>
                  <stem default-y="-0.15">up</stem>
              </note>
              <note>
                  <rest>
                  </rest>
                  <duration>3360</duration>
                  <voice>1</voice>
                  <type>eighth</type>
              </note>
              <note>
                  <rest>
                  </rest>
                  <duration>3360</duration>
                  <voice>1</voice>
                  <type>eighth</type>
              </note>
              <note>
                  <pitch>
                      <step>E</step>
                      <octave>4</octave>
                  </pitch>
                  <duration>3360</duration>
                  <voice>1</voice>
                  <type>eighth</type>
                  <stem default-y="-0.15">up</stem>
              </note>
              <note>
                  <chord/>
                  <pitch>
                      <step>F</step>
                      <alter>1</alter>
                      <octave>4</octave>
                  </pitch>
                  <duration>3360</duration>
                  <voice>1</voice>
                  <type>eighth</type>
                  <stem default-y="-0.15">up</stem>
              </note>
              <note>
                  <pitch>
                      <step>E</step>
                      <octave>4</octave>
                  </pitch>
                  <duration>3360</duration>
                  <voice>1</voice>
                  <type>eighth</type>
                  <stem default-y="4.54">up</stem>
                  <beam number="1">begin</beam>
              </note>
              <note>
                  <chord/>
                  <pitch>
                      <step>F</step>
                      <alter>1</alter>
                      <octave>4</octave>
                  </pitch>
                  <duration>3360</duration>
                  <voice>1</voice>
                  <type>eighth</type>
                  <stem default-y="4.54">up</stem>
              </note>
              <note>
                  <pitch>
                      <step>E</step>
                      <octave>4</octave>
                  </pitch>
                  <duration>3360</duration>
                  <voice>1</voice>
                  <type>eighth</type>
                  <stem default-y="4.54">up</stem>
                  <beam number="1">end</beam>
              </note>
              <note>
                  <chord/>
                  <pitch>
                      <step>F</step>
                      <alter>1</alter>
                      <octave>4</octave>
                  </pitch>
                  <duration>3360</duration>
                  <voice>1</voice>
                  <type>eighth</type>
                  <stem default-y="4.54">up</stem>
              </note>
          </measure>
          <!--==========================[1,5]=============================-->
          <measure number="5" width="410">
              <note>
                  <rest>
                  </rest>
                  <duration>3360</duration>
                  <voice>1</voice>
                  <type>eighth</type>
              </note>
              <note>
                  <pitch>
                      <step>E</step>
                      <octave>4</octave>
                  </pitch>
                  <duration>3360</duration>
                  <voice>1</voice>
                  <type>eighth</type>
                  <stem default-y="-0.15">up</stem>
              </note>
              <note>
                  <chord/>
                  <pitch>
                      <step>F</step>
                      <alter>1</alter>
                      <octave>4</octave>
                  </pitch>
                  <duration>3360</duration>
                  <voice>1</voice>
                  <type>eighth</type>
                  <accidental>sharp</accidental>
                  <stem default-y="-0.15">up</stem>
              </note>
              <note>
                  <pitch>
                      <step>E</step>
                      <octave>4</octave>
                  </pitch>
                  <duration>3360</duration>
                  <voice>1</voice>
                  <type>eighth</type>
                  <stem default-y="-0.15">up</stem>
              </note>
              <note>
                  <chord/>
                  <pitch>
                      <step>F</step>
                      <alter>1</alter>
                      <octave>4</octave>
                  </pitch>
                  <duration>3360</duration>
                  <voice>1</voice>
                  <type>eighth</type>
                  <stem default-y="-0.15">up</stem>
              </note>
              <note>
                  <rest>
                  </rest>
                  <duration>3360</duration>
                  <voice>1</voice>
                  <type>eighth</type>
              </note>
              <note>
                  <rest>
                  </rest>
                  <duration>3360</duration>
                  <voice>1</voice>
                  <type>eighth</type>
              </note>
              <note>
                  <pitch>
                      <step>E</step>
                      <octave>4</octave>
                  </pitch>
                  <duration>3360</duration>
                  <voice>1</voice>
                  <type>eighth</type>
                  <stem default-y="-0.15">up</stem>
              </note>
              <note>
                  <chord/>
                  <pitch>
                      <step>F</step>
                      <alter>1</alter>
                      <octave>4</octave>
                  </pitch>
                  <duration>3360</duration>
                  <voice>1</voice>
                  <type>eighth</type>
                  <stem default-y="-0.15">up</stem>
              </note>
              <note>
                  <pitch>
                      <step>E</step>
                      <octave>4</octave>
                  </pitch>
                  <duration>3360</duration>
                  <voice>1</voice>
                  <type>eighth</type>
                  <stem default-y="4.54">up</stem>
                  <beam number="1">begin</beam>
              </note>
              <note>
                  <chord/>
                  <pitch>
                      <step>F</step>
                      <alter>1</alter>
                      <octave>4</octave>
                  </pitch>
                  <duration>3360</duration>
                  <voice>1</voice>
                  <type>eighth</type>
                  <stem default-y="4.54">up</stem>
              </note>
              <note>
                  <pitch>
                      <step>E</step>
                      <octave>4</octave>
                  </pitch>
                  <duration>3360</duration>
                  <voice>1</voice>
                  <type>eighth</type>
                  <stem default-y="4.54">up</stem>
                  <beam number="1">end</beam>
              </note>
              <note>
                  <chord/>
                  <pitch>
                      <step>F</step>
                      <alter>1</alter>
                      <octave>4</octave>
                  </pitch>
                  <duration>3360</duration>
                  <voice>1</voice>
                  <type>eighth</type>
                  <stem default-y="4.54">up</stem>
              </note>
          </measure>
          <!--==========================[1,6]=============================-->
          <measure number="6" width="310">
              <print new-system="yes">
                  <system-layout>
                      <system-margins>
                          <left-margin>-1.476</left-margin>
                          <right-margin>0.000</right-margin>
                      </system-margins>
                      <system-distance>139.907</system-distance>
                  </system-layout>
              </print>
              <attributes>
                  <staff-details number="1" print-object="yes">
                  </staff-details>
              </attributes>
              <note>
                  <pitch>
                      <step>C</step>
                      <octave>4</octave>
                  </pitch>
                  <duration>10080</duration>
                  <voice>1</voice>
                  <type>quarter</type>
                  <dot/>
                  <stem default-y="-15.46">up</stem>
              </note>
              <note>
                  <pitch>
                      <step>E</step>
                      <octave>4</octave>
                  </pitch>
                  <duration>3360</duration>
                  <tie type="start"/>
                  <voice>1</voice>
                  <type>eighth</type>
                  <stem default-y="-5.15">up</stem>
                  <notations>
                      <tied type="start" number="1" placement="below" orientation="under"/>
                  </notations>
              </note>
              <note>
                  <pitch>
                      <step>E</step>
                      <octave>4</octave>
                  </pitch>
                  <duration>3360</duration>
                  <tie type="stop"/>
                  <voice>1</voice>
                  <type>eighth</type>
                  <stem default-y="-5.15">up</stem>
                  <notations>
                      <tied type="stop" number="1"/>
                  </notations>
              </note>
              <note>
                  <pitch>
                      <step>F</step>
                      <alter>1</alter>
                      <octave>4</octave>
                  </pitch>
                  <duration>6720</duration>
                  <voice>1</voice>
                  <type>quarter</type>
                  <accidental>sharp</accidental>
                  <stem default-y="-0.46">up</stem>
              </note>
              <note>
                  <pitch>
                      <step>A</step>
                      <octave>4</octave>
                  </pitch>
                  <duration>3360</duration>
                  <voice>1</voice>
                  <type>eighth</type>
                  <stem default-y="9.85">up</stem>
              </note>
          </measure>
          <!--==========================[1,7]=============================-->
          <measure number="7" width="264">
              <note>
                  <pitch>
                      <step>G</step>
                      <octave>4</octave>
                  </pitch>
                  <duration>10080</duration>
                  <voice>1</voice>
                  <type>quarter</type>
                  <dot/>
                  <stem default-y="4.54">up</stem>
              </note>
              <note>
                  <pitch>
                      <step>E</step>
                      <octave>4</octave>
                  </pitch>
                  <duration>3360</duration>
                  <tie type="start"/>
                  <voice>1</voice>
                  <type>eighth</type>
                  <stem default-y="-5.15">up</stem>
                  <notations>
                      <tied type="start" number="1" placement="below" orientation="under"/>
                  </notations>
              </note>
              <note>
                  <pitch>
                      <step>E</step>
                      <octave>4</octave>
                  </pitch>
                  <duration>3360</duration>
                  <tie type="stop"/>
                  <voice>1</voice>
                  <type>eighth</type>
                  <stem default-y="-5.15">up</stem>
                  <notations>
                      <tied type="stop" number="1"/>
                  </notations>
              </note>
              <note>
                  <pitch>
                      <step>C</step>
                      <octave>4</octave>
                  </pitch>
                  <duration>6720</duration>
                  <voice>1</voice>
                  <type>quarter</type>
                  <stem default-y="-15.46">up</stem>
              </note>
              <note>
                  <pitch>
                      <step>A</step>
                      <octave>3</octave>
                  </pitch>
                  <duration>3360</duration>
                  <voice>1</voice>
                  <type>eighth</type>
                  <stem default-y="-20.15">up</stem>
              </note>
          </measure>
          <!--==========================[1,8]=============================-->
          <measure number="8" width="278">
              <note>
                  <rest>
                  </rest>
                  <duration>26880</duration>
                  <voice>1</voice>
                  <type>whole</type>
              </note>
          </measure>
          <!--==========================[1,9]=============================-->
          <measure number="9" width="436">
              <print new-system="yes">
                  <system-layout>
                      <system-margins>
                          <left-margin>-1.476</left-margin>
                          <right-margin>0.000</right-margin>
                      </system-margins>
                      <system-distance>139.907</system-distance>
                  </system-layout>
              </print>
              <attributes>
                  <staff-details number="1" print-object="yes">
                  </staff-details>
              </attributes>
              <note>
                  <rest>
                  </rest>
                  <duration>3360</duration>
                  <voice>1</voice>
                  <type>eighth</type>
              </note>
              <note>
                  <pitch>
                      <step>E</step>
                      <octave>4</octave>
                  </pitch>
                  <duration>3360</duration>
                  <voice>1</voice>
                  <type>eighth</type>
                  <stem default-y="-0.15">up</stem>
              </note>
              <note>
                  <chord/>
                  <pitch>
                      <step>F</step>
                      <alter>1</alter>
                      <octave>4</octave>
                  </pitch>
                  <duration>3360</duration>
                  <voice>1</voice>
                  <type>eighth</type>
                  <accidental>sharp</accidental>
                  <stem default-y="-0.15">up</stem>
              </note>
              <note>
                  <pitch>
                      <step>E</step>
                      <octave>4</octave>
                  </pitch>
                  <duration>3360</duration>
                  <voice>1</voice>
                  <type>eighth</type>
                  <stem default-y="4.54">up</stem>
                  <beam number="1">begin</beam>
              </note>
              <note>
                  <chord/>
                  <pitch>
                      <step>F</step>
                      <alter>1</alter>
                      <octave>4</octave>
                  </pitch>
                  <duration>3360</duration>
                  <voice>1</voice>
                  <type>eighth</type>
                  <stem default-y="4.54">up</stem>
              </note>
              <note>
                  <pitch>
                      <step>E</step>
                      <octave>4</octave>
                  </pitch>
                  <duration>3360</duration>
                  <voice>1</voice>
                  <type>eighth</type>
                  <stem default-y="4.54">up</stem>
                  <beam number="1">end</beam>
              </note>
              <note>
                  <chord/>
                  <pitch>
                      <step>F</step>
                      <alter>1</alter>
                      <octave>4</octave>
                  </pitch>
                  <duration>3360</duration>
                  <voice>1</voice>
                  <type>eighth</type>
                  <stem default-y="4.54">up</stem>
              </note>
              <note>
                  <pitch>
                      <step>G</step>
                      <octave>4</octave>
                  </pitch>
                  <duration>3360</duration>
                  <voice>1</voice>
                  <type>eighth</type>
                  <stem default-y="4.85">up</stem>
              </note>
              <note>
                  <chord/>
                  <pitch>
                      <step>E</step>
                      <octave>4</octave>
                  </pitch>
                  <duration>3360</duration>
                  <voice>1</voice>
                  <type>eighth</type>
                  <stem default-y="4.85">up</stem>
              </note>
              <note>
                  <pitch>
                      <step>G</step>
                      <octave>4</octave>
                  </pitch>
                  <duration>10080</duration>
                  <voice>1</voice>
                  <type>quarter</type>
                  <dot/>
                  <stem default-y="14.54">up</stem>
              </note>
              <note>
                  <chord/>
                  <pitch>
                      <step>B</step>
                      <alter>-1</alter>
                      <octave>4</octave>
                  </pitch>
                  <duration>10080</duration>
                  <voice>1</voice>
                  <type>quarter</type>
                  <dot/>
                  <accidental>flat</accidental>
                  <stem default-y="14.54">up</stem>
              </note>
          </measure>
          <!--==========================[1,10]=============================-->
          <measure number="10" width="417">
              <note>
                  <pitch>
                      <step>D</step>
                      <alter>1</alter>
                      <octave>4</octave>
                  </pitch>
                  <duration>26880</duration>
                  <voice>1</voice>
                  <type>whole</type>
                  <accidental>sharp</accidental>
                  <stem>none</stem>
                  <notations>
                      <slur type="start" number="1" placement="below" orientation="under"/>
                  </notations>
              </note>
              <note>
                  <chord/>
                  <pitch>
                      <step>F</step>
                      <alter>1</alter>
                      <octave>4</octave>
                  </pitch>
                  <duration>26880</duration>
                  <voice>1</voice>
                  <type>whole</type>
                  <accidental>sharp</accidental>
                  <stem>none</stem>
                  <notations>
                      <slur type="start" number="2" placement="below" orientation="under"/>
                  </notations>
              </note>
              <note>
                  <chord/>
                  <pitch>
                      <step>B</step>
                      <octave>4</octave>
                  </pitch>
                  <duration>26880</duration>
                  <voice>1</voice>
                  <type>whole</type>
                  <accidental>natural</accidental>
                  <stem>none</stem>
                  <notations>
                      <slur type="start" number="3" placement="above" orientation="over"/>
                  </notations>
              </note>
          </measure>
      </part>
      <part id="P2">
          <!--==========================[2,1]=============================-->
          <measure number="1" width="337">
              <print new-system="yes">
                  <staff-layout number="1">
                      <staff-distance>60.000</staff-distance>
                  </staff-layout>
              </print>
              <attributes>
                  <divisions>6720</divisions>
                  <time>
                      <beats>4</beats>
                      <beat-type>4</beat-type>
                  </time>
                  <clef number="1">
                      <sign>F</sign>
                      <line>4</line>
                  </clef>
                  <staff-details number="1" print-object="yes">
                      <staff-lines>5</staff-lines>
                      <staff-size>100.00</staff-size>
                  </staff-details>
              </attributes>
              <note>
                  <rest>
                  </rest>
                  <duration>13440</duration>
                  <voice>1</voice>
                  <type>half</type>
              </note>
              <note>
                  <pitch>
                      <step>C</step>
                      <octave>3</octave>
                  </pitch>
                  <duration>13440</duration>
                  <voice>1</voice>
                  <type>half</type>
                  <stem default-y="9.54">up</stem>
              </note>
          </measure>
          <!--==========================[2,2]=============================-->
          <measure number="2" width="291">
              <note>
                  <pitch>
                      <step>F</step>
                      <alter>1</alter>
                      <octave>3</octave>
                  </pitch>
                  <duration>13440</duration>
                  <voice>1</voice>
                  <type>half</type>
                  <accidental>sharp</accidental>
                  <stem default-y="-45.56">down</stem>
              </note>
              <note>
                  <pitch>
                      <step>G</step>
                      <octave>3</octave>
                  </pitch>
                  <duration>13440</duration>
                  <voice>1</voice>
                  <type>half</type>
                  <stem default-y="-40.56">down</stem>
                  <notations>
                      <slur type="start" number="4" placement="above" orientation="over"/>
                  </notations>
              </note>
          </measure>
          <!--==========================[2,3]=============================-->
          <measure number="3" width="224">
              <note>
                  <pitch>
                      <step>G</step>
                      <octave>3</octave>
                  </pitch>
                  <duration>26880</duration>
                  <voice>1</voice>
                  <type>whole</type>
                  <stem>none</stem>
                  <notations>
                      <slur type="stop" number="4"/>
                  </notations>
              </note>
          </measure>
          <!--==========================[2,4]=============================-->
          <measure number="4" width="442">
              <print new-system="yes">
                  <staff-layout number="1">
                      <staff-distance>60.000</staff-distance>
                  </staff-layout>
              </print>
              <attributes>
                  <staff-details number="1" print-object="yes">
                  </staff-details>
              </attributes>
              <note>
                  <pitch>
                      <step>C</step>
                      <octave>3</octave>
                  </pitch>
                  <duration>10080</duration>
                  <voice>1</voice>
                  <type>quarter</type>
                  <dot/>
                  <stem default-y="9.54">up</stem>
              </note>
              <note>
                  <pitch>
                      <step>F</step>
                      <alter>1</alter>
                      <octave>2</octave>
                  </pitch>
                  <duration>3360</duration>
                  <voice>1</voice>
                  <type>eighth</type>
                  <accidental>sharp</accidental>
                  <stem default-y="-10.15">up</stem>
                  <notations>
                      <articulations>
                          <staccato placement="below" relative-x="6.45" relative-y="-2.26"/>
                      </articulations>
                  </notations>
              </note>
              <note>
                  <rest>
                  </rest>
                  <duration>13440</duration>
                  <voice>1</voice>
                  <type>half</type>
              </note>
          </measure>
          <!--==========================[2,5]=============================-->
          <measure number="5" width="410">
              <note>
                  <pitch>
                      <step>C</step>
                      <octave>3</octave>
                  </pitch>
                  <duration>10080</duration>
                  <voice>1</voice>
                  <type>quarter</type>
                  <dot/>
                  <stem default-y="9.54">up</stem>
              </note>
              <note>
                  <pitch>
                      <step>F</step>
                      <alter>1</alter>
                      <octave>2</octave>
                  </pitch>
                  <duration>3360</duration>
                  <voice>1</voice>
                  <type>eighth</type>
                  <accidental>sharp</accidental>
                  <stem default-y="-10.15">up</stem>
                  <notations>
                      <articulations>
                          <staccato placement="below" relative-x="6.45" relative-y="-2.26"/>
                      </articulations>
                  </notations>
              </note>
              <note>
                  <rest>
                  </rest>
                  <duration>13440</duration>
                  <voice>1</voice>
                  <type>half</type>
              </note>
          </measure>
          <!--==========================[2,6]=============================-->
          <measure number="6" width="310">
              <print new-system="yes">
                  <staff-layout number="1">
                      <staff-distance>60.000</staff-distance>
                  </staff-layout>
              </print>
              <attributes>
                  <staff-details number="1" print-object="yes">
                  </staff-details>
              </attributes>
              <note>
                  <pitch>
                      <step>C</step>
                      <octave>3</octave>
                  </pitch>
                  <duration>3360</duration>
                  <voice>1</voice>
                  <type>eighth</type>
                  <stem default-y="34.54">up</stem>
                  <beam number="1">begin</beam>
                  <notations>
                      <articulations>
                          <staccato placement="below" relative-x="6.45" relative-y="-2.26"/>
                      </articulations>
                  </notations>
              </note>
              <note>
                  <pitch>
                      <step>G</step>
                      <octave>3</octave>
                  </pitch>
                  <duration>3360</duration>
                  <voice>1</voice>
                  <type>eighth</type>
                  <stem default-y="34.54">up</stem>
                  <beam number="1">continue</beam>
                  <notations>
                      <articulations>
                          <staccato placement="below" relative-x="6.45" relative-y="-2.26"/>
                      </articulations>
                  </notations>
              </note>
              <note>
                  <pitch>
                      <step>G</step>
                      <octave>2</octave>
                  </pitch>
                  <duration>3360</duration>
                  <voice>1</voice>
                  <type>eighth</type>
                  <stem default-y="34.54">up</stem>
                  <beam number="1">continue</beam>
                  <notations>
                      <articulations>
                          <staccato placement="below" relative-x="6.45" relative-y="-2.26"/>
                      </articulations>
                  </notations>
              </note>
              <note>
                  <pitch>
                      <step>G</step>
                      <octave>3</octave>
                  </pitch>
                  <duration>3360</duration>
                  <voice>1</voice>
                  <type>eighth</type>
                  <stem default-y="34.54">up</stem>
                  <beam number="1">end</beam>
                  <notations>
                      <articulations>
                          <staccato placement="below" relative-x="6.45" relative-y="-2.26"/>
                      </articulations>
                  </notations>
              </note>
              <note>
                  <pitch>
                      <step>C</step>
                      <octave>3</octave>
                  </pitch>
                  <duration>3360</duration>
                  <voice>1</voice>
                  <type>eighth</type>
                  <stem default-y="34.54">up</stem>
                  <beam number="1">begin</beam>
                  <notations>
                      <articulations>
                          <staccato placement="below" relative-x="6.45" relative-y="-2.26"/>
                      </articulations>
                  </notations>
              </note>
              <note>
                  <pitch>
                      <step>G</step>
                      <octave>3</octave>
                  </pitch>
                  <duration>3360</duration>
                  <voice>1</voice>
                  <type>eighth</type>
                  <stem default-y="34.54">up</stem>
                  <beam number="1">continue</beam>
                  <notations>
                      <articulations>
                          <staccato placement="below" relative-x="6.45" relative-y="-2.26"/>
                      </articulations>
                  </notations>
              </note>
              <note>
                  <pitch>
                      <step>G</step>
                      <octave>2</octave>
                  </pitch>
                  <duration>3360</duration>
                  <voice>1</voice>
                  <type>eighth</type>
                  <stem default-y="34.54">up</stem>
                  <beam number="1">continue</beam>
                  <notations>
                      <articulations>
                          <staccato placement="below" relative-x="6.45" relative-y="-2.26"/>
                      </articulations>
                  </notations>
              </note>
              <note>
                  <pitch>
                      <step>G</step>
                      <octave>3</octave>
                  </pitch>
                  <duration>3360</duration>
                  <voice>1</voice>
                  <type>eighth</type>
                  <stem default-y="34.54">up</stem>
                  <beam number="1">end</beam>
                  <notations>
                      <articulations>
                          <staccato placement="below" relative-x="6.45" relative-y="-2.26"/>
                      </articulations>
                  </notations>
              </note>
          </measure>
          <!--==========================[2,7]=============================-->
          <measure number="7" width="264">
              <note>
                  <pitch>
                      <step>C</step>
                      <octave>3</octave>
                  </pitch>
                  <duration>3360</duration>
                  <voice>1</voice>
                  <type>eighth</type>
                  <stem default-y="34.54">up</stem>
                  <beam number="1">begin</beam>
                  <notations>
                      <articulations>
                          <staccato placement="below" relative-x="6.45" relative-y="-2.26"/>
                      </articulations>
                  </notations>
              </note>
              <note>
                  <pitch>
                      <step>G</step>
                      <octave>3</octave>
                  </pitch>
                  <duration>3360</duration>
                  <voice>1</voice>
                  <type>eighth</type>
                  <stem default-y="34.54">up</stem>
                  <beam number="1">continue</beam>
                  <notations>
                      <articulations>
                          <staccato placement="below" relative-x="6.45" relative-y="-2.26"/>
                      </articulations>
                  </notations>
              </note>
              <note>
                  <pitch>
                      <step>G</step>
                      <octave>2</octave>
                  </pitch>
                  <duration>3360</duration>
                  <voice>1</voice>
                  <type>eighth</type>
                  <stem default-y="34.54">up</stem>
                  <beam number="1">continue</beam>
                  <notations>
                      <articulations>
                          <staccato placement="below" relative-x="6.45" relative-y="-2.26"/>
                      </articulations>
                  </notations>
              </note>
              <note>
                  <pitch>
                      <step>G</step>
                      <octave>3</octave>
                  </pitch>
                  <duration>3360</duration>
                  <voice>1</voice>
                  <type>eighth</type>
                  <stem default-y="34.54">up</stem>
                  <beam number="1">end</beam>
                  <notations>
                      <articulations>
                          <staccato placement="below" relative-x="6.45" relative-y="-2.26"/>
                      </articulations>
                  </notations>
              </note>
              <note>
                  <pitch>
                      <step>C</step>
                      <octave>3</octave>
                  </pitch>
                  <duration>3360</duration>
                  <voice>1</voice>
                  <type>eighth</type>
                  <stem default-y="34.54">up</stem>
                  <beam number="1">begin</beam>
                  <notations>
                      <articulations>
                          <staccato placement="below" relative-x="6.45" relative-y="-2.26"/>
                      </articulations>
                  </notations>
              </note>
              <note>
                  <pitch>
                      <step>G</step>
                      <octave>3</octave>
                  </pitch>
                  <duration>3360</duration>
                  <voice>1</voice>
                  <type>eighth</type>
                  <stem default-y="34.54">up</stem>
                  <beam number="1">continue</beam>
                  <notations>
                      <articulations>
                          <staccato placement="below" relative-x="6.45" relative-y="-2.26"/>
                      </articulations>
                  </notations>
              </note>
              <note>
                  <pitch>
                      <step>G</step>
                      <octave>2</octave>
                  </pitch>
                  <duration>3360</duration>
                  <voice>1</voice>
                  <type>eighth</type>
                  <stem default-y="34.54">up</stem>
                  <beam number="1">continue</beam>
                  <notations>
                      <articulations>
                          <staccato placement="below" relative-x="6.45" relative-y="-2.26"/>
                      </articulations>
                  </notations>
              </note>
              <note>
                  <pitch>
                      <step>G</step>
                      <octave>3</octave>
                  </pitch>
                  <duration>3360</duration>
                  <voice>1</voice>
                  <type>eighth</type>
                  <stem default-y="34.54">up</stem>
                  <beam number="1">end</beam>
                  <notations>
                      <articulations>
                          <staccato placement="below" relative-x="6.45" relative-y="-2.26"/>
                      </articulations>
                  </notations>
              </note>
          </measure>
          <!--==========================[2,8]=============================-->
          <measure number="8" width="278">
              <note>
                  <pitch>
                      <step>F</step>
                      <alter>1</alter>
                      <octave>3</octave>
                  </pitch>
                  <duration>3360</duration>
                  <voice>1</voice>
                  <type>eighth</type>
                  <accidental>sharp</accidental>
                  <stem default-y="34.54">up</stem>
                  <beam number="1">begin</beam>
              </note>
              <note>
                  <chord/>
                  <pitch>
                      <step>C</step>
                      <octave>3</octave>
                  </pitch>
                  <duration>3360</duration>
                  <voice>1</voice>
                  <type>eighth</type>
                  <stem default-y="34.54">up</stem>
              </note>
              <note>
                  <pitch>
                      <step>F</step>
                      <alter>1</alter>
                      <octave>3</octave>
                  </pitch>
                  <duration>3360</duration>
                  <voice>1</voice>
                  <type>eighth</type>
                  <stem default-y="34.54">up</stem>
                  <beam number="1">continue</beam>
              </note>
              <note>
                  <pitch>
                      <step>F</step>
                      <alter>1</alter>
                      <octave>3</octave>
                  </pitch>
                  <duration>3360</duration>
                  <voice>1</voice>
                  <type>eighth</type>
                  <stem default-y="34.54">up</stem>
                  <beam number="1">continue</beam>
              </note>
              <note>
                  <pitch>
                      <step>F</step>
                      <alter>1</alter>
                      <octave>2</octave>
                  </pitch>
                  <duration>3360</duration>
                  <voice>1</voice>
                  <type>eighth</type>
                  <accidental>sharp</accidental>
                  <stem default-y="34.54">up</stem>
                  <beam number="1">end</beam>
              </note>
              <note>
                  <chord/>
                  <pitch>
                      <step>G</step>
                      <octave>3</octave>
                  </pitch>
                  <duration>3360</duration>
                  <voice>1</voice>
                  <type>eighth</type>
                  <stem default-y="34.54">up</stem>
              </note>
              <note>
                  <rest>
                  </rest>
                  <duration>3360</duration>
                  <voice>1</voice>
                  <type>eighth</type>
              </note>
              <note>
                  <pitch>
                      <step>F</step>
                      <alter>1</alter>
                      <octave>2</octave>
                  </pitch>
                  <duration>3360</duration>
                  <voice>1</voice>
                  <type>eighth</type>
                  <stem default-y="-10.15">up</stem>
              </note>
              <note>
                  <rest>
                  </rest>
                  <duration>3360</duration>
                  <voice>1</voice>
                  <type>eighth</type>
              </note>
              <note>
                  <pitch>
                      <step>F</step>
                      <alter>1</alter>
                      <octave>2</octave>
                  </pitch>
                  <duration>3360</duration>
                  <voice>1</voice>
                  <type>eighth</type>
                  <stem default-y="-10.15">up</stem>
              </note>
          </measure>
          <!--==========================[2,9]=============================-->
          <measure number="9" width="436">
              <print new-system="yes">
                  <staff-layout number="1">
                      <staff-distance>60.000</staff-distance>
                  </staff-layout>
              </print>
              <attributes>
                  <staff-details number="1" print-object="yes">
                  </staff-details>
              </attributes>
              <note>
                  <pitch>
                      <step>C</step>
                      <octave>3</octave>
                  </pitch>
                  <duration>3360</duration>
                  <voice>1</voice>
                  <type>eighth</type>
                  <stem default-y="9.85">up</stem>
                  <notations>
                      <articulations>
                          <staccato placement="below" relative-x="6.45" relative-y="-2.26"/>
                      </articulations>
                  </notations>
              </note>
              <note>
                  <rest>
                  </rest>
                  <duration>3360</duration>
                  <voice>1</voice>
                  <type>eighth</type>
              </note>
              <note>
                  <rest>
                  </rest>
                  <duration>3360</duration>
                  <voice>1</voice>
                  <type>eighth</type>
              </note>
              <note>
                  <pitch>
                      <step>F</step>
                      <alter>1</alter>
                      <octave>2</octave>
                  </pitch>
                  <duration>3360</duration>
                  <voice>1</voice>
                  <type>eighth</type>
                  <accidental>sharp</accidental>
                  <stem default-y="-10.15">up</stem>
                  <notations>
                      <articulations>
                          <staccato placement="below" relative-x="6.46" relative-y="-2.26"/>
                      </articulations>
                  </notations>
              </note>
              <direction placement="below">
                  <direction-type>
                      <words font-family="Times New Roman" font-size="8" font-weight="normal" font-style="normal" relative-x="33.89" default-y="-118.38">Copyright</words>
                  </direction-type>
              </direction>
              <note>
                  <rest>
                  </rest>
                  <duration>13440</duration>
                  <voice>1</voice>
                  <type>half</type>
              </note>
          </measure>
          <!--==========================[2,10]=============================-->
          <measure number="10" width="417">
              <note>
                  <pitch>
                      <step>B</step>
                      <octave>2</octave>
                  </pitch>
                  <duration>3360</duration>
                  <voice>1</voice>
                  <type>eighth</type>
                  <stem default-y="29.54">up</stem>
                  <beam number="1">begin</beam>
                  <notations>
                      <articulations>
                          <staccato placement="below" relative-x="6.45" relative-y="-2.26"/>
                      </articulations>
                  </notations>
              </note>
              <note>
                  <pitch>
                      <step>F</step>
                      <alter>1</alter>
                      <octave>3</octave>
                  </pitch>
                  <duration>3360</duration>
                  <voice>1</voice>
                  <type>eighth</type>
                  <accidental>sharp</accidental>
                  <stem default-y="29.54">up</stem>
                  <beam number="1">continue</beam>
                  <notations>
                      <articulations>
                          <staccato placement="below" relative-x="6.46" relative-y="-2.26"/>
                      </articulations>
                  </notations>
              </note>
              <note>
                  <pitch>
                      <step>F</step>
                      <alter>1</alter>
                      <octave>2</octave>
                  </pitch>
                  <duration>3360</duration>
                  <voice>1</voice>
                  <type>eighth</type>
                  <accidental>sharp</accidental>
                  <stem default-y="29.54">up</stem>
                  <beam number="1">continue</beam>
                  <notations>
                      <articulations>
                          <staccato placement="below" relative-x="6.46" relative-y="-2.26"/>
                      </articulations>
                  </notations>
              </note>
              <note>
                  <pitch>
                      <step>F</step>
                      <alter>1</alter>
                      <octave>3</octave>
                  </pitch>
                  <duration>3360</duration>
                  <voice>1</voice>
                  <type>eighth</type>
                  <stem default-y="29.54">up</stem>
                  <beam number="1">end</beam>
                  <notations>
                      <articulations>
                          <staccato placement="below" relative-x="6.45" relative-y="-2.26"/>
                      </articulations>
                  </notations>
              </note>
              <note>
                  <pitch>
                      <step>B</step>
                      <octave>2</octave>
                  </pitch>
                  <duration>3360</duration>
                  <voice>1</voice>
                  <type>eighth</type>
                  <stem default-y="29.54">up</stem>
                  <beam number="1">begin</beam>
                  <notations>
                      <articulations>
                          <staccato placement="below" relative-x="6.45" relative-y="-2.26"/>
                      </articulations>
                  </notations>
              </note>
              <note>
                  <pitch>
                      <step>F</step>
                      <alter>1</alter>
                      <octave>3</octave>
                  </pitch>
                  <duration>3360</duration>
                  <voice>1</voice>
                  <type>eighth</type>
                  <stem default-y="29.54">up</stem>
                  <beam number="1">continue</beam>
                  <notations>
                      <articulations>
                          <staccato placement="below" relative-x="6.45" relative-y="-2.26"/>
                      </articulations>
                  </notations>
              </note>
              <note>
                  <pitch>
                      <step>F</step>
                      <alter>1</alter>
                      <octave>2</octave>
                  </pitch>
                  <duration>3360</duration>
                  <voice>1</voice>
                  <type>eighth</type>
                  <stem default-y="29.54">up</stem>
                  <beam number="1">continue</beam>
                  <notations>
                      <articulations>
                          <staccato placement="below" relative-x="6.45" relative-y="-2.26"/>
                      </articulations>
                  </notations>
              </note>
              <direction placement="below">
                  <direction-type>
                      <words font-family="Times New Roman" font-size="8" font-weight="normal" font-style="normal" relative-x="-158.90" default-y="-118.38"></words>
                  </direction-type>
                  <offset>-23520.00</offset>
              </direction>
              <direction placement="below">
                  <direction-type>
                      <words font-family="Times New Roman" font-size="8" font-weight="normal" font-style="normal" relative-x="-143.03" default-y="-118.38">&lt;Year&gt;</words>
                  </direction-type>
                  <offset>-23520.00</offset>
              </direction>
              <direction placement="below">
                  <direction-type>
                      <words font-family="Times New Roman" font-size="8" font-weight="normal" font-style="normal" relative-x="-90.45" default-y="-118.38">by</words>
                  </direction-type>
                  <offset>-23520.00</offset>
              </direction>
              <direction placement="below">
                  <direction-type>
                      <words font-family="Times New Roman" font-size="8" font-weight="normal" font-style="normal" relative-x="-70.19" default-y="-118.38">&lt;Name&gt;</words>
                  </direction-type>
                  <offset>-23520.00</offset>
              </direction>
              <note>
                  <pitch>
                      <step>F</step>
                      <alter>1</alter>
                      <octave>3</octave>
                  </pitch>
                  <duration>3360</duration>
                  <voice>1</voice>
                  <type>eighth</type>
                  <stem default-y="29.54">up</stem>
                  <beam number="1">end</beam>
                  <notations>
                      <slur type="stop" number="1"/>
                      <slur type="stop" number="2"/>
                      <slur type="stop" number="3"/>
                      <articulations>
                          <staccato placement="below" relative-x="6.45" relative-y="-2.26"/>
                      </articulations>
                  </notations>
              </note>
          </measure>
      </part>
  </score-partwise>
