<?xml version="1.0" encoding="UTF-8"?>
<!DOCTYPE score-partwise PUBLIC "-//Recordare//DTD MusicXML 3.0 Partwise//EN" "http://www.musicxml.org/dtds/partwise.dtd">
<score-partwise version="3.0">
  <movement-title>Quem queritis</movement-title>
      <identification>
          <creator type="composer">Eduardo Souto Neto              </creator>
          <encoding>
              <software>Encore</software>
          </encoding>
      </identification>
      <defaults>
          <scaling>
              <millimeters>6.35</millimeters>
              <tenths>40</tenths>
          </scaling>
      </defaults>
      <credit>
          <credit-words justify="right" valign="top">Eduardo Souto Neto              </credit-words>
      </credit>
      <part-list>
          <part-group type="start" number="1">
              <group-symbol>brace</group-symbol>
              <group-barline>yes</group-barline>
          </part-group>
          <score-part id="P1">
              <part-name></part-name>
              <score-instrument id="P1-I2">
                  <instrument-name>NONE</instrument-name>
              </score-instrument>
              <midi-instrument id="P1-I2">
                  <midi-channel>1</midi-channel>
              </midi-instrument>
          </score-part>
          <part-group type="stop" number="1"/>
      </part-list>
      <!--=========================================================-->
      <part id="P1">
          <measure  number="1">
              <attributes>
                  <divisions>240</divisions>
                  <key>
                      <fifths>0</fifths>
                  </key>
                  <time>
                      <beats>4</beats>
                      <beat-type>4</beat-type>
                  </time>
                  <staves>1</staves>
                  <clef number="1">
                      <sign>G</sign>
                      <line>2</line>
                  </clef>
                  <transpose>
                      <chromatic>0</chromatic>
                  </transpose>
              </attributes>
              <forward>
                  <duration>9</duration>
              </forward>
              <!--=========== CHORD HERE ==================-->
              <note>
                  <pitch>
                      <step>E</step>
                      <octave>5</octave>
                  </pitch>
                  <duration>120</duration>
                  <voice>1</voice>
                  <type>eighth</type>
                  <stem>down</stem>
                  <staff>1</staff>
                  <beam number="1">begin</beam>
                  <notations>
                  </notations>
              </note>
              <note>
                  <chord/>
                  <pitch>
                      <step>C</step>
                      <octave>5</octave>
                  </pitch>
                  <duration>120</duration>
                  <voice>1</voice>
                  <type>eighth</type>
                  <stem>down</stem>
                  <staff>1</staff>
                  <notations>
                  </notations>
              </note>
              <note>
                  <chord/>
                  <pitch>
                      <step>G</step>
                      <octave>4</octave>
                  </pitch>
                  <duration>120</duration>
                  <voice>1</voice>
                  <type>eighth</type>
                  <stem>down</stem>
                  <staff>1</staff>
                  <notations>
                  </notations>
              </note>
              <backup>
                  <duration>120</duration>
              </backup>
              <forward>
                  <duration>123</duration>
              </forward>
              <note>
                  <pitch>
                      <step>E</step>
                      <octave>5</octave>
                  </pitch>
                  <duration>120</duration>
                  <voice>1</voice>
                  <type>eighth</type>
                  <stem>down</stem>
                  <staff>1</staff>
                  <beam number="1">end</beam>
                  <notations>
                  </notations>
              </note>
              <note>
                  <chord/>
                  <pitch>
                      <step>C</step>
                      <octave>5</octave>
                  </pitch>
                  <duration>120</duration>
                  <voice>1</voice>
                  <type>eighth</type>
                  <stem>down</stem>
                  <staff>1</staff>
                  <notations>
                  </notations>
              </note>
              <note>
                  <chord/>
                  <pitch>
                      <step>G</step>
                      <octave>4</octave>
                  </pitch>
                  <duration>120</duration>
                  <voice>1</voice>
                  <type>eighth</type>
                  <stem>down</stem>
                  <staff>1</staff>
                  <notations>
                  </notations>
              </note>
              <backup>
                  <duration>3</duration>
              </backup>
              <note>
                  <pitch>
                      <step>D</step>
                      <octave>5</octave>
                  </pitch>
                  <duration>720</duration>
                  <voice>1</voice>
                  <type>half</type>
                  <dot/>
                  <stem>down</stem>
                  <staff>1</staff>
                  <notations>
                  </notations>
              </note>
              <note>
                  <chord/>
                  <pitch>
                      <step>G</step>
                      <octave>4</octave>
                  </pitch>
                  <duration>720</duration>
                  <voice>1</voice>
                  <type>half</type>
                  <dot/>
                  <stem>down</stem>
                  <staff>1</staff>
                  <notations>
                  </notations>
              </note>
              <note>
                  <chord/>
                  <pitch>
                      <step>B</step>
                      <octave>4</octave>
                  </pitch>
                  <duration>720</duration>
                  <voice>1</voice>
                  <type>half</type>
                  <dot/>
                  <stem>down</stem>
                  <staff>1</staff>
                  <notations>
                  </notations>
              </note>
              <backup>
                  <duration>2</duration>
              </backup>
              <!--=========== CHORD HERE ==================-->
          </measure>
          <measure  number="2">
              <attributes>
              </attributes>
              <!--=========== CHORD HERE ==================-->
              <note>
                  <pitch>
                      <step>D</step>
                      <octave>5</octave>
                  </pitch>
                  <duration>120</duration>
                  <voice>1</voice>
                  <type>eighth</type>
                  <stem>down</stem>
                  <staff>1</staff>
                  <beam number="1">begin</beam>
                  <notations>
                  </notations>
              </note>
              <note>
                  <chord/>
                  <pitch>
                      <step>F</step>
                      <octave>4</octave>
                  </pitch>
                  <duration>120</duration>
                  <voice>1</voice>
                  <type>eighth</type>
                  <stem>down</stem>
                  <staff>1</staff>
                  <notations>
                  </notations>
              </note>
              <note>
                  <chord/>
                  <pitch>
                      <step>B</step>
                      <alter>-1</alter>
                      <octave>4</octave>
                  </pitch>
                  <duration>120</duration>
                  <voice>1</voice>
                  <type>eighth</type>
                  <accidental cautionary="no">flat</accidental>
                  <stem>down</stem>
                  <staff>1</staff>
                  <notations>
                  </notations>
              </note>
              <backup>
                  <duration>120</duration>
              </backup>
              <forward>
                  <duration>114</duration>
              </forward>
              <note>
                  <pitch>
                      <step>D</step>
                      <octave>5</octave>
                  </pitch>
                  <duration>120</duration>
                  <voice>1</voice>
                  <type>eighth</type>
                  <stem>down</stem>
                  <staff>1</staff>
                  <beam number="1">end</beam>
                  <notations>
                  </notations>
              </note>
              <note>
                  <chord/>
                  <pitch>
                      <step>B</step>
                      <alter>-1</alter>
                      <octave>4</octave>
                  </pitch>
                  <duration>120</duration>
                  <voice>1</voice>
                  <type>eighth</type>
                  <stem>down</stem>
                  <staff>1</staff>
                  <notations>
                  </notations>
              </note>
              <note>
                  <chord/>
                  <pitch>
                      <step>F</step>
                      <octave>4</octave>
                  </pitch>
                  <duration>120</duration>
                  <voice>1</voice>
                  <type>eighth</type>
                  <stem>down</stem>
                  <staff>1</staff>
                  <notations>
                  </notations>
              </note>
              <forward>
                  <duration>1</duration>
              </forward>
              <note>
                  <pitch>
                      <step>C</step>
                      <octave>5</octave>
                  </pitch>
                  <duration>720</duration>
                  <voice>1</voice>
                  <type>half</type>
                  <dot/>
                  <stem>down</stem>
                  <staff>1</staff>
                  <notations>
                  </notations>
              </note>
              <note>
                  <chord/>
                  <pitch>
                      <step>F</step>
                      <octave>4</octave>
                  </pitch>
                  <duration>720</duration>
                  <voice>1</voice>
                  <type>half</type>
                  <dot/>
                  <stem>down</stem>
                  <staff>1</staff>
                  <notations>
                  </notations>
              </note>
              <note>
                  <chord/>
                  <pitch>
                      <step>A</step>
                      <octave>4</octave>
                  </pitch>
                  <duration>720</duration>
                  <voice>1</voice>
                  <type>half</type>
                  <dot/>
                  <stem>down</stem>
                  <staff>1</staff>
                  <notations>
                  </notations>
              </note>
              <backup>
                  <duration>719</duration>
              </backup>
              <!--=========== CHORD HERE ==================-->
          </measure>
          <measure  number="3">
              <attributes>
              </attributes>
              <forward>
                  <duration>1</duration>
              </forward>
              <!--=========== CHORD HERE ==================-->
              <note>
                  <pitch>
                      <step>E</step>
                      <octave>5</octave>
                  </pitch>
                  <duration>120</duration>
                  <voice>1</voice>
                  <type>eighth</type>
                  <stem>down</stem>
                  <staff>1</staff>
                  <beam number="1">begin</beam>
                  <notations>
                  </notations>
              </note>
              <note>
                  <chord/>
                  <pitch>
                      <step>C</step>
                      <octave>5</octave>
                  </pitch>
                  <duration>120</duration>
                  <voice>1</voice>
                  <type>eighth</type>
                  <stem>down</stem>
                  <staff>1</staff>
                  <notations>
                  </notations>
              </note>
              <note>
                  <chord/>
                  <pitch>
                      <step>G</step>
                      <octave>4</octave>
                  </pitch>
                  <duration>120</duration>
                  <voice>1</voice>
                  <type>eighth</type>
                  <stem>down</stem>
                  <staff>1</staff>
                  <notations>
                  </notations>
              </note>
              <backup>
                  <duration>120</duration>
              </backup>
              <forward>
                  <duration>123</duration>
              </forward>
              <note>
                  <pitch>
                      <step>E</step>
                      <octave>5</octave>
                  </pitch>
                  <duration>120</duration>
                  <voice>1</voice>
                  <type>eighth</type>
                  <stem>down</stem>
                  <staff>1</staff>
                  <beam number="1">end</beam>
                  <notations>
                  </notations>
              </note>
              <note>
                  <chord/>
                  <pitch>
                      <step>C</step>
                      <octave>5</octave>
                  </pitch>
                  <duration>120</duration>
                  <voice>1</voice>
                  <type>eighth</type>
                  <stem>down</stem>
                  <staff>1</staff>
                  <notations>
                  </notations>
              </note>
              <note>
                  <chord/>
                  <pitch>
                      <step>G</step>
                      <octave>4</octave>
                  </pitch>
                  <duration>120</duration>
                  <voice>1</voice>
                  <type>eighth</type>
                  <stem>down</stem>
                  <staff>1</staff>
                  <notations>
                  </notations>
              </note>
              <backup>
                  <duration>3</duration>
              </backup>
              <note>
                  <pitch>
                      <step>D</step>
                      <octave>5</octave>
                  </pitch>
                  <duration>720</duration>
                  <voice>1</voice>
                  <type>half</type>
                  <dot/>
                  <stem>down</stem>
                  <staff>1</staff>
                  <notations>
                  </notations>
              </note>
              <note>
                  <chord/>
                  <pitch>
                      <step>G</step>
                      <octave>4</octave>
                  </pitch>
                  <duration>720</duration>
                  <voice>1</voice>
                  <type>half</type>
                  <dot/>
                  <stem>down</stem>
                  <staff>1</staff>
                  <notations>
                  </notations>
              </note>
              <note>
                  <chord/>
                  <pitch>
                      <step>B</step>
                      <octave>4</octave>
                  </pitch>
                  <duration>720</duration>
                  <voice>1</voice>
                  <type>half</type>
                  <dot/>
                  <stem>down</stem>
                  <staff>1</staff>
                  <notations>
                  </notations>
              </note>
              <backup>
                  <duration>2</duration>
              </backup>
              <!--=========== CHORD HERE ==================-->
          </measure>
          <measure  number="4">
              <attributes>
              </attributes>
              <!--=========== CHORD HERE ==================-->
              <note>
                  <pitch>
                      <step>D</step>
                      <octave>5</octave>
                  </pitch>
                  <duration>120</duration>
                  <voice>1</voice>
                  <type>eighth</type>
                  <stem>down</stem>
                  <staff>1</staff>
                  <beam number="1">begin</beam>
                  <notations>
                  </notations>
              </note>
              <note>
                  <chord/>
                  <pitch>
                      <step>B</step>
                      <alter>-1</alter>
                      <octave>4</octave>
                  </pitch>
                  <duration>120</duration>
                  <voice>1</voice>
                  <type>eighth</type>
                  <accidental cautionary="no">flat</accidental>
                  <stem>down</stem>
                  <staff>1</staff>
                  <notations>
                  </notations>
              </note>
              <note>
                  <chord/>
                  <pitch>
                      <step>F</step>
                      <octave>4</octave>
                  </pitch>
                  <duration>120</duration>
                  <voice>1</voice>
                  <type>eighth</type>
                  <stem>down</stem>
                  <staff>1</staff>
                  <notations>
                  </notations>
              </note>
              <backup>
                  <duration>120</duration>
              </backup>
              <direction placement="above">
                  <direction-type>
                      <segno/>
                  </direction-type>
                  <voice>1</voice>
                  <staff>1</staff>
              </direction>
              <forward>
                  <duration>114</duration>
              </forward>
              <note>
                  <pitch>
                      <step>D</step>
                      <octave>5</octave>
                  </pitch>
                  <duration>120</duration>
                  <voice>1</voice>
                  <type>eighth</type>
                  <stem>down</stem>
                  <staff>1</staff>
                  <beam number="1">end</beam>
                  <notations>
                  </notations>
              </note>
              <note>
                  <chord/>
                  <pitch>
                      <step>B</step>
                      <alter>-1</alter>
                      <octave>4</octave>
                  </pitch>
                  <duration>120</duration>
                  <voice>1</voice>
                  <type>eighth</type>
                  <stem>down</stem>
                  <staff>1</staff>
                  <notations>
                  </notations>
              </note>
              <note>
                  <chord/>
                  <pitch>
                      <step>F</step>
                      <octave>4</octave>
                  </pitch>
                  <duration>120</duration>
                  <voice>1</voice>
                  <type>eighth</type>
                  <stem>down</stem>
                  <staff>1</staff>
                  <notations>
                  </notations>
              </note>
              <note>
                  <pitch>
                      <step>C</step>
                      <octave>5</octave>
                  </pitch>
                  <duration>480</duration>
                  <voice>1</voice>
                  <type>half</type>
                  <stem>down</stem>
                  <staff>1</staff>
                  <notations>
                  </notations>
              </note>
              <note>
                  <chord/>
                  <pitch>
                      <step>F</step>
                      <octave>4</octave>
                  </pitch>
                  <duration>480</duration>
                  <voice>1</voice>
                  <type>half</type>
                  <stem>down</stem>
                  <staff>1</staff>
                  <notations>
                  </notations>
              </note>
              <note>
                  <chord/>
                  <pitch>
                      <step>A</step>
                      <octave>4</octave>
                  </pitch>
                  <duration>480</duration>
                  <voice>1</voice>
                  <type>half</type>
                  <stem>down</stem>
                  <staff>1</staff>
                  <notations>
                  </notations>
              </note>
              <!--=========== CHORD HERE ==================-->
              <note>
                  <pitch>
                      <step>G</step>
                      <octave>3</octave>
                  </pitch>
                  <duration>240</duration>
                  <voice>1</voice>
                  <type>quarter</type>
                  <stem>up</stem>
                  <staff>1</staff>
                  <notations>
                  </notations>
              </note>
          </measure>
          <measure  number="5">
              <attributes>
              </attributes>
              <!--=========== CHORD HERE ==================-->
              <note>
                  <pitch>
                      <step>E</step>
                      <octave>4</octave>
                  </pitch>
                  <duration>960</duration>
                  <voice>1</voice>
                  <type>whole</type>
                  <stem>up</stem>
                  <staff>1</staff>
                  <notations>
                  </notations>
              </note>
          </measure>
          <measure  number="6">
              <attributes>
              </attributes>
              <!--=========== CHORD HERE ==================-->
              <note>
                  <pitch>
                      <step>E</step>
                      <octave>4</octave>
                  </pitch>
                  <duration>240</duration>
                  <voice>1</voice>
                  <type>quarter</type>
                  <stem>up</stem>
                  <staff>1</staff>
                  <notations>
                  </notations>
              </note>
              <forward>
                  <duration>2</duration>
              </forward>
              <note>
                  <pitch>
                      <step>F</step>
                      <octave>4</octave>
                  </pitch>
                  <duration>120</duration>
                  <voice>1</voice>
                  <type>eighth</type>
                  <stem>up</stem>
                  <staff>1</staff>
                  <beam number="1">begin</beam>
                  <notations>
                  </notations>
              </note>
              <backup>
                  <duration>120</duration>
              </backup>
              <forward>
                  <duration>121</duration>
              </forward>
              <note>
                  <pitch>
                      <step>G</step>
                      <octave>4</octave>
                  </pitch>
                  <duration>120</duration>
                  <tie type="start"/>
                  <voice>1</voice>
                  <type>eighth</type>
                  <stem>up</stem>
                  <staff>1</staff>
                  <beam number="1">end</beam>
                  <notations>
                      <tied type="start"/>
                  </notations>
              </note>
              <backup>
                  <duration>120</duration>
              </backup>
              <forward>
                  <duration>117</duration>
              </forward>
              <note>
                  <pitch>
                      <step>G</step>
                      <octave>4</octave>
                  </pitch>
                  <duration>120</duration>
                  <tie type="stop"/>
                  <voice>1</voice>
                  <type>eighth</type>
                  <stem>up</stem>
                  <staff>1</staff>
                  <beam number="1">begin</beam>
                  <notations>
                      <tied type="stop"/>
                  </notations>
              </note>
              <backup>
                  <duration>120</duration>
              </backup>
              <forward>
                  <duration>118</duration>
              </forward>
              <note>
                  <pitch>
                      <step>F</step>
                      <octave>4</octave>
                  </pitch>
                  <duration>120</duration>
                  <voice>1</voice>
                  <type>eighth</type>
                  <stem>up</stem>
                  <staff>1</staff>
                  <beam number="1">end</beam>
                  <notations>
                  </notations>
              </note>
              <forward>
                  <duration>13</duration>
              </forward>
              <note>
                  <pitch>
                      <step>E</step>
                      <octave>4</octave>
                  </pitch>
                  <duration>240</duration>
                  <voice>1</voice>
                  <type>quarter</type>
                  <stem>up</stem>
                  <staff>1</staff>
                  <notations>
                  </notations>
              </note>
          </measure>
          <measure  number="7">
              <attributes>
              </attributes>
              <!--=========== CHORD HERE ==================-->
              <note>
                  <pitch>
                      <step>D</step>
                      <octave>4</octave>
                  </pitch>
                  <duration>960</duration>
                  <voice>1</voice>
                  <type>whole</type>
                  <stem>up</stem>
                  <staff>1</staff>
                  <notations>
                  </notations>
              </note>
          </measure>
          <measure  number="8">
              <attributes>
              </attributes>
              <forward>
                  <duration>2</duration>
              </forward>
              <!--=========== CHORD HERE ==================-->
              <note>
                  <pitch>
                      <step>F</step>
                      <octave>4</octave>
                  </pitch>
                  <duration>240</duration>
                  <voice>1</voice>
                  <type>quarter</type>
                  <stem>up</stem>
                  <staff>1</staff>
                  <notations>
                  </notations>
              </note>
              <forward>
                  <duration>8</duration>
              </forward>
              <note>
                  <pitch>
                      <step>G</step>
                      <octave>4</octave>
                  </pitch>
                  <duration>240</duration>
                  <voice>1</voice>
                  <type>quarter</type>
                  <stem>up</stem>
                  <staff>1</staff>
                  <notations>
                  </notations>
              </note>
              <backup>
                  <duration>9</duration>
              </backup>
              <note>
                  <pitch>
                      <step>A</step>
                      <octave>4</octave>
                  </pitch>
                  <duration>240</duration>
                  <voice>1</voice>
                  <type>quarter</type>
                  <stem>up</stem>
                  <staff>1</staff>
                  <notations>
                  </notations>
              </note>
              <forward>
                  <duration>1</duration>
              </forward>
              <note>
                  <pitch>
                      <step>F</step>
                      <octave>4</octave>
                  </pitch>
                  <duration>240</duration>
                  <voice>1</voice>
                  <type>quarter</type>
                  <stem>up</stem>
                  <staff>1</staff>
                  <notations>
                  </notations>
              </note>
          </measure>
          <measure  number="9">
              <attributes>
              </attributes>
              <forward>
                  <duration>4</duration>
              </forward>
              <!--=========== CHORD HERE ==================-->
              <note>
                  <pitch>
                      <step>D</step>
                      <octave>4</octave>
                  </pitch>
                  <duration>960</duration>
                  <voice>1</voice>
                  <type>whole</type>
                  <stem>up</stem>
                  <staff>1</staff>
                  <notations>
                  </notations>
              </note>
          </measure>
          <measure  number="10">
              <attributes>
              </attributes>
              <forward>
                  <duration>4</duration>
              </forward>
              <note>
                  <pitch>
                      <step>D</step>
                      <octave>4</octave>
                  </pitch>
                  <duration>240</duration>
                  <voice>1</voice>
                  <type>quarter</type>
                  <stem>up</stem>
                  <staff>1</staff>
                  <notations>
                  </notations>
              </note>
              <note>
                  <pitch>
                      <step>E</step>
                      <octave>4</octave>
                  </pitch>
                  <duration>120</duration>
                  <voice>1</voice>
                  <type>eighth</type>
                  <stem>up</stem>
                  <staff>1</staff>
                  <beam number="1">begin</beam>
                  <notations>
                  </notations>
              </note>
              <backup>
                  <duration>120</duration>
              </backup>
              <forward>
                  <duration>114</duration>
              </forward>
              <note>
                  <pitch>
                      <step>F</step>
                      <octave>4</octave>
                  </pitch>
                  <duration>120</duration>
                  <tie type="start"/>
                  <voice>1</voice>
                  <type>eighth</type>
                  <stem>up</stem>
                  <staff>1</staff>
                  <beam number="1">end</beam>
                  <notations>
                      <tied type="start"/>
                  </notations>
              </note>
              <backup>
                  <duration>120</duration>
              </backup>
              <forward>
                  <duration>122</duration>
              </forward>
              <note>
                  <pitch>
                      <step>F</step>
                      <octave>4</octave>
                  </pitch>
                  <duration>120</duration>
                  <tie type="stop"/>
                  <voice>1</voice>
                  <type>eighth</type>
                  <stem>up</stem>
                  <staff>1</staff>
                  <beam number="1">begin</beam>
                  <notations>
                      <tied type="stop"/>
                  </notations>
              </note>
              <backup>
                  <duration>120</duration>
              </backup>
              <forward>
                  <duration>108</duration>
              </forward>
              <note>
                  <pitch>
                      <step>E</step>
                      <octave>4</octave>
                  </pitch>
                  <duration>120</duration>
                  <voice>1</voice>
                  <type>eighth</type>
                  <stem>up</stem>
                  <staff>1</staff>
                  <beam number="1">end</beam>
                  <notations>
                  </notations>
              </note>
              <forward>
                  <duration>8</duration>
              </forward>
              <note>
                  <pitch>
                      <step>D</step>
                      <octave>4</octave>
                  </pitch>
                  <duration>240</duration>
                  <voice>1</voice>
                  <type>quarter</type>
                  <stem>up</stem>
                  <staff>1</staff>
                  <notations>
                  </notations>
              </note>
          </measure>
          <measure  number="11">
              <attributes>
              </attributes>
              <!--=========== CHORD HERE ==================-->
              <note>
                  <pitch>
                      <step>C</step>
                      <octave>4</octave>
                  </pitch>
                  <duration>960</duration>
                  <voice>1</voice>
                  <type>whole</type>
                  <stem>up</stem>
                  <staff>1</staff>
                  <notations>
                  </notations>
              </note>
          </measure>
          <measure  number="12">
              <attributes>
              </attributes>
              <note>
                  <pitch>
                      <step>C</step>
                      <octave>4</octave>
                  </pitch>
                  <duration>240</duration>
                  <voice>1</voice>
                  <type>quarter</type>
                  <stem>up</stem>
                  <staff>1</staff>
                  <notations>
                  </notations>
              </note>
              <backup>
                  <duration>9</duration>
              </backup>
              <note>
                  <pitch>
                      <step>D</step>
                      <octave>4</octave>
                  </pitch>
                  <duration>240</duration>
                  <voice>1</voice>
                  <type>quarter</type>
                  <stem>up</stem>
                  <staff>1</staff>
                  <notations>
                  </notations>
              </note>
              <backup>
                  <duration>231</duration>
              </backup>
              <!--=========== CHORD HERE ==================-->
              <forward>
                  <duration>235</duration>
              </forward>
              <note>
                  <pitch>
                      <step>E</step>
                      <octave>4</octave>
                  </pitch>
                  <duration>240</duration>
                  <voice>1</voice>
                  <type>quarter</type>
                  <stem>up</stem>
                  <staff>1</staff>
                  <notations>
                  </notations>
              </note>
              <forward>
                  <duration>7</duration>
              </forward>
              <note>
                  <pitch>
                      <step>C</step>
                      <octave>4</octave>
                  </pitch>
                  <duration>240</duration>
                  <voice>1</voice>
                  <type>quarter</type>
                  <stem>up</stem>
                  <staff>1</staff>
                  <notations>
                  </notations>
              </note>
          </measure>
          <measure  number="13">
              <attributes>
              </attributes>
              <!--=========== CHORD HERE ==================-->
              <note>
                  <pitch>
                      <step>C</step>
                      <octave>5</octave>
                  </pitch>
                  <duration>960</duration>
                  <voice>1</voice>
                  <type>whole</type>
                  <stem>down</stem>
                  <staff>1</staff>
                  <notations>
                  </notations>
              </note>
          </measure>
          <measure  number="14">
              <attributes>
              </attributes>
              <note>
                  <pitch>
                      <step>A</step>
                      <octave>4</octave>
                  </pitch>
                  <duration>240</duration>
                  <voice>1</voice>
                  <type>quarter</type>
                  <stem>up</stem>
                  <staff>1</staff>
                  <notations>
                  </notations>
              </note>
              <backup>
                  <duration>11</duration>
              </backup>
              <note>
                  <pitch>
                      <step>B</step>
                      <octave>4</octave>
                  </pitch>
                  <duration>120</duration>
                  <voice>1</voice>
                  <type>eighth</type>
                  <stem>down</stem>
                  <staff>1</staff>
                  <beam number="1">begin</beam>
                  <notations>
                  </notations>
              </note>
              <backup>
                  <duration>120</duration>
              </backup>
              <forward>
                  <duration>25</duration>
              </forward>
              <!--=========== CHORD HERE ==================-->
              <forward>
                  <duration>91</duration>
              </forward>
              <note>
                  <pitch>
                      <step>C</step>
                      <octave>5</octave>
                  </pitch>
                  <duration>120</duration>
                  <tie type="start"/>
                  <voice>1</voice>
                  <type>eighth</type>
                  <stem>down</stem>
                  <staff>1</staff>
                  <beam number="1">end</beam>
                  <notations>
                      <tied type="start"/>
                  </notations>
              </note>
              <backup>
                  <duration>120</duration>
              </backup>
              <forward>
                  <duration>135</duration>
              </forward>
              <note>
                  <pitch>
                      <step>C</step>
                      <octave>5</octave>
                  </pitch>
                  <duration>120</duration>
                  <tie type="stop"/>
                  <voice>1</voice>
                  <type>eighth</type>
                  <stem>down</stem>
                  <staff>1</staff>
                  <beam number="1">begin</beam>
                  <notations>
                      <tied type="stop"/>
                  </notations>
              </note>
              <backup>
                  <duration>120</duration>
              </backup>
              <forward>
                  <duration>121</duration>
              </forward>
              <note>
                  <pitch>
                      <step>B</step>
                      <octave>4</octave>
                  </pitch>
                  <duration>120</duration>
                  <voice>1</voice>
                  <type>eighth</type>
                  <stem>down</stem>
                  <staff>1</staff>
                  <beam number="1">end</beam>
                  <notations>
                  </notations>
              </note>
              <forward>
                  <duration>13</duration>
              </forward>
              <note>
                  <pitch>
                      <step>A</step>
                      <octave>4</octave>
                  </pitch>
                  <duration>240</duration>
                  <voice>1</voice>
                  <type>quarter</type>
                  <stem>up</stem>
                  <staff>1</staff>
                  <notations>
                  </notations>
              </note>
          </measure>
          <measure  number="15">
              <attributes>
              </attributes>
              <!--=========== CHORD HERE ==================-->
              <note>
                  <pitch>
                      <step>B</step>
                      <octave>4</octave>
                  </pitch>
                  <duration>960</duration>
                  <voice>1</voice>
                  <type>whole</type>
                  <stem>down</stem>
                  <staff>1</staff>
                  <notations>
                  </notations>
              </note>
          </measure>
          <measure  number="16">
              <attributes>
              </attributes>
              <!--=========== CHORD HERE ==================-->
              <note>
                  <pitch>
                      <step>G</step>
                      <octave>4</octave>
                  </pitch>
                  <duration>240</duration>
                  <voice>1</voice>
                  <type>quarter</type>
                  <stem>up</stem>
                  <staff>1</staff>
                  <notations>
                  </notations>
              </note>
              <backup>
                  <duration>10</duration>
              </backup>
              <note>
                  <pitch>
                      <step>A</step>
                      <octave>4</octave>
                  </pitch>
                  <duration>120</duration>
                  <voice>1</voice>
                  <type>eighth</type>
                  <stem>up</stem>
                  <staff>1</staff>
                  <beam number="1">begin</beam>
                  <notations>
                  </notations>
              </note>
              <backup>
                  <duration>120</duration>
              </backup>
              <forward>
                  <duration>121</duration>
              </forward>
              <note>
                  <pitch>
                      <step>B</step>
                      <octave>4</octave>
                  </pitch>
                  <duration>120</duration>
                  <tie type="start"/>
                  <voice>1</voice>
                  <type>eighth</type>
                  <stem>up</stem>
                  <staff>1</staff>
                  <beam number="1">end</beam>
                  <notations>
                      <tied type="start"/>
                  </notations>
              </note>
              <backup>
                  <duration>120</duration>
              </backup>
              <forward>
                  <duration>129</duration>
              </forward>
              <note>
                  <pitch>
                      <step>B</step>
                      <octave>4</octave>
                  </pitch>
                  <duration>120</duration>
                  <tie type="stop"/>
                  <voice>1</voice>
                  <type>eighth</type>
                  <stem>up</stem>
                  <staff>1</staff>
                  <beam number="1">begin</beam>
                  <notations>
                      <tied type="stop"/>
                  </notations>
              </note>
              <backup>
                  <duration>120</duration>
              </backup>
              <forward>
                  <duration>113</duration>
              </forward>
              <note>
                  <pitch>
                      <step>A</step>
                      <octave>4</octave>
                  </pitch>
                  <duration>120</duration>
                  <voice>1</voice>
                  <type>eighth</type>
                  <stem>up</stem>
                  <staff>1</staff>
                  <beam number="1">end</beam>
                  <notations>
                  </notations>
              </note>
              <forward>
                  <duration>4</duration>
              </forward>
              <note>
                  <pitch>
                      <step>G</step>
                      <octave>4</octave>
                  </pitch>
                  <duration>240</duration>
                  <voice>1</voice>
                  <type>quarter</type>
                  <stem>up</stem>
                  <staff>1</staff>
                  <notations>
                  </notations>
              </note>
          </measure>
          <measure  number="17">
              <attributes>
              </attributes>
              <!--=========== CHORD HERE ==================-->
              <note>
                  <pitch>
                      <step>A</step>
                      <octave>4</octave>
                  </pitch>
                  <duration>960</duration>
                  <voice>1</voice>
                  <type>whole</type>
                  <stem>up</stem>
                  <staff>1</staff>
                  <notations>
                  </notations>
              </note>
          </measure>
          <measure  number="18">
              <attributes>
              </attributes>
              <forward>
                  <duration>2</duration>
              </forward>
              <!--=========== CHORD HERE ==================-->
              <note>
                  <pitch>
                      <step>F</step>
                      <octave>4</octave>
                  </pitch>
                  <duration>240</duration>
                  <voice>1</voice>
                  <type>quarter</type>
                  <stem>up</stem>
                  <staff>1</staff>
                  <notations>
                  </notations>
              </note>
              <backup>
                  <duration>3</duration>
              </backup>
              <note>
                  <pitch>
                      <step>G</step>
                      <octave>4</octave>
                  </pitch>
                  <duration>120</duration>
                  <voice>1</voice>
                  <type>eighth</type>
                  <stem>up</stem>
                  <staff>1</staff>
                  <beam number="1">begin</beam>
                  <notations>
                  </notations>
              </note>
              <backup>
                  <duration>120</duration>
              </backup>
              <forward>
                  <duration>112</duration>
              </forward>
              <note>
                  <pitch>
                      <step>A</step>
                      <octave>4</octave>
                  </pitch>
                  <duration>120</duration>
                  <tie type="start"/>
                  <voice>1</voice>
                  <type>eighth</type>
                  <stem>up</stem>
                  <staff>1</staff>
                  <beam number="1">end</beam>
                  <notations>
                      <tied type="start"/>
                  </notations>
              </note>
              <backup>
                  <duration>120</duration>
              </backup>
              <forward>
                  <duration>129</duration>
              </forward>
              <note>
                  <pitch>
                      <step>A</step>
                      <octave>4</octave>
                  </pitch>
                  <duration>120</duration>
                  <tie type="stop"/>
                  <voice>1</voice>
                  <type>eighth</type>
                  <stem>up</stem>
                  <staff>1</staff>
                  <beam number="1">begin</beam>
                  <notations>
                      <tied type="stop"/>
                  </notations>
              </note>
              <backup>
                  <duration>120</duration>
              </backup>
              <forward>
                  <duration>112</duration>
              </forward>
              <note>
                  <pitch>
                      <step>G</step>
                      <octave>4</octave>
                  </pitch>
                  <duration>120</duration>
                  <voice>1</voice>
                  <type>eighth</type>
                  <stem>up</stem>
                  <staff>1</staff>
                  <beam number="1">end</beam>
                  <notations>
                  </notations>
              </note>
              <forward>
                  <duration>3</duration>
              </forward>
              <note>
                  <pitch>
                      <step>F</step>
                      <octave>4</octave>
                  </pitch>
                  <duration>240</duration>
                  <voice>1</voice>
                  <type>quarter</type>
                  <stem>up</stem>
                  <staff>1</staff>
                  <notations>
                  </notations>
              </note>
          </measure>
          <measure  number="19">
              <attributes>
              </attributes>
              <!--=========== CHORD HERE ==================-->
              <note>
                  <pitch>
                      <step>E</step>
                      <octave>4</octave>
                  </pitch>
                  <duration>480</duration>
                  <voice>1</voice>
                  <type>half</type>
                  <stem>up</stem>
                  <staff>1</staff>
                  <notations>
                  </notations>
              </note>
              <backup>
                  <duration>7</duration>
              </backup>
              <note>
                  <pitch>
                      <step>D</step>
                      <octave>4</octave>
                  </pitch>
                  <duration>480</duration>
                  <voice>1</voice>
                  <type>half</type>
                  <stem>up</stem>
                  <staff>1</staff>
                  <notations>
                  </notations>
              </note>
              <!--=========== CHORD HERE ==================-->
          </measure>
          <measure  number="20">
              <attributes>
              </attributes>
              <forward>
                  <duration>6</duration>
              </forward>
              <note>
                  <pitch>
                      <step>F</step>
                      <octave>4</octave>
                  </pitch>
                  <duration>480</duration>
                  <voice>1</voice>
                  <type>half</type>
                  <stem>up</stem>
                  <staff>1</staff>
                  <notations>
                  </notations>
              </note>
              <backup>
                  <duration>11</duration>
              </backup>
              <!--=========== CHORD HERE ==================-->
              <note>
                  <pitch>
                      <step>E</step>
                      <octave>4</octave>
                  </pitch>
                  <duration>240</duration>
                  <voice>1</voice>
                  <type>quarter</type>
                  <stem>up</stem>
                  <staff>1</staff>
                  <notations>
                  </notations>
              </note>
              <backup>
                  <duration>229</duration>
              </backup>
              <!--=========== CHORD HERE ==================-->
              <forward>
                  <duration>225</duration>
              </forward>
              <note>
                  <pitch>
                      <step>C</step>
                      <octave>4</octave>
                  </pitch>
                  <duration>240</duration>
                  <voice>1</voice>
                  <type>quarter</type>
                  <stem>up</stem>
                  <staff>1</staff>
                  <notations>
                  </notations>
              </note>
          </measure>
          <measure  number="21">
              <attributes>
              </attributes>
              <!--=========== CHORD HERE ==================-->
              <note>
                  <pitch>
                      <step>A</step>
                      <octave>4</octave>
                  </pitch>
                  <duration>960</duration>
                  <voice>1</voice>
                  <type>whole</type>
                  <stem>up</stem>
                  <staff>1</staff>
                  <notations>
                  </notations>
              </note>
          </measure>
          <measure  number="22">
              <attributes>
              </attributes>
              <forward>
                  <duration>11</duration>
              </forward>
              <note>
                  <pitch>
                      <step>A</step>
                      <octave>4</octave>
                  </pitch>
                  <duration>120</duration>
                  <voice>1</voice>
                  <type>eighth</type>
                  <stem>down</stem>
                  <staff>1</staff>
                  <beam number="1">begin</beam>
                  <notations>
                  </notations>
              </note>
              <backup>
                  <duration>120</duration>
              </backup>
              <forward>
                  <duration>109</duration>
              </forward>
              <note>
                  <pitch>
                      <step>B</step>
                      <octave>4</octave>
                  </pitch>
                  <duration>120</duration>
                  <voice>1</voice>
                  <type>eighth</type>
                  <stem>down</stem>
                  <staff>1</staff>
                  <beam number="1">continue</beam>
                  <notations>
                  </notations>
              </note>
              <backup>
                  <duration>75</duration>
              </backup>
              <!--=========== CHORD HERE ==================-->
              <forward>
                  <duration>65</duration>
              </forward>
              <note>
                  <pitch>
                      <step>C</step>
                      <octave>5</octave>
                  </pitch>
                  <duration>120</duration>
                  <voice>1</voice>
                  <type>eighth</type>
                  <stem>down</stem>
                  <staff>1</staff>
                  <beam number="1">continue</beam>
                  <notations>
                  </notations>
              </note>
              <backup>
                  <duration>5</duration>
              </backup>
              <note>
                  <pitch>
                      <step>D</step>
                      <octave>5</octave>
                  </pitch>
                  <duration>120</duration>
                  <tie type="start"/>
                  <voice>1</voice>
                  <type>eighth</type>
                  <stem>down</stem>
                  <staff>1</staff>
                  <beam number="1">end</beam>
                  <notations>
                      <tied type="start"/>
                  </notations>
              </note>
              <backup>
                  <duration>120</duration>
              </backup>
              <forward>
                  <duration>135</duration>
              </forward>
              <note>
                  <pitch>
                      <step>D</step>
                      <octave>5</octave>
                  </pitch>
                  <duration>120</duration>
                  <tie type="stop"/>
                  <voice>1</voice>
                  <type>eighth</type>
                  <stem>down</stem>
                  <staff>1</staff>
                  <beam number="1">begin</beam>
                  <notations>
                      <tied type="stop"/>
                  </notations>
              </note>
              <backup>
                  <duration>120</duration>
              </backup>
              <forward>
                  <duration>109</duration>
              </forward>
              <note>
                  <pitch>
                      <step>C</step>
                      <octave>5</octave>
                  </pitch>
                  <duration>120</duration>
                  <voice>1</voice>
                  <type>eighth</type>
                  <stem>down</stem>
                  <staff>1</staff>
                  <beam number="1">end</beam>
                  <notations>
                  </notations>
              </note>
              <backup>
                  <duration>3</duration>
              </backup>
              <note>
                  <pitch>
                      <step>D</step>
                      <octave>5</octave>
                  </pitch>
                  <duration>240</duration>
                  <voice>1</voice>
                  <type>quarter</type>
                  <stem>down</stem>
                  <staff>1</staff>
                  <notations>
                  </notations>
              </note>
          </measure>
          <measure  number="23">
              <attributes>
              </attributes>
              <!--=========== CHORD HERE ==================-->
              <note>
                  <pitch>
                      <step>E</step>
                      <octave>5</octave>
                  </pitch>
                  <duration>960</duration>
                  <voice>1</voice>
                  <type>whole</type>
                  <stem>down</stem>
                  <staff>1</staff>
                  <notations>
                  </notations>
              </note>
          </measure>
          <measure  number="24">
              <attributes>
              </attributes>
              <forward>
                  <duration>13</duration>
              </forward>
              <!--=========== CHORD HERE ==================-->
              <note>
                  <pitch>
                      <step>E</step>
                      <octave>5</octave>
                  </pitch>
                  <duration>240</duration>
                  <voice>1</voice>
                  <type>quarter</type>
                  <stem>down</stem>
                  <staff>1</staff>
                  <notations>
                  </notations>
              </note>
              <backup>
                  <duration>4</duration>
              </backup>
              <note>
                  <pitch>
                      <step>F</step>
                      <octave>5</octave>
                  </pitch>
                  <duration>120</duration>
                  <voice>1</voice>
                  <type>eighth</type>
                  <stem>down</stem>
                  <staff>1</staff>
                  <beam number="1">begin</beam>
                  <notations>
                  </notations>
              </note>
              <backup>
                  <duration>120</duration>
              </backup>
              <forward>
                  <duration>109</duration>
              </forward>
              <note>
                  <pitch>
                      <step>G</step>
                      <octave>5</octave>
                  </pitch>
                  <duration>120</duration>
                  <tie type="start"/>
                  <voice>1</voice>
                  <type>eighth</type>
                  <stem>down</stem>
                  <staff>1</staff>
                  <beam number="1">end</beam>
                  <notations>
                      <tied type="start"/>
                  </notations>
              </note>
              <backup>
                  <duration>120</duration>
              </backup>
              <forward>
                  <duration>122</duration>
              </forward>
              <note>
                  <pitch>
                      <step>G</step>
                      <octave>5</octave>
                  </pitch>
                  <duration>120</duration>
                  <tie type="stop"/>
                  <voice>1</voice>
                  <type>eighth</type>
                  <stem>down</stem>
                  <staff>1</staff>
                  <beam number="1">begin</beam>
                  <notations>
                      <tied type="stop"/>
                  </notations>
              </note>
              <backup>
                  <duration>120</duration>
              </backup>
              <forward>
                  <duration>111</duration>
              </forward>
              <note>
                  <pitch>
                      <step>F</step>
                      <octave>5</octave>
                  </pitch>
                  <duration>120</duration>
                  <voice>1</voice>
                  <type>eighth</type>
                  <stem>down</stem>
                  <staff>1</staff>
                  <beam number="1">end</beam>
                  <notations>
                  </notations>
              </note>
              <forward>
                  <duration>5</duration>
              </forward>
              <note>
                  <pitch>
                      <step>E</step>
                      <octave>5</octave>
                  </pitch>
                  <duration>240</duration>
                  <voice>1</voice>
                  <type>quarter</type>
                  <stem>down</stem>
                  <staff>1</staff>
                  <notations>
                  </notations>
              </note>
          </measure>
          <measure  number="25">
              <attributes>
              </attributes>
              <note>
                  <pitch>
                      <step>D</step>
                      <octave>5</octave>
                  </pitch>
                  <duration>720</duration>
                  <voice>1</voice>
                  <type>half</type>
                  <dot/>
                  <stem>down</stem>
                  <staff>1</staff>
                  <notations>
                  </notations>
              </note>
              <!--=========== CHORD HERE ==================-->
              <note>
                  <pitch>
                      <step>A</step>
                      <octave>4</octave>
                  </pitch>
                  <duration>240</duration>
                  <voice>1</voice>
                  <type>quarter</type>
                  <stem>up</stem>
                  <staff>1</staff>
                  <notations>
                  </notations>
              </note>
          </measure>
          <measure  number="26">
              <attributes>
              </attributes>
              <!--=========== CHORD HERE ==================-->
              <note>
                  <pitch>
                      <step>C</step>
                      <octave>5</octave>
                  </pitch>
                  <duration>480</duration>
                  <voice>1</voice>
                  <type>half</type>
                  <stem>down</stem>
                  <staff>1</staff>
                  <notations>
                  </notations>
              </note>
              <backup>
                  <duration>8</duration>
              </backup>
              <!--=========== CHORD HERE ==================-->
              <note>
                  <pitch>
                      <step>B</step>
                      <octave>4</octave>
                  </pitch>
                  <duration>480</duration>
                  <voice>1</voice>
                  <type>half</type>
                  <stem>down</stem>
                  <staff>1</staff>
                  <notations>
                  </notations>
              </note>
          </measure>
          <measure  number="27">
              <attributes>
              </attributes>
              <!--=========== CHORD HERE ==================-->
              <note>
                  <pitch>
                      <step>E</step>
                      <octave>5</octave>
                  </pitch>
                  <duration>480</duration>
                  <voice>1</voice>
                  <type>half</type>
                  <stem>down</stem>
                  <staff>1</staff>
                  <notations>
                  </notations>
              </note>
              <!--=========== CHORD HERE ==================-->
              <note>
                  <rest/>
                  <duration>480</duration>
                  <voice>1</voice>
                  <type>half</type>
                  <staff>1</staff>
              </note>
          </measure>
          <measure  number="28">
              <attributes>
              </attributes>
              <!--=========== CHORD HERE ==================-->
              <note>
                  <pitch>
                      <step>A</step>
                      <octave>4</octave>
                  </pitch>
                  <duration>960</duration>
                  <voice>1</voice>
                  <type>whole</type>
                  <stem>up</stem>
                  <staff>1</staff>
                  <notations>
                  </notations>
              </note>
          </measure>
          <measure  number="29">
              <attributes>
              </attributes>
              <forward>
                  <duration>15</duration>
              </forward>
              <note>
                  <pitch>
                      <step>A</step>
                      <octave>4</octave>
                  </pitch>
                  <duration>120</duration>
                  <voice>1</voice>
                  <type>eighth</type>
                  <stem>down</stem>
                  <staff>1</staff>
                  <beam number="1">begin</beam>
                  <notations>
                  </notations>
              </note>
              <backup>
                  <duration>120</duration>
              </backup>
              <forward>
                  <duration>112</duration>
              </forward>
              <note>
                  <pitch>
                      <step>B</step>
                      <octave>4</octave>
                  </pitch>
                  <duration>120</duration>
                  <voice>1</voice>
                  <type>eighth</type>
                  <stem>down</stem>
                  <staff>1</staff>
                  <beam number="1">continue</beam>
                  <notations>
                  </notations>
              </note>
              <backup>
                  <duration>96</duration>
              </backup>
              <!--=========== CHORD HERE ==================-->
              <forward>
                  <duration>89</duration>
              </forward>
              <note>
                  <pitch>
                      <step>C</step>
                      <octave>5</octave>
                  </pitch>
                  <duration>120</duration>
                  <voice>1</voice>
                  <type>eighth</type>
                  <stem>down</stem>
                  <staff>1</staff>
                  <beam number="1">continue</beam>
                  <notations>
                  </notations>
              </note>
              <note>
                  <pitch>
                      <step>D</step>
                      <octave>5</octave>
                  </pitch>
                  <duration>120</duration>
                  <tie type="start"/>
                  <voice>1</voice>
                  <type>eighth</type>
                  <stem>down</stem>
                  <staff>1</staff>
                  <beam number="1">end</beam>
                  <notations>
                      <tied type="start"/>
                  </notations>
              </note>
              <backup>
                  <duration>120</duration>
              </backup>
              <forward>
                  <duration>120</duration>
              </forward>
              <note>
                  <pitch>
                      <step>D</step>
                      <octave>5</octave>
                  </pitch>
                  <duration>120</duration>
                  <tie type="stop"/>
                  <voice>1</voice>
                  <type>eighth</type>
                  <stem>down</stem>
                  <staff>1</staff>
                  <beam number="1">begin</beam>
                  <notations>
                      <tied type="stop"/>
                  </notations>
              </note>
              <backup>
                  <duration>120</duration>
              </backup>
              <forward>
                  <duration>127</duration>
              </forward>
              <note>
                  <pitch>
                      <step>C</step>
                      <octave>5</octave>
                  </pitch>
                  <duration>120</duration>
                  <voice>1</voice>
                  <type>eighth</type>
                  <stem>down</stem>
                  <staff>1</staff>
                  <beam number="1">end</beam>
                  <notations>
                  </notations>
              </note>
              <forward>
                  <duration>3</duration>
              </forward>
              <note>
                  <pitch>
                      <step>D</step>
                      <octave>5</octave>
                  </pitch>
                  <duration>240</duration>
                  <voice>1</voice>
                  <type>quarter</type>
                  <stem>down</stem>
                  <staff>1</staff>
                  <notations>
                  </notations>
              </note>
          </measure>
          <measure  number="30">
              <attributes>
              </attributes>
              <!--=========== CHORD HERE ==================-->
              <note>
                  <pitch>
                      <step>E</step>
                      <octave>5</octave>
                  </pitch>
                  <duration>960</duration>
                  <voice>1</voice>
                  <type>whole</type>
                  <stem>down</stem>
                  <staff>1</staff>
                  <notations>
                  </notations>
              </note>
          </measure>
          <measure  number="31">
              <attributes>
              </attributes>
              <forward>
                  <duration>4</duration>
              </forward>
              <!--=========== CHORD HERE ==================-->
              <note>
                  <pitch>
                      <step>E</step>
                      <octave>5</octave>
                  </pitch>
                  <duration>240</duration>
                  <voice>1</voice>
                  <type>quarter</type>
                  <stem>down</stem>
                  <staff>1</staff>
                  <notations>
                  </notations>
              </note>
              <backup>
                  <duration>1</duration>
              </backup>
              <note>
                  <pitch>
                      <step>F</step>
                      <octave>5</octave>
                  </pitch>
                  <duration>120</duration>
                  <voice>1</voice>
                  <type>eighth</type>
                  <stem>down</stem>
                  <staff>1</staff>
                  <beam number="1">begin</beam>
                  <notations>
                  </notations>
              </note>
              <backup>
                  <duration>120</duration>
              </backup>
              <forward>
                  <duration>109</duration>
              </forward>
              <note>
                  <pitch>
                      <step>G</step>
                      <octave>5</octave>
                  </pitch>
                  <duration>120</duration>
                  <tie type="start"/>
                  <voice>1</voice>
                  <type>eighth</type>
                  <stem>down</stem>
                  <staff>1</staff>
                  <beam number="1">end</beam>
                  <notations>
                      <tied type="start"/>
                  </notations>
              </note>
              <backup>
                  <duration>120</duration>
              </backup>
              <forward>
                  <duration>128</duration>
              </forward>
              <note>
                  <pitch>
                      <step>G</step>
                      <octave>5</octave>
                  </pitch>
                  <duration>120</duration>
                  <tie type="stop"/>
                  <voice>1</voice>
                  <type>eighth</type>
                  <stem>down</stem>
                  <staff>1</staff>
                  <beam number="1">begin</beam>
                  <notations>
                      <tied type="stop"/>
                  </notations>
              </note>
              <backup>
                  <duration>120</duration>
              </backup>
              <forward>
                  <duration>119</duration>
              </forward>
              <note>
                  <pitch>
                      <step>F</step>
                      <octave>5</octave>
                  </pitch>
                  <duration>120</duration>
                  <voice>1</voice>
                  <type>eighth</type>
                  <stem>down</stem>
                  <staff>1</staff>
                  <beam number="1">end</beam>
                  <notations>
                  </notations>
              </note>
              <forward>
                  <duration>7</duration>
              </forward>
              <note>
                  <pitch>
                      <step>E</step>
                      <octave>5</octave>
                  </pitch>
                  <duration>240</duration>
                  <voice>1</voice>
                  <type>quarter</type>
                  <stem>down</stem>
                  <staff>1</staff>
                  <notations>
                  </notations>
              </note>
          </measure>
          <measure  number="32">
              <attributes>
              </attributes>
              <!--=========== CHORD HERE ==================-->
              <note>
                  <pitch>
                      <step>F</step>
                      <octave>5</octave>
                  </pitch>
                  <duration>720</duration>
                  <voice>1</voice>
                  <type>half</type>
                  <dot/>
                  <stem>down</stem>
                  <staff>1</staff>
                  <notations>
                  </notations>
              </note>
              <backup>
                  <duration>7</duration>
              </backup>
              <direction placement="above">
                  <direction-type>
                      <dynamics>
                      </dynamics>
                  </direction-type>
                  <voice>1</voice>
                  <staff>1</staff>
              </direction>
              <note>
                  <pitch>
                      <step>A</step>
                      <octave>4</octave>
                  </pitch>
                  <duration>240</duration>
                  <voice>1</voice>
                  <type>quarter</type>
                  <stem>up</stem>
                  <staff>1</staff>
                  <notations>
                  </notations>
              </note>
          </measure>
          <measure  number="33">
              <attributes>
              </attributes>
              <!--=========== CHORD HERE ==================-->
              <note>
                  <pitch>
                      <step>C</step>
                      <octave>5</octave>
                  </pitch>
                  <duration>480</duration>
                  <voice>1</voice>
                  <type>half</type>
                  <stem>down</stem>
                  <staff>1</staff>
                  <notations>
                  </notations>
              </note>
              <!--=========== CHORD HERE ==================-->
              <note>
                  <pitch>
                      <step>B</step>
                      <octave>4</octave>
                  </pitch>
                  <duration>240</duration>
                  <voice>1</voice>
                  <type>quarter</type>
                  <stem>down</stem>
                  <staff>1</staff>
                  <notations>
                  </notations>
              </note>
              <note>
                  <pitch>
                      <step>G</step>
                      <octave>4</octave>
                  </pitch>
                  <duration>240</duration>
                  <voice>1</voice>
                  <type>quarter</type>
                  <stem>up</stem>
                  <staff>1</staff>
                  <notations>
                  </notations>
              </note>
          </measure>
          <measure  number="34">
              <attributes>
              </attributes>
              <forward>
                  <duration>1</duration>
              </forward>
              <!--=========== CHORD HERE ==================-->
              <note>
                  <pitch>
                      <step>E</step>
                      <octave>5</octave>
                  </pitch>
                  <duration>120</duration>
                  <voice>1</voice>
                  <type>eighth</type>
                  <stem>down</stem>
                  <staff>1</staff>
                  <beam number="1">begin</beam>
                  <notations>
                  </notations>
              </note>
              <note>
                  <chord/>
                  <pitch>
                      <step>C</step>
                      <octave>5</octave>
                  </pitch>
                  <duration>120</duration>
                  <voice>1</voice>
                  <type>eighth</type>
                  <stem>down</stem>
                  <staff>1</staff>
                  <notations>
                  </notations>
              </note>
              <note>
                  <chord/>
                  <pitch>
                      <step>G</step>
                      <octave>4</octave>
                  </pitch>
                  <duration>120</duration>
                  <voice>1</voice>
                  <type>eighth</type>
                  <stem>down</stem>
                  <staff>1</staff>
                  <notations>
                  </notations>
              </note>
              <backup>
                  <duration>120</duration>
              </backup>
              <forward>
                  <duration>123</duration>
              </forward>
              <note>
                  <pitch>
                      <step>E</step>
                      <octave>5</octave>
                  </pitch>
                  <duration>120</duration>
                  <voice>1</voice>
                  <type>eighth</type>
                  <stem>down</stem>
                  <staff>1</staff>
                  <beam number="1">end</beam>
                  <notations>
                  </notations>
              </note>
              <note>
                  <chord/>
                  <pitch>
                      <step>C</step>
                      <octave>5</octave>
                  </pitch>
                  <duration>120</duration>
                  <voice>1</voice>
                  <type>eighth</type>
                  <stem>down</stem>
                  <staff>1</staff>
                  <notations>
                  </notations>
              </note>
              <note>
                  <chord/>
                  <pitch>
                      <step>G</step>
                      <octave>4</octave>
                  </pitch>
                  <duration>120</duration>
                  <voice>1</voice>
                  <type>eighth</type>
                  <stem>down</stem>
                  <staff>1</staff>
                  <notations>
                  </notations>
              </note>
              <backup>
                  <duration>5</duration>
              </backup>
              <!--=========== CHORD HERE ==================-->
              <forward>
                  <duration>2</duration>
              </forward>
              <note>
                  <pitch>
                      <step>D</step>
                      <octave>5</octave>
                  </pitch>
                  <duration>720</duration>
                  <voice>1</voice>
                  <type>half</type>
                  <dot/>
                  <stem>down</stem>
                  <staff>1</staff>
                  <notations>
                  </notations>
              </note>
              <note>
                  <chord/>
                  <pitch>
                      <step>G</step>
                      <octave>4</octave>
                  </pitch>
                  <duration>720</duration>
                  <voice>1</voice>
                  <type>half</type>
                  <dot/>
                  <stem>down</stem>
                  <staff>1</staff>
                  <notations>
                  </notations>
              </note>
              <note>
                  <chord/>
                  <pitch>
                      <step>B</step>
                      <octave>4</octave>
                  </pitch>
                  <duration>720</duration>
                  <voice>1</voice>
                  <type>half</type>
                  <dot/>
                  <stem>down</stem>
                  <staff>1</staff>
                  <notations>
                  </notations>
              </note>
              <backup>
                  <duration>2</duration>
              </backup>
              <direction placement="below">
                  <direction-type>
                      <words justify="left" font-family="unknown font" font-style="normal" font-size="12" font-weight="normal" color="#000000" enclosure="none">24</words>
                  </direction-type>
                  <voice>1</voice>
                  <staff>1</staff>
              </direction>
          </measure>
          <measure  number="35">
              <attributes>
              </attributes>
              <!--=========== CHORD HERE ==================-->
              <note>
                  <pitch>
                      <step>D</step>
                      <octave>5</octave>
                  </pitch>
                  <duration>120</duration>
                  <voice>1</voice>
                  <type>eighth</type>
                  <stem>down</stem>
                  <staff>1</staff>
                  <beam number="1">begin</beam>
                  <notations>
                  </notations>
              </note>
              <note>
                  <chord/>
                  <pitch>
                      <step>B</step>
                      <alter>-1</alter>
                      <octave>4</octave>
                  </pitch>
                  <duration>120</duration>
                  <voice>1</voice>
                  <type>eighth</type>
                  <accidental cautionary="no">flat</accidental>
                  <stem>down</stem>
                  <staff>1</staff>
                  <notations>
                  </notations>
              </note>
              <note>
                  <chord/>
                  <pitch>
                      <step>F</step>
                      <octave>4</octave>
                  </pitch>
                  <duration>120</duration>
                  <voice>1</voice>
                  <type>eighth</type>
                  <stem>down</stem>
                  <staff>1</staff>
                  <notations>
                  </notations>
              </note>
              <backup>
                  <duration>120</duration>
              </backup>
              <forward>
                  <duration>114</duration>
              </forward>
              <note>
                  <pitch>
                      <step>D</step>
                      <octave>5</octave>
                  </pitch>
                  <duration>120</duration>
                  <voice>1</voice>
                  <type>eighth</type>
                  <stem>down</stem>
                  <staff>1</staff>
                  <beam number="1">end</beam>
                  <notations>
                  </notations>
              </note>
              <note>
                  <chord/>
                  <pitch>
                      <step>B</step>
                      <alter>-1</alter>
                      <octave>4</octave>
                  </pitch>
                  <duration>120</duration>
                  <voice>1</voice>
                  <type>eighth</type>
                  <stem>down</stem>
                  <staff>1</staff>
                  <notations>
                  </notations>
              </note>
              <note>
                  <chord/>
                  <pitch>
                      <step>F</step>
                      <octave>4</octave>
                  </pitch>
                  <duration>120</duration>
                  <voice>1</voice>
                  <type>eighth</type>
                  <stem>down</stem>
                  <staff>1</staff>
                  <notations>
                  </notations>
              </note>
              <!--=========== CHORD HERE ==================-->
              <forward>
                  <duration>1</duration>
              </forward>
              <note>
                  <pitch>
                      <step>C</step>
                      <octave>5</octave>
                  </pitch>
                  <duration>720</duration>
                  <voice>1</voice>
                  <type>half</type>
                  <dot/>
                  <stem>down</stem>
                  <staff>1</staff>
                  <notations>
                  </notations>
              </note>
              <note>
                  <chord/>
                  <pitch>
                      <step>F</step>
                      <octave>4</octave>
                  </pitch>
                  <duration>720</duration>
                  <voice>1</voice>
                  <type>half</type>
                  <dot/>
                  <stem>down</stem>
                  <staff>1</staff>
                  <notations>
                  </notations>
              </note>
              <note>
                  <chord/>
                  <pitch>
                      <step>A</step>
                      <octave>4</octave>
                  </pitch>
                  <duration>720</duration>
                  <voice>1</voice>
                  <type>half</type>
                  <dot/>
                  <stem>down</stem>
                  <staff>1</staff>
                  <notations>
                  </notations>
              </note>
              <barline location="right">
                  <bar-style>light-light</bar-style>
              </barline>
          </measure>
          <measure  number="36">
              <attributes>
              </attributes>
              <forward>
                  <duration>1</duration>
              </forward>
              <!--=========== CHORD HERE ==================-->
              <note>
                  <pitch>
                      <step>E</step>
                      <octave>5</octave>
                  </pitch>
                  <duration>120</duration>
                  <voice>1</voice>
                  <type>eighth</type>
                  <stem>down</stem>
                  <staff>1</staff>
                  <beam number="1">begin</beam>
                  <notations>
                  </notations>
              </note>
              <note>
                  <chord/>
                  <pitch>
                      <step>C</step>
                      <octave>5</octave>
                  </pitch>
                  <duration>120</duration>
                  <voice>1</voice>
                  <type>eighth</type>
                  <stem>down</stem>
                  <staff>1</staff>
                  <notations>
                  </notations>
              </note>
              <note>
                  <chord/>
                  <pitch>
                      <step>G</step>
                      <octave>4</octave>
                  </pitch>
                  <duration>120</duration>
                  <voice>1</voice>
                  <type>eighth</type>
                  <stem>down</stem>
                  <staff>1</staff>
                  <notations>
                  </notations>
              </note>
              <backup>
                  <duration>120</duration>
              </backup>
              <forward>
                  <duration>123</duration>
              </forward>
              <note>
                  <pitch>
                      <step>E</step>
                      <octave>5</octave>
                  </pitch>
                  <duration>120</duration>
                  <voice>1</voice>
                  <type>eighth</type>
                  <stem>down</stem>
                  <staff>1</staff>
                  <beam number="1">end</beam>
                  <notations>
                  </notations>
              </note>
              <note>
                  <chord/>
                  <pitch>
                      <step>C</step>
                      <octave>5</octave>
                  </pitch>
                  <duration>120</duration>
                  <voice>1</voice>
                  <type>eighth</type>
                  <stem>down</stem>
                  <staff>1</staff>
                  <notations>
                  </notations>
              </note>
              <note>
                  <chord/>
                  <pitch>
                      <step>G</step>
                      <octave>4</octave>
                  </pitch>
                  <duration>120</duration>
                  <voice>1</voice>
                  <type>eighth</type>
                  <stem>down</stem>
                  <staff>1</staff>
                  <notations>
                  </notations>
              </note>
              <backup>
                  <duration>3</duration>
              </backup>
              <note>
                  <pitch>
                      <step>D</step>
                      <octave>5</octave>
                  </pitch>
                  <duration>720</duration>
                  <voice>1</voice>
                  <type>half</type>
                  <dot/>
                  <stem>down</stem>
                  <staff>1</staff>
                  <notations>
                  </notations>
              </note>
              <note>
                  <chord/>
                  <pitch>
                      <step>G</step>
                      <octave>4</octave>
                  </pitch>
                  <duration>720</duration>
                  <voice>1</voice>
                  <type>half</type>
                  <dot/>
                  <stem>down</stem>
                  <staff>1</staff>
                  <notations>
                  </notations>
              </note>
              <note>
                  <chord/>
                  <pitch>
                      <step>B</step>
                      <octave>4</octave>
                  </pitch>
                  <duration>720</duration>
                  <voice>1</voice>
                  <type>half</type>
                  <dot/>
                  <stem>down</stem>
                  <staff>1</staff>
                  <notations>
                  </notations>
              </note>
              <backup>
                  <duration>463</duration>
              </backup>
              <!--=========== CHORD HERE ==================-->
              <barline location="right">
                  <bar-style>light-heavy</bar-style>
              </barline>
          </measure>
      </part>
  </score-partwise>
